<svg xmlns="http://www.w3.org/2000/svg" xmlns:xlink="http://www.w3.org/1999/xlink" version="1.1" width="837.7875pt" height="416.82127pt" viewBox="0 0 837.7875 416.82127">
<defs>
<clipPath id="clip_0">
<path transform="matrix(1,0,0,-1,0,416.82127)" d="M49.3875 44.825H830.5875V377.46504H49.3875Z"/>
</clipPath>
<g id="font_1_48">
<path transform="matrix(.001,0,0,.001,0,0)" d="M318 664C267 664 229 639 203 589 177 539 165 464 165 364 165 264 177 189 203 139 229 89 267 64 318 64 369 64 407 89 433 139 458 189 471 264 471 364 471 464 458 539 433 589 407 639 369 664 318 664ZM318 742C399 742 461 709 505 645 548 580 570 486 570 364 570 241 548 147 505 83 461 19 399-13 317-13 235-13 173 19 130 83 87 147 66 241 66 364 66 486 87 580 130 645 173 709 236 742 318 742Z"/>
</g>
<clipPath id="clip_2">
<path transform="matrix(1,0,0,-1,0,416.82127)" d="M49.3875 44.825H830.5875V377.46504H49.3875Z"/>
</clipPath>
<g id="font_1_53">
<path transform="matrix(.001,0,0,.001,0,0)" d="M108 729H495V646H198V467C212 472 227 476 241 478 255 480 270 482 284 482 365 482 429 459 477 415 525 370 549 310 549 234 549 155 524 94 475 51 426 8 357-13 269-13 238-13 207-10 175-6 143-1 111 6 77 17V116C106 100 136 88 168 80 199 72 232 69 267 69 323 69 368 83 401 113 433 143 450 183 450 234 450 284 433 324 401 354 368 384 323 399 267 399 241 399 214 396 188 390 162 384 135 375 108 363V729Z"/>
</g>
<clipPath id="clip_3">
<path transform="matrix(1,0,0,-1,0,416.82127)" d="M49.3875 44.825H830.5875V377.46504H49.3875Z"/>
</clipPath>
<g id="font_1_49">
<path transform="matrix(.001,0,0,.001,0,0)" d="M124 83H285V639L110 604V694L284 729H383V83H544V0H124V83Z"/>
</g>
<clipPath id="clip_4">
<path transform="matrix(1,0,0,-1,0,416.82127)" d="M49.3875 44.825H830.5875V377.46504H49.3875Z"/>
</clipPath>
<clipPath id="clip_5">
<path transform="matrix(1,0,0,-1,0,416.82127)" d="M49.3875 44.825H830.5875V377.46504H49.3875Z"/>
</clipPath>
<g id="font_1_50">
<path transform="matrix(.001,0,0,.001,0,0)" d="M192 83H536V0H73V83C110 121 161 173 226 239 290 304 331 346 348 365 380 400 402 430 414 455 426 479 433 504 433 528 433 566 419 598 392 622 365 646 330 659 286 659 255 659 222 653 188 643 154 632 117 616 78 594V694C118 710 155 722 189 730 223 738 255 742 284 742 359 742 419 723 464 685 509 647 532 597 532 534 532 504 526 475 515 449 504 422 484 390 454 354 446 344 420 317 376 272 332 227 271 164 192 83Z"/>
</g>
<g id="font_6_84">
<path transform="matrix(.001,0,0,.001,0,0)" d="M5 729H677V587H435V0H247V587H5V729Z"/>
</g>
<g id="font_6_114">
<path transform="matrix(.001,0,0,.001,0,0)" d="M490 398C474 405 459 410 444 414 429 417 414 419 399 419 354 419 319 404 295 376 271 347 259 306 259 252V0H84V547H259V457C281 493 306 519 336 535 365 551 400 560 441 560 447 560 453 559 460 559 466 559 476 558 490 556V398Z"/>
</g>
<g id="font_6_97">
<path transform="matrix(.001,0,0,.001,0,0)" d="M329 246C292 246 264 239 246 227 228 215 219 197 219 173 219 151 226 133 241 121 256 108 277 102 303 102 336 102 364 113 386 137 408 161 420 190 420 226V246H329ZM596 312V0H420V81C396 47 370 23 341 9 311-5 276-13 234-13 177-13 131 3 96 36 60 68 43 111 43 164 43 228 65 275 109 305 153 335 222 350 317 350H420V364C420 391 409 411 387 424 365 437 331 444 285 444 247 444 212 440 180 432 148 424 118 413 91 399V532C128 541 165 548 203 553 241 557 279 560 317 560 415 560 486 540 530 501 574 462 596 399 596 312Z"/>
</g>
<g id="font_6_105">
<path transform="matrix(.001,0,0,.001,0,0)" d="M84 547H259V0H84V547ZM84 760H259V617H84V760Z"/>
</g>
<g id="font_6_110">
<path transform="matrix(.001,0,0,.001,0,0)" d="M634 333V0H458V54 255C458 302 457 334 455 352 453 370 449 383 444 392 437 403 428 412 416 418 404 424 390 428 376 428 339 428 310 414 290 386 269 358 259 319 259 269V0H84V547H259V467C285 499 312 522 342 537 372 552 405 560 441 560 504 560 552 540 585 502 617 463 634 407 634 333Z"/>
</g>
<g id="font_6_103">
<path transform="matrix(.001,0,0,.001,0,0)" d="M456 93C432 61 405 37 376 22 347 7 314 0 276 0 209 0 154 26 110 79 66 131 45 198 45 280 45 361 66 428 110 480 154 532 209 559 276 559 314 559 347 551 376 536 405 521 432 498 456 466V547H632V55C632-32 604-99 548-145 492-191 412-215 307-215 273-215 240-212 208-207 176-201 144-193 112-183V-47C142-64 172-77 202-86 231-94 260-99 290-99 347-99 389-86 416-61 442-36 456 2 456 55V93ZM341 433C305 433 276 419 256 393 236 366 226 328 226 280 226 230 235 192 255 166 275 140 303 127 341 127 377 127 406 140 426 167 446 193 456 231 456 280 456 328 446 366 426 393 406 419 377 433 341 433Z"/>
</g>
<g id="font_6_32">
</g>
<g id="font_6_83">
<path transform="matrix(.001,0,0,.001,0,0)" d="M599 706V552C559 570 520 583 482 592 444 601 408 606 374 606 329 606 296 599 274 587 252 575 242 556 242 530 242 510 249 494 264 484 278 473 305 464 343 456L423 440C503 424 561 399 595 366 629 332 647 285 647 224 647 144 623 84 575 45 527 6 455-13 357-13 311-13 264-8 218 0 171 8 124 20 78 38V197C124 172 169 153 213 141 256 128 298 122 339 122 379 122 411 128 433 142 455 156 466 175 466 201 466 223 458 241 443 253 428 265 399 277 355 287L282 303C209 319 156 344 122 378 88 412 72 458 72 516 72 588 95 644 142 683 188 722 256 742 344 742 384 742 425 739 467 733 509 727 553 718 599 706Z"/>
</g>
<g id="font_6_116">
<path transform="matrix(.001,0,0,.001,0,0)" d="M275 702V547H455V422H275V190C275 164 280 147 290 138 300 129 320 125 350 125H440V0H290C221 0 172 14 143 43 114 71 100 120 100 190V422H13V547H100V702H275Z"/>
</g>
<g id="font_6_101">
<path transform="matrix(.001,0,0,.001,0,0)" d="M630 275V225H221C225 184 240 153 266 133 291 112 326 102 372 102 408 102 446 107 485 118 523 129 563 146 604 168V33C562 17 521 6 480-1 438-9 397-13 356-13 257-13 180 12 125 62 70 112 43 182 43 273 43 362 70 432 124 483 178 534 252 560 346 560 432 560 500 534 552 482 604 430 630 361 630 275ZM450 333C450 366 440 393 421 413 401 433 376 444 345 444 311 444 283 434 262 415 241 396 228 369 223 333H450Z"/>
</g>
<g id="font_6_112">
<path transform="matrix(.001,0,0,.001,0,0)" d="M259 79V-207H84V547H259V467C283 499 309 522 339 537 368 552 402 560 440 560 507 560 562 533 606 479 649 425 671 356 671 272 671 188 649 119 606 66 562 13 507-13 440-13 402-13 368-5 339 9 309 23 283 47 259 79ZM375 433C337 433 309 419 289 392 269 364 259 325 259 273 259 221 269 181 289 154 309 126 337 113 375 113 412 113 440 126 460 154 480 181 490 221 490 273 490 325 480 364 460 392 440 419 412 433 375 433Z"/>
</g>
<g id="font_6_115">
<path transform="matrix(.001,0,0,.001,0,0)" d="M511 530V397C473 412 437 424 403 432 368 440 335 444 304 444 270 444 246 439 230 431 214 423 206 410 206 393 206 379 212 368 224 361 236 353 258 348 290 344L321 340C410 328 470 310 501 284 532 258 548 217 548 161 548 103 526 59 483 30 440 1 376-13 291-13 255-13 217-10 179-5 140 0 100 8 60 20V153C94 135 130 122 167 114 203 106 241 102 279 102 313 102 338 106 356 116 373 125 382 139 382 158 382 174 376 185 364 193 352 201 328 207 293 211L262 215C184 224 130 242 99 269 67 295 52 335 52 389 52 447 71 490 111 518 151 546 212 560 294 560 326 560 359 557 395 552 431 547 469 540 511 530Z"/>
</g>
<clipPath id="clip_7">
<path transform="matrix(1,0,0,-1,0,416.82127)" d="M49.3875 44.825H830.5875V377.46504H49.3875Z"/>
</clipPath>
<g id="font_1_55">
<path transform="matrix(.001,0,0,.001,0,0)" d="M82 729H551V687L286 0H183L432 646H82V729Z"/>
</g>
<g id="font_1_52">
<path transform="matrix(.001,0,0,.001,0,0)" d="M378 643 129 254H378V643ZM352 729H476V254H580V172H476V0H378V172H49V267L352 729Z"/>
</g>
<clipPath id="clip_8">
<path transform="matrix(1,0,0,-1,0,416.82127)" d="M49.3875 44.825H830.5875V377.46504H49.3875Z"/>
</clipPath>
<g id="font_1_57">
<path transform="matrix(.001,0,0,.001,0,0)" d="M110 15V105C134 93 159 84 185 78 210 72 235 69 260 69 324 69 374 90 408 134 442 178 462 244 468 334 448 306 424 284 396 269 367 254 335 247 300 247 226 247 168 269 126 313 84 357 63 417 63 494 63 568 85 628 129 674 173 719 232 742 306 742 390 742 455 709 499 645 543 580 566 486 566 364 566 248 538 157 484 89 429 21 356-13 264-13 239-13 214-10 189-6 163-2 137 5 110 15ZM306 324C350 324 385 339 411 369 437 399 450 441 450 494 450 546 437 588 411 618 385 648 350 664 306 664 262 664 227 648 201 618 175 588 162 546 162 494 162 441 175 399 201 369 227 339 262 324 306 324Z"/>
</g>
<clipPath id="clip_9">
<path transform="matrix(1,0,0,-1,0,416.82127)" d="M49.3875 44.825H830.5875V377.46504H49.3875Z"/>
</clipPath>
<g id="font_1_56">
<path transform="matrix(.001,0,0,.001,0,0)" d="M318 346C271 346 234 333 207 308 180 283 167 249 167 205 167 161 180 126 207 101 234 76 271 64 318 64 364 64 401 76 428 102 455 127 469 161 469 205 469 249 455 283 429 308 402 333 365 346 318 346ZM219 388C177 398 144 418 120 447 96 476 85 511 85 553 85 611 105 657 147 691 188 725 245 742 318 742 390 742 447 725 489 691 530 657 551 611 551 553 551 511 539 476 515 447 491 418 459 398 417 388 464 377 501 355 528 323 554 291 568 251 568 205 568 134 546 80 503 43 459 5 397-13 317-13 237-13 175 5 132 43 89 80 68 134 68 205 68 251 81 291 108 323 134 355 171 377 219 388ZM183 544C183 506 194 476 218 455 242 434 275 424 318 424 360 424 393 434 417 455 441 476 453 506 453 544 453 582 441 611 417 632 393 653 360 664 318 664 275 664 242 653 218 632 194 611 183 582 183 544Z"/>
</g>
<g id="font_6_65">
<path transform="matrix(.001,0,0,.001,0,0)" d="M534 133H240L194 0H5L275 729H499L769 0H580L534 133ZM287 268H487L387 558 287 268Z"/>
</g>
<g id="font_6_99">
<path transform="matrix(.001,0,0,.001,0,0)" d="M526 530V387C502 403 478 415 454 423 430 431 405 435 380 435 331 435 293 420 266 392 238 364 225 324 225 273 225 221 238 181 266 153 293 125 331 111 380 111 407 111 433 115 458 123 482 131 505 143 526 159V16C498 6 470-1 442-6 414-10 386-13 358-13 259-13 182 12 126 62 70 112 43 183 43 273 43 363 70 433 126 484 182 534 259 560 358 560 386 560 414 557 442 552 470 547 498 540 526 530Z"/>
</g>
<g id="font_6_117">
<path transform="matrix(.001,0,0,.001,0,0)" d="M78 213V547H254V492C254 462 253 425 253 380 253 335 253 305 253 291 253 247 254 215 256 196 258 176 262 162 268 154 275 142 284 133 296 127 307 121 320 118 336 118 372 118 401 132 422 160 442 188 453 227 453 277V547H628V0H453V79C427 47 399 23 369 9 339-5 307-13 272-13 208-13 160 6 127 44 94 82 78 139 78 213Z"/>
</g>
<g id="font_6_121">
<path transform="matrix(.001,0,0,.001,0,0)" d="M12 547H187L334 176 459 547H634L404-51C380-111 353-154 323-178 292-202 251-215 201-215H100V-100H155C184-100 205-95 219-86 233-76 243-59 251-35L256-20 12 547Z"/>
</g>
<g id="font_6_40">
<path transform="matrix(.001,0,0,.001,0,0)" d="M377-131H232C182-50 145 26 121 98 97 170 86 241 86 313 86 384 98 456 122 529 146 602 182 679 232 759H377C335 681 303 606 283 532 262 458 252 386 252 314 252 242 262 169 283 95 303 21 335-53 377-131Z"/>
</g>
<g id="font_6_37">
<path transform="matrix(.001,0,0,.001,0,0)" d="M775 301C751 301 733 291 721 271 708 251 702 222 702 185 702 147 708 119 721 99 733 79 751 69 775 69 798 69 816 79 828 99 840 119 847 147 847 185 847 222 840 251 828 271 816 291 798 301 775 301ZM775 383C835 383 883 365 918 330 952 294 970 246 970 185 970 123 952 75 918 40 883 4 835-13 775-13 714-13 666 4 631 40 596 75 579 123 579 185 579 246 596 294 631 330 666 365 714 383 775 383ZM327-13H219L675 742H783L327-13ZM227 742C287 742 335 724 370 689 404 653 422 605 422 544 422 482 404 434 370 398 335 362 287 345 227 345 166 345 118 362 84 398 49 434 32 482 32 544 32 605 49 653 84 689 118 724 166 742 227 742ZM227 660C203 660 185 650 173 630 160 610 154 581 154 544 154 506 160 477 173 457 185 437 203 427 227 427 250 427 268 437 281 457 293 477 300 506 300 544 300 581 293 610 281 630 268 650 250 660 227 660Z"/>
</g>
<g id="font_6_41">
<path transform="matrix(.001,0,0,.001,0,0)" d="M80-131C122-53 153 21 174 95 194 169 205 242 205 314 205 386 194 458 174 532 153 606 122 681 80 759H225C274 679 311 602 335 529 359 456 371 384 371 313 371 241 359 170 335 98 311 26 275-50 225-131H80Z"/>
</g>
<clipPath id="clip_10">
<path transform="matrix(1,0,0,-1,0,416.82127)" d="M49.3875 44.825H830.5875V377.46504H49.3875Z"/>
</clipPath>
<clipPath id="clip_11">
<path transform="matrix(1,0,0,-1,0,416.82127)" d="M49.3875 44.825H830.5875V377.46504H49.3875Z"/>
</clipPath>
<clipPath id="clip_12">
<path transform="matrix(1,0,0,-1,0,416.82127)" d="M49.3875 44.825H830.5875V377.46504H49.3875Z"/>
</clipPath>
<clipPath id="clip_13">
<path transform="matrix(1,0,0,-1,66.29659,344.78028)" d="M-8-8H8V8H-8Z"/>
</clipPath>
<clipPath id="clip_14">
<path transform="matrix(1,0,0,-1,93.351139,317.56428)" d="M-8-8H8V8H-8Z"/>
</clipPath>
<clipPath id="clip_15">
<path transform="matrix(1,0,0,-1,120.40568,359.90028)" d="M-8-8H8V8H-8Z"/>
</clipPath>
<clipPath id="clip_16">
<path transform="matrix(1,0,0,-1,147.46022,302.44429)" d="M-8-8H8V8H-8Z"/>
</clipPath>
<clipPath id="clip_17">
<path transform="matrix(1,0,0,-1,174.51477,284.30027)" d="M-8-8H8V8H-8Z"/>
</clipPath>
<clipPath id="clip_18">
<path transform="matrix(1,0,0,-1,201.56932,305.46827)" d="M-8-8H8V8H-8Z"/>
</clipPath>
<clipPath id="clip_19">
<path transform="matrix(1,0,0,-1,228.62387,244.98827)" d="M-8-8H8V8H-8Z"/>
</clipPath>
<clipPath id="clip_20">
<path transform="matrix(1,0,0,-1,255.67842,217.77227)" d="M-8-8H8V8H-8Z"/>
</clipPath>
<clipPath id="clip_21">
<path transform="matrix(1,0,0,-1,282.73298,235.91626)" d="M-8-8H8V8H-8Z"/>
</clipPath>
<clipPath id="clip_22">
<path transform="matrix(1,0,0,-1,309.7875,244.98827)" d="M-8-8H8V8H-8Z"/>
</clipPath>
<clipPath id="clip_23">
<path transform="matrix(1,0,0,-1,336.84205,175.43627)" d="M-8-8H8V8H-8Z"/>
</clipPath>
<clipPath id="clip_24">
<path transform="matrix(1,0,0,-1,363.89659,208.70026)" d="M-8-8H8V8H-8Z"/>
</clipPath>
<clipPath id="clip_25">
<path transform="matrix(1,0,0,-1,390.9511,235.91626)" d="M-8-8H8V8H-8Z"/>
</clipPath>
<clipPath id="clip_26">
<path transform="matrix(1,0,0,-1,418.00566,214.74826)" d="M-8-8H8V8H-8Z"/>
</clipPath>
<clipPath id="clip_27">
<path transform="matrix(1,0,0,-1,445.06019,193.58026)" d="M-8-8H8V8H-8Z"/>
</clipPath>
<clipPath id="clip_28">
<path transform="matrix(1,0,0,-1,472.11473,187.53226)" d="M-8-8H8V8H-8Z"/>
</clipPath>
<clipPath id="clip_29">
<path transform="matrix(1,0,0,-1,499.16926,148.22026)" d="M-8-8H8V8H-8Z"/>
</clipPath>
<clipPath id="clip_30">
<path transform="matrix(1,0,0,-1,526.2238,184.50826)" d="M-8-8H8V8H-8Z"/>
</clipPath>
<clipPath id="clip_31">
<path transform="matrix(1,0,0,-1,553.2784,151.24427)" d="M-8-8H8V8H-8Z"/>
</clipPath>
<clipPath id="clip_32">
<path transform="matrix(1,0,0,-1,580.33297,136.12427)" d="M-8-8H8V8H-8Z"/>
</clipPath>
<clipPath id="clip_33">
<path transform="matrix(1,0,0,-1,607.3875,190.55628)" d="M-8-8H8V8H-8Z"/>
</clipPath>
<clipPath id="clip_34">
<path transform="matrix(1,0,0,-1,634.4421,151.24428)" d="M-8-8H8V8H-8Z"/>
</clipPath>
<clipPath id="clip_35">
<path transform="matrix(1,0,0,-1,661.49667,160.31629)" d="M-8-8H8V8H-8Z"/>
</clipPath>
<clipPath id="clip_36">
<path transform="matrix(1,0,0,-1,688.5512,169.38829)" d="M-8-8H8V8H-8Z"/>
</clipPath>
<clipPath id="clip_37">
<path transform="matrix(1,0,0,-1,715.6058,175.4363)" d="M-8-8H8V8H-8Z"/>
</clipPath>
<clipPath id="clip_38">
<path transform="matrix(1,0,0,-1,0,416.82127)" d="M49.3875 44.825H830.5875V377.46504H49.3875Z"/>
</clipPath>
<clipPath id="clip_39">
<path transform="matrix(1,0,0,-1,580.33297,136.12427)" d="M-8-8H8V8H-8Z"/>
</clipPath>
<clipPath id="clip_40">
<path transform="matrix(1,0,0,-1,607.3875,163.34027)" d="M-8-8H8V8H-8Z"/>
</clipPath>
<clipPath id="clip_41">
<path transform="matrix(1,0,0,-1,634.4421,139.14827)" d="M-8-8H8V8H-8Z"/>
</clipPath>
<clipPath id="clip_42">
<path transform="matrix(1,0,0,-1,661.49667,117.98027)" d="M-8-8H8V8H-8Z"/>
</clipPath>
<clipPath id="clip_43">
<path transform="matrix(1,0,0,-1,688.5512,148.22028)" d="M-8-8H8V8H-8Z"/>
</clipPath>
<clipPath id="clip_44">
<path transform="matrix(1,0,0,-1,715.6058,121.00427)" d="M-8-8H8V8H-8Z"/>
</clipPath>
<clipPath id="clip_45">
<path transform="matrix(1,0,0,-1,742.66036,127.05227)" d="M-8-8H8V8H-8Z"/>
</clipPath>
<clipPath id="clip_46">
<path transform="matrix(1,0,0,-1,769.7149,111.93227)" d="M-8-8H8V8H-8Z"/>
</clipPath>
<clipPath id="clip_47">
<path transform="matrix(1,0,0,-1,796.7695,87.740268)" d="M-8-8H8V8H-8Z"/>
</clipPath>
<clipPath id="clip_48">
<path transform="matrix(1,0,0,-1,0,416.82127)" d="M49.3875 44.825H830.5875V377.46504H49.3875Z"/>
</clipPath>
<clipPath id="clip_49">
<path transform="matrix(1,0,0,-1,0,416.82127)" d="M49.3875 44.825H830.5875V377.46504H49.3875Z"/>
</clipPath>
<g id="font_1_83">
<path transform="matrix(.001,0,0,.001,0,0)" d="M535 705V609C497 627 462 640 429 649 395 657 363 662 333 662 279 662 237 651 208 631 179 610 165 580 165 542 165 510 174 485 194 469 213 452 250 439 304 429L364 417C437 403 491 378 526 343 561 307 579 260 579 201 579 130 555 77 508 41 460 5 391-13 300-13 265-13 228-9 189-2 150 5 110 16 69 32V134C109 111 148 94 186 83 224 71 262 66 300 66 356 66 399 77 430 99 460 121 476 152 476 194 476 230 465 258 443 278 421 298 385 313 335 323L275 335C201 349 148 372 115 404 82 435 66 478 66 534 66 598 88 649 134 686 179 723 242 742 322 742 356 742 390 739 426 733 461 727 497 717 535 705Z"/>
</g>
<g id="font_1_116">
<path transform="matrix(.001,0,0,.001,0,0)" d="M183 702V547H368V477H183V180C183 135 189 106 201 94 213 81 238 75 276 75H368V0H276C206 0 158 13 132 39 106 65 93 112 93 180V477H27V547H93V702H183Z"/>
</g>
<g id="font_1_97">
<path transform="matrix(.001,0,0,.001,0,0)" d="M343 275C270 275 220 266 192 250 164 233 150 205 150 165 150 133 160 107 181 89 202 70 231 61 267 61 317 61 357 78 387 114 417 149 432 196 432 255V275H343ZM522 312V0H432V83C411 49 385 25 355 10 325-5 287-13 243-13 187-13 142 2 109 33 76 64 60 106 60 159 60 220 80 266 122 298 163 329 224 345 306 345H432V354C432 395 418 427 391 450 364 472 326 484 277 484 245 484 215 480 185 472 155 464 127 453 100 439V522C132 534 164 544 195 550 226 556 256 560 286 560 365 560 424 539 463 498 502 457 522 395 522 312Z"/>
</g>
<g id="font_1_103">
<path transform="matrix(.001,0,0,.001,0,0)" d="M454 280C454 344 440 395 414 431 387 467 349 485 301 485 253 485 215 467 188 431 161 395 148 344 148 280 148 215 161 165 188 129 215 93 253 75 301 75 349 75 387 93 414 129 440 165 454 215 454 280ZM544 68C544-24 523-93 482-139 440-184 377-207 292-207 260-207 231-204 203-200 175-195 147-188 121-178V-91C147-105 173-115 199-122 225-129 251-133 278-133 336-133 380-117 410-87 439-56 454-10 454 52V96C435 64 411 40 382 24 353 8 319 0 279 0 211 0 157 25 116 76 75 127 55 195 55 280 55 364 75 432 116 483 157 534 211 560 279 560 319 560 353 552 382 536 411 520 435 496 454 464V547H544V68Z"/>
</g>
<g id="font_1_101">
<path transform="matrix(.001,0,0,.001,0,0)" d="M562 296V252H149C153 190 171 142 205 110 238 78 284 62 344 62 378 62 412 66 444 74 476 82 509 95 541 113V28C509 14 476 3 442-3 408-9 373-13 339-13 251-13 182 12 131 62 80 112 55 181 55 268 55 357 79 428 127 481 175 533 241 560 323 560 397 560 455 536 498 489 540 441 562 377 562 296ZM472 322C471 371 457 410 431 440 404 469 368 484 324 484 274 484 234 469 204 441 174 413 156 373 152 322H472Z"/>
</g>
<g id="font_1_32">
</g>
<g id="font_1_111">
<path transform="matrix(.001,0,0,.001,0,0)" d="M306 484C258 484 220 465 192 427 164 389 150 338 150 273 150 207 163 156 191 118 219 80 257 62 306 62 354 62 392 80 420 118 448 156 462 207 462 273 462 337 448 389 420 427 392 465 354 484 306 484ZM306 560C384 560 445 534 490 484 534 433 557 363 557 273 557 183 534 113 490 63 445 12 384-13 306-13 227-13 165 12 121 63 77 113 55 183 55 273 55 363 77 433 121 484 165 534 227 560 306 560Z"/>
</g>
<g id="font_1_110">
<path transform="matrix(.001,0,0,.001,0,0)" d="M549 330V0H459V327C459 379 448 417 428 443 408 469 378 482 338 482 289 482 251 466 223 435 195 404 181 362 181 309V0H91V547H181V462C202 494 227 519 257 535 286 551 320 560 358 560 420 560 468 540 500 501 532 462 549 405 549 330Z"/>
</g>
<g id="font_1_119">
<path transform="matrix(.001,0,0,.001,0,0)" d="M42 547H132L244 120 356 547H462L574 120 686 547H776L633 0H527L409 448 291 0H185L42 547Z"/>
</g>
<g id="font_1_46">
<path transform="matrix(.001,0,0,.001,0,0)" d="M107 124H210V0H107V124Z"/>
</g>
<g id="font_1_37">
<path transform="matrix(.001,0,0,.001,0,0)" d="M727 321C699 321 676 309 660 285 644 261 636 227 636 184 636 142 644 108 660 84 676 60 699 48 727 48 755 48 777 60 793 84 809 108 817 142 817 184 817 226 809 260 793 284 777 308 755 321 727 321ZM727 383C778 383 819 365 849 329 879 293 895 244 895 184 895 123 879 75 849 40 819 4 778-13 727-13 675-13 633 4 603 40 573 75 558 123 558 184 558 245 573 293 603 329 633 365 675 383 727 383ZM223 680C195 680 173 667 157 643 141 619 133 586 133 544 133 500 141 467 157 443 173 419 195 407 223 407 251 407 274 419 290 443 306 467 314 500 314 544 314 586 305 619 289 643 273 667 251 680 223 680ZM664 742H742L286-13H208L664 742ZM223 742C274 742 315 724 346 688 376 652 392 604 392 544 392 482 376 434 346 398 316 362 275 345 223 345 171 345 130 362 100 398 70 434 55 482 55 544 55 604 70 652 100 688 130 724 171 742 223 742Z"/>
</g>
<g id="font_1_51">
<path transform="matrix(.001,0,0,.001,0,0)" d="M406 393C453 383 490 362 516 330 542 298 556 258 556 212 556 140 531 84 482 45 432 6 362-13 271-13 240-13 208-10 176-4 144 1 110 10 76 22V117C103 101 133 89 166 81 198 73 232 69 268 69 330 69 377 81 409 105 441 129 458 165 458 212 458 254 443 288 413 312 383 336 341 349 287 349H202V430H291C339 430 376 439 402 459 428 478 441 506 441 543 441 580 427 609 401 629 374 649 336 659 287 659 260 659 231 656 200 650 169 644 135 635 98 623V711C135 721 170 729 203 734 235 739 266 742 296 742 370 742 429 725 473 691 517 657 539 611 539 553 539 513 527 479 504 451 481 423 448 403 406 393Z"/>
</g>
<g id="font_6_73">
<path transform="matrix(.001,0,0,.001,0,0)" d="M92 729H280V0H92V729Z"/>
</g>
<g id="font_6_77">
<path transform="matrix(.001,0,0,.001,0,0)" d="M92 729H331L497 339 664 729H903V0H725V533L557 140H438L270 533V0H92V729Z"/>
</g>
<g id="font_6_69">
<path transform="matrix(.001,0,0,.001,0,0)" d="M92 729H599V587H280V451H580V309H280V142H610V0H92V729Z"/>
</g>
<g id="font_6_50">
<path transform="matrix(.001,0,0,.001,0,0)" d="M288 138H609V0H79V138L345 373C369 394 386 415 398 436 409 456 415 478 415 500 415 534 403 561 380 582 357 603 327 614 289 614 259 614 227 607 193 595 158 582 121 563 81 539V699C123 713 165 723 207 731 248 738 288 742 328 742 415 742 483 722 531 684 579 646 604 592 604 524 604 484 593 446 573 412 552 378 509 332 444 275L288 138Z"/>
</g>
<g id="font_6_52">
<path transform="matrix(.001,0,0,.001,0,0)" d="M368 574 162 269H368V574ZM337 729H546V269H650V133H546V0H368V133H45V294L337 729Z"/>
</g>
<g id="font_6_86">
<path transform="matrix(.001,0,0,.001,0,0)" d="M5 729H194L387 191 580 729H769L499 0H275L5 729Z"/>
</g>
<g id="font_6_71">
<path transform="matrix(.001,0,0,.001,0,0)" d="M747 54C700 31 651 14 601 3 550-7 498-13 445-13 323-13 227 20 156 88 85 155 50 247 50 364 50 481 86 573 158 641 230 708 329 742 455 742 503 742 550 737 594 728 638 719 680 706 720 688V537C679 560 639 577 599 589 559 600 518 606 478 606 403 606 345 585 305 543 264 501 244 441 244 364 244 286 263 227 302 185 341 143 397 122 469 122 489 122 507 123 524 125 540 127 555 131 569 137V279H454V405H747V54Z"/>
</g>
<g id="font_6_64">
<path transform="matrix(.001,0,0,.001,0,0)" d="M406 263C406 223 414 191 431 168 448 145 471 134 501 134 529 134 552 145 570 169 587 192 596 223 596 263 596 302 587 333 570 356 552 379 529 391 500 391 471 391 448 379 431 356 414 333 406 302 406 263ZM606 116C596 93 580 75 558 62 536 49 511 43 483 43 427 43 381 63 346 104 311 144 294 197 294 262 294 327 311 380 346 421 381 461 427 482 483 482 511 482 536 475 558 462 580 449 596 431 606 408V472H708V134C748 140 780 159 803 192 826 224 838 266 838 318 838 350 833 381 824 409 814 437 800 464 781 488 749 527 710 557 664 579 618 601 568 612 514 612 476 612 440 607 406 597 371 587 339 572 310 553 262 521 224 479 197 429 170 379 157 324 157 265 157 216 165 170 183 128 200 86 225 48 259 16 291-15 329-39 371-56 413-72 458-81 506-81 546-81 587-73 628-58 669-42 704-22 734 3L786-75C745-107 701-131 653-148 605-164 556-173 507-173 447-173 390-162 336-141 282-119 235-88 193-48 151-8 120 38 98 92 76 146 66 203 66 265 66 324 77 380 99 434 121 488 152 535 194 576 234 616 282 648 337 670 391 692 448 703 507 703 579 703 645 689 705 661 765 633 815 593 855 541 879 509 898 474 910 437 922 399 929 360 929 320 929 232 902 163 849 114 796 65 721 41 625 41H606V116Z"/>
</g>
<g id="font_6_51">
<path transform="matrix(.001,0,0,.001,0,0)" d="M466 393C515 380 552 358 578 327 603 295 616 255 616 207 616 135 588 80 533 43 477 5 397-13 291-13 253-13 216-10 178-4 140 1 103 10 67 22V167C102 149 137 136 172 127 206 118 240 114 274 114 324 114 362 122 388 140 414 157 428 182 428 214 428 247 414 272 387 289 360 306 320 315 267 315H192V436H271C318 436 353 443 376 458 399 472 411 495 411 526 411 554 399 575 377 591 355 606 323 614 282 614 252 614 221 610 190 603 159 596 128 586 98 573V711C135 721 172 729 208 734 244 739 280 742 316 742 410 742 481 726 528 695 575 664 599 617 599 555 599 512 587 477 565 450 543 423 510 404 466 393Z"/>
</g>
<g id="font_6_58">
<path transform="matrix(.001,0,0,.001,0,0)" d="M112 547H288V358H112V547ZM112 189H288V0H112V189Z"/>
</g>
<g id="font_6_82">
<path transform="matrix(.001,0,0,.001,0,0)" d="M359 406C398 406 426 413 443 428 460 442 469 466 469 500 469 533 460 557 443 571 426 585 398 593 359 593H280V406H359ZM280 276V0H92V729H379C475 729 545 712 590 680 634 648 657 597 657 528 657 480 645 440 622 409 598 378 563 355 517 341 543 335 566 321 586 301 606 280 627 249 648 207L750 0H550L461 181C443 217 424 242 406 256 388 269 363 276 333 276H280Z"/>
</g>
<g id="font_6_76">
<path transform="matrix(.001,0,0,.001,0,0)" d="M92 729H280V142H610V0H92V729Z"/>
</g>
<g id="font_6_119">
<path transform="matrix(.001,0,0,.001,0,0)" d="M35 547H205L297 170 389 547H535L627 174 719 547H889L745 0H554L462 376 370 0H179L35 547Z"/>
</g>
<g id="font_6_104">
<path transform="matrix(.001,0,0,.001,0,0)" d="M634 333V0H458V54 254C458 302 457 334 455 352 453 370 449 383 444 392 437 403 428 412 416 418 404 424 390 428 376 428 339 428 310 414 290 386 269 358 259 319 259 269V0H84V760H259V467C285 499 312 522 342 537 372 552 405 560 441 560 504 560 552 540 585 502 617 463 634 407 634 333Z"/>
</g>
<g id="font_6_68">
<path transform="matrix(.001,0,0,.001,0,0)" d="M280 587V142H347C423 142 482 161 523 199 563 237 584 292 584 365 584 437 563 492 523 530 483 568 424 587 347 587H280ZM92 729H290C400 729 483 721 537 705 591 689 638 663 677 625 711 592 736 554 753 511 769 468 778 419 778 365 778 310 769 261 753 218 736 174 711 136 677 104 637 66 590 39 536 23 481 7 399 0 290 0H92V729Z"/>
</g>
<g id="font_6_102">
<path transform="matrix(.001,0,0,.001,0,0)" d="M444 760V645H347C322 645 305 640 295 631 285 622 281 607 281 585V547H430V422H281V0H106V422H19V547H106V585C106 644 122 688 156 717 189 745 240 760 310 760H444Z"/>
</g>
<g id="font_6_108">
<path transform="matrix(.001,0,0,.001,0,0)" d="M84 760H259V0H84V760Z"/>
</g>
<g id="font_6_45">
<path transform="matrix(.001,0,0,.001,0,0)" d="M54 359H361V217H54V359Z"/>
</g>
<g id="font_6_98">
<path transform="matrix(.001,0,0,.001,0,0)" d="M375 113C412 113 440 126 460 154 480 181 490 221 490 273 490 325 480 364 460 392 440 419 412 433 375 433 337 433 309 419 289 392 269 364 259 325 259 273 259 221 269 181 289 154 309 126 337 113 375 113ZM259 467C283 499 309 522 339 537 368 552 402 560 440 560 507 560 562 533 606 479 649 425 671 356 671 272 671 188 649 119 606 66 562 13 507-13 440-13 402-13 368-5 339 9 309 23 283 47 259 79V0H84V760H259V467Z"/>
</g>
<g id="font_6_100">
<path transform="matrix(.001,0,0,.001,0,0)" d="M456 467V760H632V0H456V79C432 47 405 23 376 9 347-5 314-13 276-13 208-13 153 13 110 66 66 119 45 188 45 272 45 356 66 425 110 479 153 533 208 560 276 560 314 560 347 552 376 537 405 522 432 499 456 467ZM341 113C378 113 406 126 426 154 446 181 456 221 456 273 456 325 446 364 426 392 406 419 378 433 341 433 303 433 275 419 255 392 235 364 226 325 226 273 226 221 235 181 255 154 275 126 303 113 341 113Z"/>
</g>
<g id="font_6_67">
<path transform="matrix(.001,0,0,.001,0,0)" d="M670 40C635 22 599 8 562 0 524-8 485-13 445-13 323-13 227 20 156 88 85 155 50 247 50 364 50 480 85 572 156 640 227 708 323 742 445 742 485 742 524 737 562 728 599 719 635 706 670 688V537C635 561 601 578 567 589 533 600 497 606 460 606 392 606 339 584 301 541 263 498 244 439 244 364 244 288 263 229 301 186 339 143 392 122 460 122 497 122 533 127 567 138 601 149 635 167 670 191V40Z"/>
</g>
<g id="font_6_109">
<path transform="matrix(.001,0,0,.001,0,0)" d="M591 456C613 490 639 515 669 533 699 551 733 560 770 560 832 560 880 540 913 502 946 463 963 407 963 333V0H787V285C787 289 788 294 788 298 788 302 788 309 788 318 788 356 782 384 771 402 759 419 741 428 716 428 682 428 657 414 639 387 621 359 611 320 611 269V0H435V285C435 345 429 384 419 402 409 419 390 428 364 428 330 428 304 414 286 387 268 359 259 320 259 269V0H83V547H259V467C280 497 305 520 333 536 361 552 391 560 425 560 462 560 495 550 524 532 553 514 575 488 591 456Z"/>
</g>
<g id="font_1_77">
<path transform="matrix(.001,0,0,.001,0,0)" d="M98 729H245L431 233 618 729H765V0H669V640L481 140H382L194 640V0H98V729Z"/>
</g>
<g id="font_1_100">
<path transform="matrix(.001,0,0,.001,0,0)" d="M454 464V760H544V0H454V82C435 49 411 25 382 10 353-5 319-13 279-13 213-13 159 13 117 65 75 117 55 187 55 273 55 359 75 428 117 481 159 533 213 560 279 560 319 560 353 552 382 536 411 520 435 496 454 464ZM148 273C148 207 161 155 188 117 215 79 252 61 300 61 348 61 385 79 413 117 440 155 454 207 454 273 454 339 440 390 413 428 385 466 348 485 300 485 252 485 215 466 188 428 161 390 148 339 148 273Z"/>
</g>
<g id="font_1_114">
<path transform="matrix(.001,0,0,.001,0,0)" d="M411 463C401 469 390 473 378 476 366 478 353 480 339 480 288 480 249 463 222 430 194 397 181 350 181 288V0H91V547H181V462C199 495 224 520 254 536 284 552 321 560 365 560 371 560 378 559 386 559 393 558 401 557 411 555V463Z"/>
</g>
<g id="font_1_105">
<path transform="matrix(.001,0,0,.001,0,0)" d="M94 547H184V0H94V547ZM94 760H184V646H94V760Z"/>
</g>
<g id="font_1_102">
<path transform="matrix(.001,0,0,.001,0,0)" d="M371 760V685H285C253 685 230 678 218 665 205 652 199 629 199 595V547H347V477H199V0H109V477H23V547H109V585C109 645 123 690 151 718 179 746 224 760 286 760H371Z"/>
</g>
<g id="font_1_99">
<path transform="matrix(.001,0,0,.001,0,0)" d="M488 526V442C462 456 437 466 411 473 385 480 360 484 334 484 276 484 230 465 198 428 166 391 150 339 150 273 150 206 166 154 198 117 230 80 276 62 334 62 360 62 385 65 411 72 437 79 462 90 488 104V21C462 9 436 0 410-5 383-10 354-13 324-13 242-13 176 12 128 64 79 115 55 185 55 273 55 362 79 432 128 483 177 534 244 560 330 560 358 560 385 557 411 551 437 545 463 537 488 526Z"/>
</g>
<g id="font_1_117">
<path transform="matrix(.001,0,0,.001,0,0)" d="M85 216V547H175V219C175 167 185 129 205 103 225 77 255 64 296 64 344 64 383 79 411 110 439 141 453 183 453 237V547H543V0H453V84C431 50 405 26 377 10 348-5 315-13 277-13 214-13 166 6 134 45 101 83 85 140 85 216ZM311 560V560Z"/>
</g>
<g id="font_1_108">
<path transform="matrix(.001,0,0,.001,0,0)" d="M94 760H184V0H94V760Z"/>
</g>
<g id="font_1_121">
<path transform="matrix(.001,0,0,.001,0,0)" d="M322-50C296-114 271-157 247-177 223-197 191-207 151-207H79V-132H132C156-132 175-126 189-114 203-102 218-75 235-31L251 9 30 547H125L296 119 467 547H562L322-50Z"/>
</g>
<g id="font_1_44">
<path transform="matrix(.001,0,0,.001,0,0)" d="M117 124H220V40L140-115H77L117 40V124Z"/>
</g>
<g id="font_1_115">
<path transform="matrix(.001,0,0,.001,0,0)" d="M443 531V446C417 458 391 468 364 475 336 481 308 485 279 485 234 485 200 478 178 464 156 450 145 430 145 403 145 382 153 366 169 354 185 342 217 330 265 320L296 313C360 299 405 279 432 255 458 230 472 195 472 151 472 100 452 60 412 31 372 1 316-13 246-13 216-13 186-10 154-5 122 0 89 8 54 20V113C87 95 120 82 152 74 184 65 216 61 248 61 290 61 323 68 346 82 368 96 380 117 380 144 380 168 371 187 355 200 339 213 303 226 247 238L216 245C160 257 119 275 95 299 70 323 58 356 58 399 58 450 76 490 112 518 148 546 200 560 268 560 301 560 332 557 362 552 391 547 418 540 443 531Z"/>
</g>
<g id="font_1_109">
<path transform="matrix(.001,0,0,.001,0,0)" d="M520 442C542 482 569 511 600 531 631 550 668 560 711 560 767 560 811 540 842 500 873 460 889 403 889 330V0H799V327C799 379 789 418 771 444 752 469 724 482 686 482 639 482 602 466 575 435 548 404 535 362 535 309V0H445V327C445 379 435 418 417 444 398 469 369 482 331 482 285 482 248 466 221 435 194 404 181 362 181 309V0H91V547H181V462C201 495 226 520 255 536 283 552 317 560 357 560 397 560 430 550 458 530 486 510 506 480 520 442Z"/>
</g>
<g id="font_1_112">
<path transform="matrix(.001,0,0,.001,0,0)" d="M181 82V-207H91V547H181V464C199 496 223 520 252 536 281 552 316 560 356 560 422 560 476 533 518 481 559 428 580 359 580 273 580 187 559 117 518 65 476 13 422-13 356-13 316-13 281-5 252 10 223 25 199 49 181 82ZM487 273C487 339 473 390 446 428 418 466 381 485 334 485 286 485 249 466 222 428 194 390 181 339 181 273 181 207 194 155 222 117 249 79 286 61 334 61 381 61 418 79 446 117 473 155 487 207 487 273Z"/>
</g>
<g id="font_1_95">
<path transform="matrix(.001,0,0,.001,0,0)" d="M510-165V-235H-9V-165H510Z"/>
</g>
<g id="font_1_61">
<path transform="matrix(.001,0,0,.001,0,0)" d="M106 454H732V372H106V454ZM106 255H732V172H106V255Z"/>
</g>
<g id="font_1_54">
<path transform="matrix(.001,0,0,.001,0,0)" d="M330 404C286 404 251 388 225 358 199 328 186 286 186 234 186 181 199 139 225 109 251 79 286 64 330 64 374 64 409 79 435 109 461 139 474 181 474 234 474 286 461 328 435 358 409 388 374 404 330 404ZM526 713V623C501 635 476 644 451 650 425 656 400 659 376 659 310 659 260 637 226 593 192 549 172 482 168 394 187 422 211 444 240 459 269 474 301 482 336 482 409 482 467 459 509 415 551 371 573 310 573 234 573 159 550 99 506 54 462 9 403-13 330-13 246-13 181 19 137 83 92 147 70 241 70 364 70 479 97 571 152 639 206 707 280 742 372 742 396 742 421 739 447 735 472 730 498 723 526 713Z"/>
</g>
<g id="font_1_69">
<path transform="matrix(.001,0,0,.001,0,0)" d="M98 729H559V646H197V430H544V347H197V83H568V0H98V729Z"/>
</g>
<g id="font_1_120">
<path transform="matrix(.001,0,0,.001,0,0)" d="M549 547 351 281 559 0H453L294 215 135 0H29L241 286 47 547H153L298 352 443 547H549Z"/>
</g>
</defs>
<path transform="matrix(1,0,0,-1,0,416.82127)" d="M0 0H837.7875V416.82127H0Z" fill="#ffffff"/>
<path transform="matrix(1,0,0,-1,0,416.82127)" d="M49.3875 44.825H830.5875V377.465H49.3875Z" fill="#ffffff"/>
<g clip-path="url(#clip_0)">
<path transform="matrix(1,0,0,-1,0,416.82127)" stroke-width=".8" stroke-linecap="round" stroke-linejoin="round" fill="none" stroke="#cccccc" stroke-opacity=".2" d="M66.29659 44.825V377.465"/>
</g>
<use data-text="0" xlink:href="#font_1_48" transform="matrix(15,0,0,-15,61.523157,386.88688)" fill="#262626"/>
<g clip-path="url(#clip_2)">
<path transform="matrix(1,0,0,-1,0,416.82127)" stroke-width=".8" stroke-linecap="round" stroke-linejoin="round" fill="none" stroke="#cccccc" stroke-opacity=".2" d="M235.3875 44.825V377.465"/>
</g>
<use data-text="5" xlink:href="#font_1_53" transform="matrix(15,0,0,-15,221.06719,386.88688)" fill="#262626"/>
<use data-text="0" xlink:href="#font_1_48" transform="matrix(15,0,0,-15,230.60718,386.88688)" fill="#262626"/>
<use data-text="0" xlink:href="#font_1_48" transform="matrix(15,0,0,-15,240.14719,386.88688)" fill="#262626"/>
<g clip-path="url(#clip_3)">
<path transform="matrix(1,0,0,-1,0,416.82127)" stroke-width=".8" stroke-linecap="round" stroke-linejoin="round" fill="none" stroke="#cccccc" stroke-opacity=".2" d="M404.47843 44.825V377.465"/>
</g>
<use data-text="1" xlink:href="#font_1_49" transform="matrix(15,0,0,-15,385.38468,386.88688)" fill="#262626"/>
<use data-text="0" xlink:href="#font_1_48" transform="matrix(15,0,0,-15,394.92469,386.88688)" fill="#262626"/>
<use data-text="0" xlink:href="#font_1_48" transform="matrix(15,0,0,-15,404.46467,386.88688)" fill="#262626"/>
<use data-text="0" xlink:href="#font_1_48" transform="matrix(15,0,0,-15,414.00468,386.88688)" fill="#262626"/>
<g clip-path="url(#clip_4)">
<path transform="matrix(1,0,0,-1,0,416.82127)" stroke-width=".8" stroke-linecap="round" stroke-linejoin="round" fill="none" stroke="#cccccc" stroke-opacity=".2" d="M573.56936 44.825V377.465"/>
</g>
<use data-text="1" xlink:href="#font_1_49" transform="matrix(15,0,0,-15,554.4756,386.88688)" fill="#262626"/>
<use data-text="5" xlink:href="#font_1_53" transform="matrix(15,0,0,-15,564.01559,386.88688)" fill="#262626"/>
<use data-text="0" xlink:href="#font_1_48" transform="matrix(15,0,0,-15,573.5556,386.88688)" fill="#262626"/>
<use data-text="0" xlink:href="#font_1_48" transform="matrix(15,0,0,-15,583.0956,386.88688)" fill="#262626"/>
<g clip-path="url(#clip_5)">
<path transform="matrix(1,0,0,-1,0,416.82127)" stroke-width=".8" stroke-linecap="round" stroke-linejoin="round" fill="none" stroke="#cccccc" stroke-opacity=".2" d="M742.6602 44.825V377.465"/>
</g>
<use data-text="2" xlink:href="#font_1_50" transform="matrix(15,0,0,-15,723.56649,386.88688)" fill="#262626"/>
<use data-text="0" xlink:href="#font_1_48" transform="matrix(15,0,0,-15,733.10647,386.88688)" fill="#262626"/>
<use data-text="0" xlink:href="#font_1_48" transform="matrix(15,0,0,-15,742.6465,386.88688)" fill="#262626"/>
<use data-text="0" xlink:href="#font_1_48" transform="matrix(15,0,0,-15,752.18649,386.88688)" fill="#262626"/>
<use data-text="T" xlink:href="#font_6_84" transform="matrix(16,0,0,-16,375.15156,406.16813)" fill="#262626"/>
<use data-text="r" xlink:href="#font_6_114" transform="matrix(16,0,0,-16,384.31355,406.16813)" fill="#262626"/>
<use data-text="a" xlink:href="#font_6_97" transform="matrix(16,0,0,-16,392.20155,406.16813)" fill="#262626"/>
<use data-text="i" xlink:href="#font_6_105" transform="matrix(16,0,0,-16,403.00157,406.16813)" fill="#262626"/>
<use data-text="n" xlink:href="#font_6_110" transform="matrix(16,0,0,-16,408.48957,406.16813)" fill="#262626"/>
<use data-text="i" xlink:href="#font_6_105" transform="matrix(16,0,0,-16,419.88157,406.16813)" fill="#262626"/>
<use data-text="n" xlink:href="#font_6_110" transform="matrix(16,0,0,-16,425.36958,406.16813)" fill="#262626"/>
<use data-text="g" xlink:href="#font_6_103" transform="matrix(16,0,0,-16,436.76155,406.16813)" fill="#262626"/>
<use data-text=" " xlink:href="#font_6_32" transform="matrix(16,0,0,-16,448.21757,406.16813)" fill="#262626"/>
<use data-text="S" xlink:href="#font_6_83" transform="matrix(16,0,0,-16,453.78556,406.16813)" fill="#262626"/>
<use data-text="t" xlink:href="#font_6_116" transform="matrix(16,0,0,-16,465.30555,406.16813)" fill="#262626"/>
<use data-text="e" xlink:href="#font_6_101" transform="matrix(16,0,0,-16,472.95356,406.16813)" fill="#262626"/>
<use data-text="p" xlink:href="#font_6_112" transform="matrix(16,0,0,-16,483.80158,406.16813)" fill="#262626"/>
<use data-text="s" xlink:href="#font_6_115" transform="matrix(16,0,0,-16,495.25758,406.16813)" fill="#262626"/>
<g clip-path="url(#clip_7)">
<path transform="matrix(1,0,0,-1,0,416.82127)" stroke-width=".8" stroke-linecap="round" stroke-linejoin="round" fill="none" stroke="#cccccc" stroke-opacity=".2" d="M49.3875 44.825H830.5875"/>
</g>
<use data-text="7" xlink:href="#font_1_55" transform="matrix(15,0,0,-15,26.79375,377.69157)" fill="#262626"/>
<use data-text="4" xlink:href="#font_1_52" transform="matrix(15,0,0,-15,36.33375,377.69157)" fill="#262626"/>
<g clip-path="url(#clip_8)">
<path transform="matrix(1,0,0,-1,0,416.82127)" stroke-width=".8" stroke-linecap="round" stroke-linejoin="round" fill="none" stroke="#cccccc" stroke-opacity=".2" d="M49.3875 196.025H830.5875"/>
</g>
<use data-text="7" xlink:href="#font_1_55" transform="matrix(15,0,0,-15,26.79375,226.49158)" fill="#262626"/>
<use data-text="9" xlink:href="#font_1_57" transform="matrix(15,0,0,-15,36.33375,226.49158)" fill="#262626"/>
<g clip-path="url(#clip_9)">
<path transform="matrix(1,0,0,-1,0,416.82127)" stroke-width=".8" stroke-linecap="round" stroke-linejoin="round" fill="none" stroke="#cccccc" stroke-opacity=".2" d="M49.3875 347.225H830.5875"/>
</g>
<use data-text="8" xlink:href="#font_1_56" transform="matrix(15,0,0,-15,26.79375,75.291568)" fill="#262626"/>
<use data-text="4" xlink:href="#font_1_52" transform="matrix(15,0,0,-15,36.33375,75.291568)" fill="#262626"/>
<use data-text="A" xlink:href="#font_6_65" transform="matrix(0,-16,-16,-0,19.340626,264.47315)" fill="#262626"/>
<use data-text="c" xlink:href="#font_6_99" transform="matrix(0,-16,-16,-0,19.340626,252.08914)" fill="#262626"/>
<use data-text="c" xlink:href="#font_6_99" transform="matrix(0,-16,-16,-0,19.340626,242.60114)" fill="#262626"/>
<use data-text="u" xlink:href="#font_6_117" transform="matrix(0,-16,-16,-0,19.340626,233.11315)" fill="#262626"/>
<use data-text="r" xlink:href="#font_6_114" transform="matrix(0,-16,-16,-0,19.340626,221.72115)" fill="#262626"/>
<use data-text="a" xlink:href="#font_6_97" transform="matrix(0,-16,-16,-0,19.340626,213.83315)" fill="#262626"/>
<use data-text="c" xlink:href="#font_6_99" transform="matrix(0,-16,-16,-0,19.340626,203.03314)" fill="#262626"/>
<use data-text="y" xlink:href="#font_6_121" transform="matrix(0,-16,-16,-0,19.340626,193.54514)" fill="#262626"/>
<use data-text=" " xlink:href="#font_6_32" transform="matrix(0,-16,-16,-0,19.340626,183.11315)" fill="#262626"/>
<use data-text="(" xlink:href="#font_6_40" transform="matrix(0,-16,-16,-0,19.340626,177.54514)" fill="#262626"/>
<use data-text="%" xlink:href="#font_6_37" transform="matrix(0,-16,-16,-0,19.340626,170.23314)" fill="#262626"/>
<use data-text=")" xlink:href="#font_6_41" transform="matrix(0,-16,-16,-0,19.340626,154.20114)" fill="#262626"/>
<g clip-path="url(#clip_10)">
<g>
<path transform="matrix(1,0,0,-1,0,416.82127)" d="M66.29659 44.825V377.465H580.33297V44.825Z" fill="#e8f8f5" fill-opacity=".2"/>
<path transform="matrix(1,0,0,-1,0,416.82127)" stroke-width="1" stroke-linecap="butt" stroke-miterlimit="10" stroke-linejoin="miter" fill="none" stroke="#e8f8f5" stroke-opacity=".2" d="M66.29659 44.825V377.465H580.33297V44.825Z"/>
</g>
</g>
<g clip-path="url(#clip_11)">
<g>
<path transform="matrix(1,0,0,-1,0,416.82127)" d="M580.33297 44.825V377.465H823.82388V44.825Z" fill="#fef9e7" fill-opacity=".2"/>
<path transform="matrix(1,0,0,-1,0,416.82127)" stroke-width="1" stroke-linecap="butt" stroke-miterlimit="10" stroke-linejoin="miter" fill="none" stroke="#fef9e7" stroke-opacity=".2" d="M580.33297 44.825V377.465H823.82388V44.825Z"/>
</g>
</g>
<g clip-path="url(#clip_12)">
<path transform="matrix(1,0,0,-1,0,416.82127)" stroke-width="2.5" stroke-linecap="round" stroke-linejoin="round" fill="none" stroke="#e74c3c" stroke-opacity=".9" d="M66.29659 72.041 93.351139 99.257 120.405689 56.921 147.46022 114.377 174.51477 132.521 201.56932 111.353 228.62387 171.833 255.6784 199.049 282.73295 180.905 309.7875 171.833 336.84205 241.385 363.89659 208.121 390.95115 180.905 418.00569 202.073 445.06025 223.241 472.11479 229.289 499.1693 268.601 526.2239 232.313 553.2784 265.577 580.33297 280.697 607.3875 226.265 634.442 265.577 661.4966 256.505 688.55117 247.433 715.60568 241.385"/>
<g clip-path="url(#clip_13)">
<g>
<path transform="matrix(1,0,0,-1,66.29659,344.78028)" d="M-3-3H3V3H-3Z" fill="#e74c3c" fill-opacity=".9"/>
<path transform="matrix(1,0,0,-1,66.29659,344.78028)" stroke-width="1" stroke-linecap="butt" stroke-miterlimit="10" stroke-linejoin="miter" fill="none" stroke="#ffffff" stroke-opacity=".9" d="M-3-3H3V3H-3Z"/>
</g>
</g>
<g clip-path="url(#clip_14)">
<g>
<path transform="matrix(1,0,0,-1,93.351139,317.56428)" d="M-3-3H3V3H-3Z" fill="#e74c3c" fill-opacity=".9"/>
<path transform="matrix(1,0,0,-1,93.351139,317.56428)" stroke-width="1" stroke-linecap="butt" stroke-miterlimit="10" stroke-linejoin="miter" fill="none" stroke="#ffffff" stroke-opacity=".9" d="M-3-3H3V3H-3Z"/>
</g>
</g>
<g clip-path="url(#clip_15)">
<g>
<path transform="matrix(1,0,0,-1,120.40568,359.90028)" d="M-3-3H3V3H-3Z" fill="#e74c3c" fill-opacity=".9"/>
<path transform="matrix(1,0,0,-1,120.40568,359.90028)" stroke-width="1" stroke-linecap="butt" stroke-miterlimit="10" stroke-linejoin="miter" fill="none" stroke="#ffffff" stroke-opacity=".9" d="M-3-3H3V3H-3Z"/>
</g>
</g>
<g clip-path="url(#clip_16)">
<g>
<path transform="matrix(1,0,0,-1,147.46022,302.44429)" d="M-3-3H3V3H-3Z" fill="#e74c3c" fill-opacity=".9"/>
<path transform="matrix(1,0,0,-1,147.46022,302.44429)" stroke-width="1" stroke-linecap="butt" stroke-miterlimit="10" stroke-linejoin="miter" fill="none" stroke="#ffffff" stroke-opacity=".9" d="M-3-3H3V3H-3Z"/>
</g>
</g>
<g clip-path="url(#clip_17)">
<g>
<path transform="matrix(1,0,0,-1,174.51477,284.30027)" d="M-3-3H3V3H-3Z" fill="#e74c3c" fill-opacity=".9"/>
<path transform="matrix(1,0,0,-1,174.51477,284.30027)" stroke-width="1" stroke-linecap="butt" stroke-miterlimit="10" stroke-linejoin="miter" fill="none" stroke="#ffffff" stroke-opacity=".9" d="M-3-3H3V3H-3Z"/>
</g>
</g>
<g clip-path="url(#clip_18)">
<g>
<path transform="matrix(1,0,0,-1,201.56932,305.46827)" d="M-3-3H3V3H-3Z" fill="#e74c3c" fill-opacity=".9"/>
<path transform="matrix(1,0,0,-1,201.56932,305.46827)" stroke-width="1" stroke-linecap="butt" stroke-miterlimit="10" stroke-linejoin="miter" fill="none" stroke="#ffffff" stroke-opacity=".9" d="M-3-3H3V3H-3Z"/>
</g>
</g>
<g clip-path="url(#clip_19)">
<g>
<path transform="matrix(1,0,0,-1,228.62387,244.98827)" d="M-3-3H3V3H-3Z" fill="#e74c3c" fill-opacity=".9"/>
<path transform="matrix(1,0,0,-1,228.62387,244.98827)" stroke-width="1" stroke-linecap="butt" stroke-miterlimit="10" stroke-linejoin="miter" fill="none" stroke="#ffffff" stroke-opacity=".9" d="M-3-3H3V3H-3Z"/>
</g>
</g>
<g clip-path="url(#clip_20)">
<g>
<path transform="matrix(1,0,0,-1,255.67842,217.77227)" d="M-3-3H3V3H-3Z" fill="#e74c3c" fill-opacity=".9"/>
<path transform="matrix(1,0,0,-1,255.67842,217.77227)" stroke-width="1" stroke-linecap="butt" stroke-miterlimit="10" stroke-linejoin="miter" fill="none" stroke="#ffffff" stroke-opacity=".9" d="M-3-3H3V3H-3Z"/>
</g>
</g>
<g clip-path="url(#clip_21)">
<g>
<path transform="matrix(1,0,0,-1,282.73298,235.91626)" d="M-3-3H3V3H-3Z" fill="#e74c3c" fill-opacity=".9"/>
<path transform="matrix(1,0,0,-1,282.73298,235.91626)" stroke-width="1" stroke-linecap="butt" stroke-miterlimit="10" stroke-linejoin="miter" fill="none" stroke="#ffffff" stroke-opacity=".9" d="M-3-3H3V3H-3Z"/>
</g>
</g>
<g clip-path="url(#clip_22)">
<g>
<path transform="matrix(1,0,0,-1,309.7875,244.98827)" d="M-3-3H3V3H-3Z" fill="#e74c3c" fill-opacity=".9"/>
<path transform="matrix(1,0,0,-1,309.7875,244.98827)" stroke-width="1" stroke-linecap="butt" stroke-miterlimit="10" stroke-linejoin="miter" fill="none" stroke="#ffffff" stroke-opacity=".9" d="M-3-3H3V3H-3Z"/>
</g>
</g>
<g clip-path="url(#clip_23)">
<g>
<path transform="matrix(1,0,0,-1,336.84205,175.43627)" d="M-3-3H3V3H-3Z" fill="#e74c3c" fill-opacity=".9"/>
<path transform="matrix(1,0,0,-1,336.84205,175.43627)" stroke-width="1" stroke-linecap="butt" stroke-miterlimit="10" stroke-linejoin="miter" fill="none" stroke="#ffffff" stroke-opacity=".9" d="M-3-3H3V3H-3Z"/>
</g>
</g>
<g clip-path="url(#clip_24)">
<g>
<path transform="matrix(1,0,0,-1,363.89659,208.70026)" d="M-3-3H3V3H-3Z" fill="#e74c3c" fill-opacity=".9"/>
<path transform="matrix(1,0,0,-1,363.89659,208.70026)" stroke-width="1" stroke-linecap="butt" stroke-miterlimit="10" stroke-linejoin="miter" fill="none" stroke="#ffffff" stroke-opacity=".9" d="M-3-3H3V3H-3Z"/>
</g>
</g>
<g clip-path="url(#clip_25)">
<g>
<path transform="matrix(1,0,0,-1,390.9511,235.91626)" d="M-3-3H3V3H-3Z" fill="#e74c3c" fill-opacity=".9"/>
<path transform="matrix(1,0,0,-1,390.9511,235.91626)" stroke-width="1" stroke-linecap="butt" stroke-miterlimit="10" stroke-linejoin="miter" fill="none" stroke="#ffffff" stroke-opacity=".9" d="M-3-3H3V3H-3Z"/>
</g>
</g>
<g clip-path="url(#clip_26)">
<g>
<path transform="matrix(1,0,0,-1,418.00566,214.74826)" d="M-3-3H3V3H-3Z" fill="#e74c3c" fill-opacity=".9"/>
<path transform="matrix(1,0,0,-1,418.00566,214.74826)" stroke-width="1" stroke-linecap="butt" stroke-miterlimit="10" stroke-linejoin="miter" fill="none" stroke="#ffffff" stroke-opacity=".9" d="M-3-3H3V3H-3Z"/>
</g>
</g>
<g clip-path="url(#clip_27)">
<g>
<path transform="matrix(1,0,0,-1,445.06019,193.58026)" d="M-3-3H3V3H-3Z" fill="#e74c3c" fill-opacity=".9"/>
<path transform="matrix(1,0,0,-1,445.06019,193.58026)" stroke-width="1" stroke-linecap="butt" stroke-miterlimit="10" stroke-linejoin="miter" fill="none" stroke="#ffffff" stroke-opacity=".9" d="M-3-3H3V3H-3Z"/>
</g>
</g>
<g clip-path="url(#clip_28)">
<g>
<path transform="matrix(1,0,0,-1,472.11473,187.53226)" d="M-3-3H3V3H-3Z" fill="#e74c3c" fill-opacity=".9"/>
<path transform="matrix(1,0,0,-1,472.11473,187.53226)" stroke-width="1" stroke-linecap="butt" stroke-miterlimit="10" stroke-linejoin="miter" fill="none" stroke="#ffffff" stroke-opacity=".9" d="M-3-3H3V3H-3Z"/>
</g>
</g>
<g clip-path="url(#clip_29)">
<g>
<path transform="matrix(1,0,0,-1,499.16926,148.22026)" d="M-3-3H3V3H-3Z" fill="#e74c3c" fill-opacity=".9"/>
<path transform="matrix(1,0,0,-1,499.16926,148.22026)" stroke-width="1" stroke-linecap="butt" stroke-miterlimit="10" stroke-linejoin="miter" fill="none" stroke="#ffffff" stroke-opacity=".9" d="M-3-3H3V3H-3Z"/>
</g>
</g>
<g clip-path="url(#clip_30)">
<g>
<path transform="matrix(1,0,0,-1,526.2238,184.50826)" d="M-3-3H3V3H-3Z" fill="#e74c3c" fill-opacity=".9"/>
<path transform="matrix(1,0,0,-1,526.2238,184.50826)" stroke-width="1" stroke-linecap="butt" stroke-miterlimit="10" stroke-linejoin="miter" fill="none" stroke="#ffffff" stroke-opacity=".9" d="M-3-3H3V3H-3Z"/>
</g>
</g>
<g clip-path="url(#clip_31)">
<g>
<path transform="matrix(1,0,0,-1,553.2784,151.24427)" d="M-3-3H3V3H-3Z" fill="#e74c3c" fill-opacity=".9"/>
<path transform="matrix(1,0,0,-1,553.2784,151.24427)" stroke-width="1" stroke-linecap="butt" stroke-miterlimit="10" stroke-linejoin="miter" fill="none" stroke="#ffffff" stroke-opacity=".9" d="M-3-3H3V3H-3Z"/>
</g>
</g>
<g clip-path="url(#clip_32)">
<g>
<path transform="matrix(1,0,0,-1,580.33297,136.12427)" d="M-3-3H3V3H-3Z" fill="#e74c3c" fill-opacity=".9"/>
<path transform="matrix(1,0,0,-1,580.33297,136.12427)" stroke-width="1" stroke-linecap="butt" stroke-miterlimit="10" stroke-linejoin="miter" fill="none" stroke="#ffffff" stroke-opacity=".9" d="M-3-3H3V3H-3Z"/>
</g>
</g>
<g clip-path="url(#clip_33)">
<g>
<path transform="matrix(1,0,0,-1,607.3875,190.55628)" d="M-3-3H3V3H-3Z" fill="#e74c3c" fill-opacity=".9"/>
<path transform="matrix(1,0,0,-1,607.3875,190.55628)" stroke-width="1" stroke-linecap="butt" stroke-miterlimit="10" stroke-linejoin="miter" fill="none" stroke="#ffffff" stroke-opacity=".9" d="M-3-3H3V3H-3Z"/>
</g>
</g>
<g clip-path="url(#clip_34)">
<g>
<path transform="matrix(1,0,0,-1,634.4421,151.24428)" d="M-3-3H3V3H-3Z" fill="#e74c3c" fill-opacity=".9"/>
<path transform="matrix(1,0,0,-1,634.4421,151.24428)" stroke-width="1" stroke-linecap="butt" stroke-miterlimit="10" stroke-linejoin="miter" fill="none" stroke="#ffffff" stroke-opacity=".9" d="M-3-3H3V3H-3Z"/>
</g>
</g>
<g clip-path="url(#clip_35)">
<g>
<path transform="matrix(1,0,0,-1,661.49667,160.31629)" d="M-3-3H3V3H-3Z" fill="#e74c3c" fill-opacity=".9"/>
<path transform="matrix(1,0,0,-1,661.49667,160.31629)" stroke-width="1" stroke-linecap="butt" stroke-miterlimit="10" stroke-linejoin="miter" fill="none" stroke="#ffffff" stroke-opacity=".9" d="M-3-3H3V3H-3Z"/>
</g>
</g>
<g clip-path="url(#clip_36)">
<g>
<path transform="matrix(1,0,0,-1,688.5512,169.38829)" d="M-3-3H3V3H-3Z" fill="#e74c3c" fill-opacity=".9"/>
<path transform="matrix(1,0,0,-1,688.5512,169.38829)" stroke-width="1" stroke-linecap="butt" stroke-miterlimit="10" stroke-linejoin="miter" fill="none" stroke="#ffffff" stroke-opacity=".9" d="M-3-3H3V3H-3Z"/>
</g>
</g>
<g clip-path="url(#clip_37)">
<g>
<path transform="matrix(1,0,0,-1,715.6058,175.4363)" d="M-3-3H3V3H-3Z" fill="#e74c3c" fill-opacity=".9"/>
<path transform="matrix(1,0,0,-1,715.6058,175.4363)" stroke-width="1" stroke-linecap="butt" stroke-miterlimit="10" stroke-linejoin="miter" fill="none" stroke="#ffffff" stroke-opacity=".9" d="M-3-3H3V3H-3Z"/>
</g>
</g>
</g>
<g clip-path="url(#clip_38)">
<path transform="matrix(1,0,0,-1,0,416.82127)" stroke-width="2.5" stroke-linecap="round" stroke-linejoin="round" fill="none" stroke="#2e86c1" stroke-opacity=".9" d="M580.33297 280.697 607.3875 253.481 634.442 277.673 661.4966 298.841 688.55117 268.601 715.60568 295.817 742.6602 289.769 769.7148 304.889 796.76937 329.081"/>
<g clip-path="url(#clip_39)">
<g>
<path transform="matrix(1,0,0,-1,580.33297,136.12427)" d="M-3-3H3V3H-3Z" fill="#2e86c1" fill-opacity=".9"/>
<path transform="matrix(1,0,0,-1,580.33297,136.12427)" stroke-width="1" stroke-linecap="butt" stroke-miterlimit="10" stroke-linejoin="miter" fill="none" stroke="#ffffff" stroke-opacity=".9" d="M-3-3H3V3H-3Z"/>
</g>
</g>
<g clip-path="url(#clip_40)">
<g>
<path transform="matrix(1,0,0,-1,607.3875,163.34027)" d="M-3-3H3V3H-3Z" fill="#2e86c1" fill-opacity=".9"/>
<path transform="matrix(1,0,0,-1,607.3875,163.34027)" stroke-width="1" stroke-linecap="butt" stroke-miterlimit="10" stroke-linejoin="miter" fill="none" stroke="#ffffff" stroke-opacity=".9" d="M-3-3H3V3H-3Z"/>
</g>
</g>
<g clip-path="url(#clip_41)">
<g>
<path transform="matrix(1,0,0,-1,634.4421,139.14827)" d="M-3-3H3V3H-3Z" fill="#2e86c1" fill-opacity=".9"/>
<path transform="matrix(1,0,0,-1,634.4421,139.14827)" stroke-width="1" stroke-linecap="butt" stroke-miterlimit="10" stroke-linejoin="miter" fill="none" stroke="#ffffff" stroke-opacity=".9" d="M-3-3H3V3H-3Z"/>
</g>
</g>
<g clip-path="url(#clip_42)">
<g>
<path transform="matrix(1,0,0,-1,661.49667,117.98027)" d="M-3-3H3V3H-3Z" fill="#2e86c1" fill-opacity=".9"/>
<path transform="matrix(1,0,0,-1,661.49667,117.98027)" stroke-width="1" stroke-linecap="butt" stroke-miterlimit="10" stroke-linejoin="miter" fill="none" stroke="#ffffff" stroke-opacity=".9" d="M-3-3H3V3H-3Z"/>
</g>
</g>
<g clip-path="url(#clip_43)">
<g>
<path transform="matrix(1,0,0,-1,688.5512,148.22028)" d="M-3-3H3V3H-3Z" fill="#2e86c1" fill-opacity=".9"/>
<path transform="matrix(1,0,0,-1,688.5512,148.22028)" stroke-width="1" stroke-linecap="butt" stroke-miterlimit="10" stroke-linejoin="miter" fill="none" stroke="#ffffff" stroke-opacity=".9" d="M-3-3H3V3H-3Z"/>
</g>
</g>
<g clip-path="url(#clip_44)">
<g>
<path transform="matrix(1,0,0,-1,715.6058,121.00427)" d="M-3-3H3V3H-3Z" fill="#2e86c1" fill-opacity=".9"/>
<path transform="matrix(1,0,0,-1,715.6058,121.00427)" stroke-width="1" stroke-linecap="butt" stroke-miterlimit="10" stroke-linejoin="miter" fill="none" stroke="#ffffff" stroke-opacity=".9" d="M-3-3H3V3H-3Z"/>
</g>
</g>
<g clip-path="url(#clip_45)">
<g>
<path transform="matrix(1,0,0,-1,742.66036,127.05227)" d="M-3-3H3V3H-3Z" fill="#2e86c1" fill-opacity=".9"/>
<path transform="matrix(1,0,0,-1,742.66036,127.05227)" stroke-width="1" stroke-linecap="butt" stroke-miterlimit="10" stroke-linejoin="miter" fill="none" stroke="#ffffff" stroke-opacity=".9" d="M-3-3H3V3H-3Z"/>
</g>
</g>
<g clip-path="url(#clip_46)">
<g>
<path transform="matrix(1,0,0,-1,769.7149,111.93227)" d="M-3-3H3V3H-3Z" fill="#2e86c1" fill-opacity=".9"/>
<path transform="matrix(1,0,0,-1,769.7149,111.93227)" stroke-width="1" stroke-linecap="butt" stroke-miterlimit="10" stroke-linejoin="miter" fill="none" stroke="#ffffff" stroke-opacity=".9" d="M-3-3H3V3H-3Z"/>
</g>
</g>
<g clip-path="url(#clip_47)">
<g>
<path transform="matrix(1,0,0,-1,796.7695,87.740268)" d="M-3-3H3V3H-3Z" fill="#2e86c1" fill-opacity=".9"/>
<path transform="matrix(1,0,0,-1,796.7695,87.740268)" stroke-width="1" stroke-linecap="butt" stroke-miterlimit="10" stroke-linejoin="miter" fill="none" stroke="#ffffff" stroke-opacity=".9" d="M-3-3H3V3H-3Z"/>
</g>
</g>
</g>
<g clip-path="url(#clip_48)">
<path transform="matrix(1,0,0,-1,0,416.82127)" stroke-width="2" stroke-linecap="butt" stroke-dasharray="7.4,3.2" stroke-linejoin="round" fill="none" stroke="#8e44ad" stroke-opacity=".7" d="M580.33297 44.825V377.465"/>
</g>
<g clip-path="url(#clip_49)">
<path transform="matrix(1,0,0,-1,0,416.82127)" stroke-width="2" stroke-linecap="butt" stroke-dasharray="7.4,3.2" stroke-linejoin="round" fill="none" stroke="#d68910" stroke-opacity=".7" d="M823.82388 44.825V377.465"/>
</g>
<path transform="matrix(1,0,0,-1,0,416.82127)" stroke-width="1" stroke-linecap="square" stroke-miterlimit="10" stroke-linejoin="miter" fill="none" stroke="#cccccc" d="M49.3875 44.825V377.465"/>
<path transform="matrix(1,0,0,-1,0,416.82127)" stroke-width="1" stroke-linecap="square" stroke-miterlimit="10" stroke-linejoin="miter" fill="none" stroke="#cccccc" d="M830.5875 44.825V377.465"/>
<path transform="matrix(1,0,0,-1,0,416.82127)" stroke-width="1" stroke-linecap="square" stroke-miterlimit="10" stroke-linejoin="miter" fill="none" stroke="#cccccc" d="M49.3875 44.825H830.5875"/>
<path transform="matrix(1,0,0,-1,0,416.82127)" stroke-width="1" stroke-linecap="square" stroke-miterlimit="10" stroke-linejoin="miter" fill="none" stroke="#cccccc" d="M49.3875 377.465H830.5875"/>
<g>
<path transform="matrix(1,0,0,-1,0,416.82127)" d="M285.30696 321.13777H361.32258C364.32258 321.13777 365.82258 322.63777 365.82258 325.63777V340.15339C365.82258 343.15339 364.32258 344.65339 361.32258 344.65339H285.30696C282.30696 344.65339 280.80696 343.15339 280.80696 340.15339V325.63777C280.80696 322.63777 282.30696 321.13777 285.30696 321.13777Z" fill="#ffffff" fill-opacity=".8"/>
<path transform="matrix(1,0,0,-1,0,416.82127)" stroke-width="1" stroke-linecap="butt" stroke-miterlimit="10" stroke-linejoin="miter" fill="none" stroke="#000000" stroke-opacity=".8" d="M285.30696 321.13777H361.32258C364.32258 321.13777 365.82258 322.63777 365.82258 325.63777V340.15339C365.82258 343.15339 364.32258 344.65339 361.32258 344.65339H285.30696C282.30696 344.65339 280.80696 343.15339 280.80696 340.15339V325.63777C280.80696 322.63777 282.30696 321.13777 285.30696 321.13777Z"/>
</g>
<use data-text="S" xlink:href="#font_1_83" transform="matrix(15,0,0,-15,285.30696,88.0585)" fill="#262626"/>
<use data-text="t" xlink:href="#font_1_116" transform="matrix(15,0,0,-15,294.83195,88.0585)" fill="#262626"/>
<use data-text="a" xlink:href="#font_1_97" transform="matrix(15,0,0,-15,300.71195,88.0585)" fill="#262626"/>
<use data-text="g" xlink:href="#font_1_103" transform="matrix(15,0,0,-15,309.90696,88.0585)" fill="#262626"/>
<use data-text="e" xlink:href="#font_1_101" transform="matrix(15,0,0,-15,319.43196,88.0585)" fill="#262626"/>
<use data-text=" " xlink:href="#font_1_32" transform="matrix(15,0,0,-15,328.65696,88.0585)" fill="#262626"/>
<use data-text="o" xlink:href="#font_1_111" transform="matrix(15,0,0,-15,333.42695,88.0585)" fill="#262626"/>
<use data-text="n" xlink:href="#font_1_110" transform="matrix(15,0,0,-15,342.60697,88.0585)" fill="#262626"/>
<use data-text="e" xlink:href="#font_1_101" transform="matrix(15,0,0,-15,352.11695,88.0585)" fill="#262626"/>
<g>
<path transform="matrix(1,0,0,-1,0,416.82127)" d="M664.3753 321.13777H739.78158C742.78158 321.13777 744.28158 322.63777 744.28158 325.63777V340.15339C744.28158 343.15339 742.78158 344.65339 739.78158 344.65339H664.3753C661.3753 344.65339 659.8753 343.15339 659.8753 340.15339V325.63777C659.8753 322.63777 661.3753 321.13777 664.3753 321.13777Z" fill="#ffffff" fill-opacity=".8"/>
<path transform="matrix(1,0,0,-1,0,416.82127)" stroke-width="1" stroke-linecap="butt" stroke-miterlimit="10" stroke-linejoin="miter" fill="none" stroke="#000000" stroke-opacity=".8" d="M664.3753 321.13777H739.78158C742.78158 321.13777 744.28158 322.63777 744.28158 325.63777V340.15339C744.28158 343.15339 742.78158 344.65339 739.78158 344.65339H664.3753C661.3753 344.65339 659.8753 343.15339 659.8753 340.15339V325.63777C659.8753 322.63777 661.3753 321.13777 664.3753 321.13777Z"/>
</g>
<use data-text="S" xlink:href="#font_1_83" transform="matrix(15,0,0,-15,664.3753,88.0585)" fill="#262626"/>
<use data-text="t" xlink:href="#font_1_116" transform="matrix(15,0,0,-15,673.9003,88.0585)" fill="#262626"/>
<use data-text="a" xlink:href="#font_1_97" transform="matrix(15,0,0,-15,679.78036,88.0585)" fill="#262626"/>
<use data-text="g" xlink:href="#font_1_103" transform="matrix(15,0,0,-15,688.9753,88.0585)" fill="#262626"/>
<use data-text="e" xlink:href="#font_1_101" transform="matrix(15,0,0,-15,698.5003,88.0585)" fill="#262626"/>
<use data-text=" " xlink:href="#font_1_32" transform="matrix(15,0,0,-15,707.72537,88.0585)" fill="#262626"/>
<use data-text="t" xlink:href="#font_1_116" transform="matrix(15,0,0,-15,712.4953,88.0585)" fill="#262626"/>
<use data-text="w" xlink:href="#font_1_119" transform="matrix(15,0,0,-15,718.3753,88.0585)" fill="#262626"/>
<use data-text="o" xlink:href="#font_1_111" transform="matrix(15,0,0,-15,730.6453,88.0585)" fill="#262626"/>
<g>
<path transform="matrix(1,0,0,-1,0,416.82127)" d="M560.33297 283.072H607.9892C610.9892 283.072 612.4892 284.572 612.4892 287.572V302.08763C612.4892 305.08763 610.9892 306.58763 607.9892 306.58763H560.33297C557.33297 306.58763 555.83297 305.08763 555.83297 302.08763V287.572C555.83297 284.572 557.33297 283.072 560.33297 283.072Z" fill="#e74c3c" fill-opacity=".3"/>
<path transform="matrix(1,0,0,-1,0,416.82127)" stroke-width="1" stroke-linecap="butt" stroke-miterlimit="10" stroke-linejoin="miter" fill="none" stroke="#000000" stroke-opacity=".3" d="M560.33297 283.072H607.9892C610.9892 283.072 612.4892 284.572 612.4892 287.572V302.08763C612.4892 305.08763 610.9892 306.58763 607.9892 306.58763H560.33297C557.33297 306.58763 555.83297 305.08763 555.83297 302.08763V287.572C555.83297 284.572 557.33297 283.072 560.33297 283.072Z"/>
</g>
<use data-text="8" xlink:href="#font_1_56" transform="matrix(15,0,0,-15,560.33297,126.12427)" fill="#262626"/>
<use data-text="1" xlink:href="#font_1_49" transform="matrix(15,0,0,-15,569.8729,126.12427)" fill="#262626"/>
<use data-text="." xlink:href="#font_1_46" transform="matrix(15,0,0,-15,579.41299,126.12427)" fill="#262626"/>
<use data-text="8" xlink:href="#font_1_56" transform="matrix(15,0,0,-15,584.1829,126.12427)" fill="#262626"/>
<use data-text="%" xlink:href="#font_1_37" transform="matrix(15,0,0,-15,593.72299,126.12427)" fill="#262626"/>
<g>
<path transform="matrix(1,0,0,-1,0,416.82127)" d="M776.76937 326.456H824.4256C827.4256 326.456 828.9256 327.956 828.9256 330.956V345.47163C828.9256 348.47163 827.4256 349.97163 824.4256 349.97163H776.76937C773.76937 349.97163 772.26937 348.47163 772.26937 345.47163V330.956C772.26937 327.956 773.76937 326.456 776.76937 326.456Z" fill="#2e86c1" fill-opacity=".3"/>
<path transform="matrix(1,0,0,-1,0,416.82127)" stroke-width="1" stroke-linecap="butt" stroke-miterlimit="10" stroke-linejoin="miter" fill="none" stroke="#000000" stroke-opacity=".3" d="M776.76937 326.456H824.4256C827.4256 326.456 828.9256 327.956 828.9256 330.956V345.47163C828.9256 348.47163 827.4256 349.97163 824.4256 349.97163H776.76937C773.76937 349.97163 772.26937 348.47163 772.26937 345.47163V330.956C772.26937 327.956 773.76937 326.456 776.76937 326.456Z"/>
</g>
<use data-text="8" xlink:href="#font_1_56" transform="matrix(15,0,0,-15,776.76937,82.740268)" fill="#262626"/>
<use data-text="3" xlink:href="#font_1_51" transform="matrix(15,0,0,-15,786.3093,82.740268)" fill="#262626"/>
<use data-text="." xlink:href="#font_1_46" transform="matrix(15,0,0,-15,795.84939,82.740268)" fill="#262626"/>
<use data-text="4" xlink:href="#font_1_52" transform="matrix(15,0,0,-15,800.6193,82.740268)" fill="#262626"/>
<use data-text="%" xlink:href="#font_1_37" transform="matrix(15,0,0,-15,810.15939,82.740268)" fill="#262626"/>
<use data-text="A" xlink:href="#font_6_65" transform="matrix(16,0,0,-16,157.01094,19.356263)" fill="#262626"/>
<use data-text="I" xlink:href="#font_6_73" transform="matrix(16,0,0,-16,169.39495,19.356263)" fill="#262626"/>
<use data-text="M" xlink:href="#font_6_77" transform="matrix(16,0,0,-16,175.34694,19.356263)" fill="#262626"/>
<use data-text="E" xlink:href="#font_6_69" transform="matrix(16,0,0,-16,191.26694,19.356263)" fill="#262626"/>
<use data-text="2" xlink:href="#font_6_50" transform="matrix(16,0,0,-16,202.19495,19.356263)" fill="#262626"/>
<use data-text="4" xlink:href="#font_6_52" transform="matrix(16,0,0,-16,213.33095,19.356263)" fill="#262626"/>
<use data-text=" " xlink:href="#font_6_32" transform="matrix(16,0,0,-16,224.46695,19.356263)" fill="#262626"/>
<use data-text="A" xlink:href="#font_6_65" transform="matrix(16,0,0,-16,230.03495,19.356263)" fill="#262626"/>
<use data-text="V" xlink:href="#font_6_86" transform="matrix(16,0,0,-16,241.34082,19.356263)" fill="#262626"/>
<use data-text="G" xlink:href="#font_6_71" transform="matrix(16,0,0,-16,253.72483,19.356263)" fill="#262626"/>
<use data-text="@" xlink:href="#font_6_64" transform="matrix(16,0,0,-16,266.86085,19.356263)" fill="#262626"/>
<use data-text="3" xlink:href="#font_6_51" transform="matrix(16,0,0,-16,282.86085,19.356263)" fill="#262626"/>
<use data-text="2" xlink:href="#font_6_50" transform="matrix(16,0,0,-16,293.99684,19.356263)" fill="#262626"/>
<use data-text=":" xlink:href="#font_6_58" transform="matrix(16,0,0,-16,305.1328,19.356263)" fill="#262626"/>
<use data-text=" " xlink:href="#font_6_32" transform="matrix(16,0,0,-16,311.53285,19.356263)" fill="#262626"/>
<use data-text="R" xlink:href="#font_6_82" transform="matrix(16,0,0,-16,317.10084,19.356263)" fill="#262626"/>
<use data-text="L" xlink:href="#font_6_76" transform="matrix(16,0,0,-16,329.42085,19.356263)" fill="#262626"/>
<use data-text=" " xlink:href="#font_6_32" transform="matrix(16,0,0,-16,339.61283,19.356263)" fill="#262626"/>
<use data-text="w" xlink:href="#font_6_119" transform="matrix(16,0,0,-16,345.18083,19.356263)" fill="#262626"/>
<use data-text="i" xlink:href="#font_6_105" transform="matrix(16,0,0,-16,359.9648,19.356263)" fill="#262626"/>
<use data-text="t" xlink:href="#font_6_116" transform="matrix(16,0,0,-16,365.45283,19.356263)" fill="#262626"/>
<use data-text="h" xlink:href="#font_6_104" transform="matrix(16,0,0,-16,373.10084,19.356263)" fill="#262626"/>
<use data-text=" " xlink:href="#font_6_32" transform="matrix(16,0,0,-16,384.4928,19.356263)" fill="#262626"/>
<use data-text="D" xlink:href="#font_6_68" transform="matrix(16,0,0,-16,390.0608,19.356263)" fill="#262626"/>
<use data-text="i" xlink:href="#font_6_105" transform="matrix(16,0,0,-16,403.34083,19.356263)" fill="#262626"/>
<use data-text="f" xlink:href="#font_6_102" transform="matrix(16,0,0,-16,408.8288,19.356263)" fill="#262626"/>
<use data-text="f" xlink:href="#font_6_102" transform="matrix(16,0,0,-16,415.78883,19.356263)" fill="#262626"/>
<use data-text="i" xlink:href="#font_6_105" transform="matrix(16,0,0,-16,422.74879,19.356263)" fill="#262626"/>
<use data-text="c" xlink:href="#font_6_99" transform="matrix(16,0,0,-16,428.23683,19.356263)" fill="#262626"/>
<use data-text="u" xlink:href="#font_6_117" transform="matrix(16,0,0,-16,437.7248,19.356263)" fill="#262626"/>
<use data-text="l" xlink:href="#font_6_108" transform="matrix(16,0,0,-16,449.11683,19.356263)" fill="#262626"/>
<use data-text="t" xlink:href="#font_6_116" transform="matrix(16,0,0,-16,454.6048,19.356263)" fill="#262626"/>
<use data-text="y" xlink:href="#font_6_121" transform="matrix(16,0,0,-16,462.2528,19.356263)" fill="#262626"/>
<use data-text="-" xlink:href="#font_6_45" transform="matrix(16,0,0,-16,472.6848,19.356263)" fill="#262626"/>
<use data-text="b" xlink:href="#font_6_98" transform="matrix(16,0,0,-16,479.32484,19.356263)" fill="#262626"/>
<use data-text="a" xlink:href="#font_6_97" transform="matrix(16,0,0,-16,490.78083,19.356263)" fill="#262626"/>
<use data-text="s" xlink:href="#font_6_115" transform="matrix(16,0,0,-16,501.5808,19.356263)" fill="#262626"/>
<use data-text="e" xlink:href="#font_6_101" transform="matrix(16,0,0,-16,511.10084,19.356263)" fill="#262626"/>
<use data-text="d" xlink:href="#font_6_100" transform="matrix(16,0,0,-16,521.9488,19.356263)" fill="#262626"/>
<use data-text=" " xlink:href="#font_6_32" transform="matrix(16,0,0,-16,533.4048,19.356263)" fill="#262626"/>
<use data-text="C" xlink:href="#font_6_67" transform="matrix(16,0,0,-16,538.9728,19.356263)" fill="#262626"/>
<use data-text="u" xlink:href="#font_6_117" transform="matrix(16,0,0,-16,550.7168,19.356263)" fill="#262626"/>
<use data-text="r" xlink:href="#font_6_114" transform="matrix(16,0,0,-16,562.10879,19.356263)" fill="#262626"/>
<use data-text="r" xlink:href="#font_6_114" transform="matrix(16,0,0,-16,569.99679,19.356263)" fill="#262626"/>
<use data-text="i" xlink:href="#font_6_105" transform="matrix(16,0,0,-16,577.88479,19.356263)" fill="#262626"/>
<use data-text="c" xlink:href="#font_6_99" transform="matrix(16,0,0,-16,583.3728,19.356263)" fill="#262626"/>
<use data-text="u" xlink:href="#font_6_117" transform="matrix(16,0,0,-16,592.8608,19.356263)" fill="#262626"/>
<use data-text="l" xlink:href="#font_6_108" transform="matrix(16,0,0,-16,604.2528,19.356263)" fill="#262626"/>
<use data-text="u" xlink:href="#font_6_117" transform="matrix(16,0,0,-16,609.7408,19.356263)" fill="#262626"/>
<use data-text="m" xlink:href="#font_6_109" transform="matrix(16,0,0,-16,621.1328,19.356263)" fill="#262626"/>
<use data-text=" " xlink:href="#font_6_32" transform="matrix(16,0,0,-16,637.8048,19.356263)" fill="#262626"/>
<use data-text="L" xlink:href="#font_6_76" transform="matrix(16,0,0,-16,643.3728,19.356263)" fill="#262626"/>
<use data-text="e" xlink:href="#font_6_101" transform="matrix(16,0,0,-16,653.56478,19.356263)" fill="#262626"/>
<use data-text="a" xlink:href="#font_6_97" transform="matrix(16,0,0,-16,664.4128,19.356263)" fill="#262626"/>
<use data-text="r" xlink:href="#font_6_114" transform="matrix(16,0,0,-16,675.21279,19.356263)" fill="#262626"/>
<use data-text="n" xlink:href="#font_6_110" transform="matrix(16,0,0,-16,683.10079,19.356263)" fill="#262626"/>
<use data-text="i" xlink:href="#font_6_105" transform="matrix(16,0,0,-16,694.4928,19.356263)" fill="#262626"/>
<use data-text="n" xlink:href="#font_6_110" transform="matrix(16,0,0,-16,699.9808,19.356263)" fill="#262626"/>
<use data-text="g" xlink:href="#font_6_103" transform="matrix(16,0,0,-16,711.3728,19.356263)" fill="#262626"/>
<g>
<path transform="matrix(1,0,0,-1,0,416.82127)" d="M351.71876 50.825H821.3875C823.5208 50.825 824.5875 51.891668 824.5875 54.025V100.3C824.5875 102.433338 823.5208 103.5 821.3875 103.5H351.71876C349.58543 103.5 348.51875 102.433338 348.51875 100.3V54.025C348.51875 51.891668 349.58543 50.825 351.71876 50.825Z" fill="#4d4d4d" fill-opacity=".5"/>
<path transform="matrix(1,0,0,-1,0,416.82127)" stroke-width="1" stroke-linecap="butt" stroke-miterlimit="10" stroke-linejoin="miter" fill="none" stroke="#4d4d4d" stroke-opacity=".5" d="M351.71876 50.825H821.3875C823.5208 50.825 824.5875 51.891668 824.5875 54.025V100.3C824.5875 102.433338 823.5208 103.5 821.3875 103.5H351.71876C349.58543 103.5 348.51875 102.433338 348.51875 100.3V54.025C348.51875 51.891668 349.58543 50.825 351.71876 50.825Z"/>
</g>
<g>
<path transform="matrix(1,0,0,-1,0,416.82127)" d="M349.71876 52.825H819.3875C821.5208 52.825 822.5875 53.891668 822.5875 56.025V102.3C822.5875 104.433338 821.5208 105.5 819.3875 105.5H349.71876C347.58543 105.5 346.51875 104.433338 346.51875 102.3V56.025C346.51875 53.891668 347.58543 52.825 349.71876 52.825Z" fill="#ffffff" fill-opacity=".9"/>
<path transform="matrix(1,0,0,-1,0,416.82127)" stroke-width="1" stroke-linecap="butt" stroke-miterlimit="10" stroke-linejoin="miter" fill="none" stroke="#cccccc" stroke-opacity=".9" d="M349.71876 52.825H819.3875C821.5208 52.825 822.5875 53.891668 822.5875 56.025V102.3C822.5875 104.433338 821.5208 105.5 819.3875 105.5H349.71876C347.58543 105.5 346.51875 104.433338 346.51875 102.3V56.025C346.51875 53.891668 347.58543 52.825 349.71876 52.825Z"/>
</g>
<path transform="matrix(1,0,0,-1,0,416.82127)" stroke-width="2.5" stroke-linecap="round" stroke-linejoin="round" fill="none" stroke="#e74c3c" stroke-opacity=".9" d="M352.91877 92.54375H368.91877 384.91877"/>
<g>
<path transform="matrix(1,0,0,-1,0,416.82127)" d="M365.91877 89.54375H371.91877V95.54375H365.91877Z" fill="#e74c3c" fill-opacity=".9"/>
<path transform="matrix(1,0,0,-1,0,416.82127)" stroke-width="1" stroke-linecap="butt" stroke-miterlimit="10" stroke-linejoin="miter" fill="none" stroke="#ffffff" stroke-opacity=".9" d="M365.91877 89.54375H371.91877V95.54375H365.91877Z"/>
</g>
<use data-text="M" xlink:href="#font_1_77" transform="matrix(16,0,0,-16,397.71876,329.8775)" fill="#262626"/>
<use data-text="o" xlink:href="#font_1_111" transform="matrix(16,0,0,-16,411.52677,329.8775)" fill="#262626"/>
<use data-text="d" xlink:href="#font_1_100" transform="matrix(16,0,0,-16,421.31877,329.8775)" fill="#262626"/>
<use data-text="e" xlink:href="#font_1_101" transform="matrix(16,0,0,-16,431.47877,329.8775)" fill="#262626"/>
<use data-text="r" xlink:href="#font_1_114" transform="matrix(16,0,0,-16,441.31877,329.8775)" fill="#262626"/>
<use data-text="a" xlink:href="#font_1_97" transform="matrix(16,0,0,-16,447.89476,329.8775)" fill="#262626"/>
<use data-text="t" xlink:href="#font_1_116" transform="matrix(16,0,0,-16,457.70277,329.8775)" fill="#262626"/>
<use data-text="e" xlink:href="#font_1_101" transform="matrix(16,0,0,-16,463.97477,329.8775)" fill="#262626"/>
<use data-text=" " xlink:href="#font_1_32" transform="matrix(16,0,0,-16,473.81477,329.8775)" fill="#262626"/>
<use data-text="d" xlink:href="#font_1_100" transform="matrix(16,0,0,-16,478.90278,329.8775)" fill="#262626"/>
<use data-text="i" xlink:href="#font_1_105" transform="matrix(16,0,0,-16,489.06275,329.8775)" fill="#262626"/>
<use data-text="f" xlink:href="#font_1_102" transform="matrix(16,0,0,-16,493.51075,329.8775)" fill="#262626"/>
<use data-text="f" xlink:href="#font_1_102" transform="matrix(16,0,0,-16,499.14277,329.8775)" fill="#262626"/>
<use data-text="i" xlink:href="#font_1_105" transform="matrix(16,0,0,-16,504.77479,329.8775)" fill="#262626"/>
<use data-text="c" xlink:href="#font_1_99" transform="matrix(16,0,0,-16,509.22279,329.8775)" fill="#262626"/>
<use data-text="u" xlink:href="#font_1_117" transform="matrix(16,0,0,-16,518.02279,329.8775)" fill="#262626"/>
<use data-text="l" xlink:href="#font_1_108" transform="matrix(16,0,0,-16,528.16677,329.8775)" fill="#262626"/>
<use data-text="t" xlink:href="#font_1_116" transform="matrix(16,0,0,-16,532.61477,329.8775)" fill="#262626"/>
<use data-text="y" xlink:href="#font_1_121" transform="matrix(16,0,0,-16,538.8868,329.8775)" fill="#262626"/>
<use data-text=" " xlink:href="#font_1_32" transform="matrix(16,0,0,-16,548.35879,329.8775)" fill="#262626"/>
<use data-text="d" xlink:href="#font_1_100" transform="matrix(16,0,0,-16,553.4468,329.8775)" fill="#262626"/>
<use data-text="a" xlink:href="#font_1_97" transform="matrix(16,0,0,-16,563.60678,329.8775)" fill="#262626"/>
<use data-text="t" xlink:href="#font_1_116" transform="matrix(16,0,0,-16,573.4148,329.8775)" fill="#262626"/>
<use data-text="a" xlink:href="#font_1_97" transform="matrix(16,0,0,-16,579.68679,329.8775)" fill="#262626"/>
<use data-text="," xlink:href="#font_1_44" transform="matrix(16,0,0,-16,589.49478,329.8775)" fill="#262626"/>
<use data-text=" " xlink:href="#font_1_32" transform="matrix(16,0,0,-16,594.58279,329.8775)" fill="#262626"/>
<use data-text="s" xlink:href="#font_1_115" transform="matrix(16,0,0,-16,599.6708,329.8775)" fill="#262626"/>
<use data-text="a" xlink:href="#font_1_97" transform="matrix(16,0,0,-16,608.0068,329.8775)" fill="#262626"/>
<use data-text="m" xlink:href="#font_1_109" transform="matrix(16,0,0,-16,617.81478,329.8775)" fill="#262626"/>
<use data-text="p" xlink:href="#font_1_112" transform="matrix(16,0,0,-16,633.39877,329.8775)" fill="#262626"/>
<use data-text="l" xlink:href="#font_1_108" transform="matrix(16,0,0,-16,643.5588,329.8775)" fill="#262626"/>
<use data-text="e" xlink:href="#font_1_101" transform="matrix(16,0,0,-16,648.0068,329.8775)" fill="#262626"/>
<use data-text="s" xlink:href="#font_1_115" transform="matrix(16,0,0,-16,657.8468,329.8775)" fill="#262626"/>
<use data-text="_" xlink:href="#font_1_95" transform="matrix(16,0,0,-16,666.18276,329.8775)" fill="#262626"/>
<use data-text="p" xlink:href="#font_1_112" transform="matrix(16,0,0,-16,674.18276,329.8775)" fill="#262626"/>
<use data-text="e" xlink:href="#font_1_101" transform="matrix(16,0,0,-16,684.3428,329.8775)" fill="#262626"/>
<use data-text="r" xlink:href="#font_1_114" transform="matrix(16,0,0,-16,694.18276,329.8775)" fill="#262626"/>
<use data-text="_" xlink:href="#font_1_95" transform="matrix(16,0,0,-16,700.7588,329.8775)" fill="#262626"/>
<use data-text="p" xlink:href="#font_1_112" transform="matrix(16,0,0,-16,708.7588,329.8775)" fill="#262626"/>
<use data-text="r" xlink:href="#font_1_114" transform="matrix(16,0,0,-16,718.91879,329.8775)" fill="#262626"/>
<use data-text="o" xlink:href="#font_1_111" transform="matrix(16,0,0,-16,725.151,329.8775)" fill="#262626"/>
<use data-text="m" xlink:href="#font_1_109" transform="matrix(16,0,0,-16,734.943,329.8775)" fill="#262626"/>
<use data-text="p" xlink:href="#font_1_112" transform="matrix(16,0,0,-16,750.527,329.8775)" fill="#262626"/>
<use data-text="t" xlink:href="#font_1_116" transform="matrix(16,0,0,-16,760.687,329.8775)" fill="#262626"/>
<use data-text="=" xlink:href="#font_1_61" transform="matrix(16,0,0,-16,766.959,329.8775)" fill="#262626"/>
<use data-text="1" xlink:href="#font_1_49" transform="matrix(16,0,0,-16,780.367,329.8775)" fill="#262626"/>
<use data-text="6" xlink:href="#font_1_54" transform="matrix(16,0,0,-16,790.54299,329.8775)" fill="#262626"/>
<path transform="matrix(1,0,0,-1,0,416.82127)" stroke-width="2.5" stroke-linecap="round" stroke-linejoin="round" fill="none" stroke="#2e86c1" stroke-opacity=".9" d="M352.91877 68.60625H368.91877 384.91877"/>
<g>
<path transform="matrix(1,0,0,-1,0,416.82127)" d="M365.91877 65.60625H371.91877V71.60625H365.91877Z" fill="#2e86c1" fill-opacity=".9"/>
<path transform="matrix(1,0,0,-1,0,416.82127)" stroke-width="1" stroke-linecap="butt" stroke-miterlimit="10" stroke-linejoin="miter" fill="none" stroke="#ffffff" stroke-opacity=".9" d="M365.91877 65.60625H371.91877V71.60625H365.91877Z"/>
</g>
<use data-text="E" xlink:href="#font_1_69" transform="matrix(16,0,0,-16,397.71876,353.815)" fill="#262626"/>
<use data-text="x" xlink:href="#font_1_120" transform="matrix(16,0,0,-16,407.83076,353.815)" fill="#262626"/>
<use data-text="t" xlink:href="#font_1_116" transform="matrix(16,0,0,-16,417.30274,353.815)" fill="#262626"/>
<use data-text="r" xlink:href="#font_1_114" transform="matrix(16,0,0,-16,423.57475,353.815)" fill="#262626"/>
<use data-text="e" xlink:href="#font_1_101" transform="matrix(16,0,0,-16,429.807,353.815)" fill="#262626"/>
<use data-text="m" xlink:href="#font_1_109" transform="matrix(16,0,0,-16,439.647,353.815)" fill="#262626"/>
<use data-text="e" xlink:href="#font_1_101" transform="matrix(16,0,0,-16,455.231,353.815)" fill="#262626"/>
<use data-text="l" xlink:href="#font_1_108" transform="matrix(16,0,0,-16,465.07099,353.815)" fill="#262626"/>
<use data-text="y" xlink:href="#font_1_121" transform="matrix(16,0,0,-16,469.51899,353.815)" fill="#262626"/>
<use data-text=" " xlink:href="#font_1_32" transform="matrix(16,0,0,-16,478.991,353.815)" fill="#262626"/>
<use data-text="d" xlink:href="#font_1_100" transform="matrix(16,0,0,-16,484.07899,353.815)" fill="#262626"/>
<use data-text="i" xlink:href="#font_1_105" transform="matrix(16,0,0,-16,494.239,353.815)" fill="#262626"/>
<use data-text="f" xlink:href="#font_1_102" transform="matrix(16,0,0,-16,498.687,353.815)" fill="#262626"/>
<use data-text="f" xlink:href="#font_1_102" transform="matrix(16,0,0,-16,504.319,353.815)" fill="#262626"/>
<use data-text="i" xlink:href="#font_1_105" transform="matrix(16,0,0,-16,509.951,353.815)" fill="#262626"/>
<use data-text="c" xlink:href="#font_1_99" transform="matrix(16,0,0,-16,514.399,353.815)" fill="#262626"/>
<use data-text="u" xlink:href="#font_1_117" transform="matrix(16,0,0,-16,523.199,353.815)" fill="#262626"/>
<use data-text="l" xlink:href="#font_1_108" transform="matrix(16,0,0,-16,533.343,353.815)" fill="#262626"/>
<use data-text="t" xlink:href="#font_1_116" transform="matrix(16,0,0,-16,537.791,353.815)" fill="#262626"/>
<use data-text="y" xlink:href="#font_1_121" transform="matrix(16,0,0,-16,544.063,353.815)" fill="#262626"/>
<use data-text=" " xlink:href="#font_1_32" transform="matrix(16,0,0,-16,553.53506,353.815)" fill="#262626"/>
<use data-text="d" xlink:href="#font_1_100" transform="matrix(16,0,0,-16,558.623,353.815)" fill="#262626"/>
<use data-text="a" xlink:href="#font_1_97" transform="matrix(16,0,0,-16,568.783,353.815)" fill="#262626"/>
<use data-text="t" xlink:href="#font_1_116" transform="matrix(16,0,0,-16,578.591,353.815)" fill="#262626"/>
<use data-text="a" xlink:href="#font_1_97" transform="matrix(16,0,0,-16,584.86306,353.815)" fill="#262626"/>
<use data-text="," xlink:href="#font_1_44" transform="matrix(16,0,0,-16,594.671,353.815)" fill="#262626"/>
<use data-text=" " xlink:href="#font_1_32" transform="matrix(16,0,0,-16,599.75906,353.815)" fill="#262626"/>
<use data-text="s" xlink:href="#font_1_115" transform="matrix(16,0,0,-16,604.847,353.815)" fill="#262626"/>
<use data-text="a" xlink:href="#font_1_97" transform="matrix(16,0,0,-16,613.183,353.815)" fill="#262626"/>
<use data-text="m" xlink:href="#font_1_109" transform="matrix(16,0,0,-16,622.99099,353.815)" fill="#262626"/>
<use data-text="p" xlink:href="#font_1_112" transform="matrix(16,0,0,-16,638.575,353.815)" fill="#262626"/>
<use data-text="l" xlink:href="#font_1_108" transform="matrix(16,0,0,-16,648.735,353.815)" fill="#262626"/>
<use data-text="e" xlink:href="#font_1_101" transform="matrix(16,0,0,-16,653.183,353.815)" fill="#262626"/>
<use data-text="s" xlink:href="#font_1_115" transform="matrix(16,0,0,-16,663.023,353.815)" fill="#262626"/>
<use data-text="_" xlink:href="#font_1_95" transform="matrix(16,0,0,-16,671.359,353.815)" fill="#262626"/>
<use data-text="p" xlink:href="#font_1_112" transform="matrix(16,0,0,-16,679.359,353.815)" fill="#262626"/>
<use data-text="e" xlink:href="#font_1_101" transform="matrix(16,0,0,-16,689.51907,353.815)" fill="#262626"/>
<use data-text="r" xlink:href="#font_1_114" transform="matrix(16,0,0,-16,699.359,353.815)" fill="#262626"/>
<use data-text="_" xlink:href="#font_1_95" transform="matrix(16,0,0,-16,705.935,353.815)" fill="#262626"/>
<use data-text="p" xlink:href="#font_1_112" transform="matrix(16,0,0,-16,713.935,353.815)" fill="#262626"/>
<use data-text="r" xlink:href="#font_1_114" transform="matrix(16,0,0,-16,724.095,353.815)" fill="#262626"/>
<use data-text="o" xlink:href="#font_1_111" transform="matrix(16,0,0,-16,730.3273,353.815)" fill="#262626"/>
<use data-text="m" xlink:href="#font_1_109" transform="matrix(16,0,0,-16,740.11929,353.815)" fill="#262626"/>
<use data-text="p" xlink:href="#font_1_112" transform="matrix(16,0,0,-16,755.70327,353.815)" fill="#262626"/>
<use data-text="t" xlink:href="#font_1_116" transform="matrix(16,0,0,-16,765.8633,353.815)" fill="#262626"/>
<use data-text="=" xlink:href="#font_1_61" transform="matrix(16,0,0,-16,772.13528,353.815)" fill="#262626"/>
<use data-text="5" xlink:href="#font_1_53" transform="matrix(16,0,0,-16,785.5432,353.815)" fill="#262626"/>
<use data-text="1" xlink:href="#font_1_49" transform="matrix(16,0,0,-16,795.71926,353.815)" fill="#262626"/>
<use data-text="2" xlink:href="#font_1_50" transform="matrix(16,0,0,-16,805.89529,353.815)" fill="#262626"/>
</svg>
