<?xml version="1.0" encoding="UTF-8"?>
<svg xmlns="http://www.w3.org/2000/svg" xmlns:xlink="http://www.w3.org/1999/xlink" width="401pt" height="116pt" viewBox="0 0 401 116">
<defs>
<g>
<g id="glyph-0-0">
<path d="M 3.796875 -3.6875 C 4.242188 -3.59375 4.59375 -3.394531 4.84375 -3.09375 C 5.09375 -2.789062 5.21875 -2.421875 5.21875 -1.984375 C 5.21875 -1.304688 4.984375 -0.785156 4.515625 -0.421875 C 4.054688 -0.0546875 3.398438 0.125 2.546875 0.125 C 2.253906 0.125 1.957031 0.0976562 1.65625 0.046875 C 1.351562 -0.00390625 1.039062 -0.0859375 0.71875 -0.203125 L 0.71875 -1.09375 C 0.96875 -0.945312 1.242188 -0.832031 1.546875 -0.75 C 1.859375 -0.675781 2.179688 -0.640625 2.515625 -0.640625 C 3.097656 -0.640625 3.539062 -0.753906 3.84375 -0.984375 C 4.144531 -1.210938 4.296875 -1.546875 4.296875 -1.984375 C 4.296875 -2.390625 4.15625 -2.703125 3.875 -2.921875 C 3.59375 -3.148438 3.195312 -3.265625 2.6875 -3.265625 L 1.890625 -3.265625 L 1.890625 -4.03125 L 2.734375 -4.03125 C 3.179688 -4.03125 3.523438 -4.117188 3.765625 -4.296875 C 4.015625 -4.484375 4.140625 -4.75 4.140625 -5.09375 C 4.140625 -5.4375 4.015625 -5.703125 3.765625 -5.890625 C 3.515625 -6.085938 3.15625 -6.1875 2.6875 -6.1875 C 2.4375 -6.1875 2.164062 -6.15625 1.875 -6.09375 C 1.582031 -6.039062 1.265625 -5.957031 0.921875 -5.84375 L 0.921875 -6.671875 C 1.273438 -6.765625 1.601562 -6.832031 1.90625 -6.875 C 2.207031 -6.925781 2.5 -6.953125 2.78125 -6.953125 C 3.476562 -6.953125 4.03125 -6.789062 4.4375 -6.46875 C 4.84375 -6.15625 5.046875 -5.726562 5.046875 -5.1875 C 5.046875 -4.8125 4.9375 -4.492188 4.71875 -4.234375 C 4.507812 -3.972656 4.203125 -3.789062 3.796875 -3.6875 Z M 3.796875 -3.6875 "/>
</g>
<g id="glyph-0-1">
<path d="M 3.546875 -6.03125 L 1.203125 -2.375 L 3.546875 -2.375 Z M 3.296875 -6.828125 L 4.46875 -6.828125 L 4.46875 -2.375 L 5.4375 -2.375 L 5.4375 -1.609375 L 4.46875 -1.609375 L 4.46875 0 L 3.546875 0 L 3.546875 -1.609375 L 0.453125 -1.609375 L 0.453125 -2.5 Z M 3.296875 -6.828125 "/>
</g>
<g id="glyph-0-2">
<path d="M 1.015625 -6.828125 L 4.640625 -6.828125 L 4.640625 -6.0625 L 1.859375 -6.0625 L 1.859375 -4.375 C 1.992188 -4.425781 2.128906 -4.460938 2.265625 -4.484375 C 2.398438 -4.503906 2.535156 -4.515625 2.671875 -4.515625 C 3.429688 -4.515625 4.03125 -4.304688 4.46875 -3.890625 C 4.914062 -3.472656 5.140625 -2.90625 5.140625 -2.1875 C 5.140625 -1.457031 4.910156 -0.890625 4.453125 -0.484375 C 3.992188 -0.078125 3.347656 0.125 2.515625 0.125 C 2.234375 0.125 1.941406 0.0976562 1.640625 0.046875 C 1.347656 0.00390625 1.039062 -0.0625 0.71875 -0.15625 L 0.71875 -1.09375 C 1 -0.9375 1.285156 -0.820312 1.578125 -0.75 C 1.867188 -0.675781 2.175781 -0.640625 2.5 -0.640625 C 3.03125 -0.640625 3.445312 -0.78125 3.75 -1.0625 C 4.0625 -1.34375 4.21875 -1.71875 4.21875 -2.1875 C 4.21875 -2.664062 4.0625 -3.039062 3.75 -3.3125 C 3.445312 -3.59375 3.03125 -3.734375 2.5 -3.734375 C 2.257812 -3.734375 2.015625 -3.707031 1.765625 -3.65625 C 1.515625 -3.601562 1.265625 -3.519531 1.015625 -3.40625 Z M 1.015625 -6.828125 "/>
</g>
<g id="glyph-0-3">
<path d="M 3.09375 -3.78125 C 2.675781 -3.78125 2.347656 -3.640625 2.109375 -3.359375 C 1.867188 -3.078125 1.75 -2.6875 1.75 -2.1875 C 1.75 -1.695312 1.867188 -1.304688 2.109375 -1.015625 C 2.347656 -0.734375 2.675781 -0.59375 3.09375 -0.59375 C 3.507812 -0.59375 3.835938 -0.734375 4.078125 -1.015625 C 4.316406 -1.304688 4.4375 -1.695312 4.4375 -2.1875 C 4.4375 -2.6875 4.316406 -3.078125 4.078125 -3.359375 C 3.835938 -3.640625 3.507812 -3.78125 3.09375 -3.78125 Z M 4.9375 -6.6875 L 4.9375 -5.84375 C 4.695312 -5.945312 4.457031 -6.03125 4.21875 -6.09375 C 3.988281 -6.15625 3.757812 -6.1875 3.53125 -6.1875 C 2.914062 -6.1875 2.445312 -5.976562 2.125 -5.5625 C 1.800781 -5.144531 1.617188 -4.519531 1.578125 -3.6875 C 1.753906 -3.957031 1.976562 -4.160156 2.25 -4.296875 C 2.519531 -4.441406 2.820312 -4.515625 3.15625 -4.515625 C 3.832031 -4.515625 4.367188 -4.304688 4.765625 -3.890625 C 5.171875 -3.472656 5.375 -2.90625 5.375 -2.1875 C 5.375 -1.488281 5.164062 -0.925781 4.75 -0.5 C 4.332031 -0.0820312 3.78125 0.125 3.09375 0.125 C 2.300781 0.125 1.695312 -0.175781 1.28125 -0.78125 C 0.863281 -1.382812 0.65625 -2.257812 0.65625 -3.40625 C 0.65625 -4.488281 0.910156 -5.347656 1.421875 -5.984375 C 1.929688 -6.628906 2.617188 -6.953125 3.484375 -6.953125 C 3.722656 -6.953125 3.957031 -6.929688 4.1875 -6.890625 C 4.425781 -6.847656 4.675781 -6.78125 4.9375 -6.6875 Z M 4.9375 -6.6875 "/>
</g>
<g id="glyph-0-4">
<path d="M 0.765625 -6.828125 L 5.15625 -6.828125 L 5.15625 -6.4375 L 2.6875 0 L 1.71875 0 L 4.046875 -6.0625 L 0.765625 -6.0625 Z M 0.765625 -6.828125 "/>
</g>
<g id="glyph-0-5">
<path d="M 2.984375 -3.25 C 2.546875 -3.25 2.195312 -3.128906 1.9375 -2.890625 C 1.6875 -2.660156 1.5625 -2.335938 1.5625 -1.921875 C 1.5625 -1.503906 1.6875 -1.175781 1.9375 -0.9375 C 2.195312 -0.707031 2.546875 -0.59375 2.984375 -0.59375 C 3.421875 -0.59375 3.765625 -0.710938 4.015625 -0.953125 C 4.273438 -1.191406 4.40625 -1.515625 4.40625 -1.921875 C 4.40625 -2.335938 4.273438 -2.660156 4.015625 -2.890625 C 3.765625 -3.128906 3.421875 -3.25 2.984375 -3.25 Z M 2.0625 -3.640625 C 1.65625 -3.734375 1.34375 -3.914062 1.125 -4.1875 C 0.90625 -4.457031 0.796875 -4.789062 0.796875 -5.1875 C 0.796875 -5.726562 0.988281 -6.15625 1.375 -6.46875 C 1.769531 -6.789062 2.304688 -6.953125 2.984375 -6.953125 C 3.660156 -6.953125 4.191406 -6.789062 4.578125 -6.46875 C 4.960938 -6.15625 5.15625 -5.726562 5.15625 -5.1875 C 5.15625 -4.789062 5.046875 -4.457031 4.828125 -4.1875 C 4.609375 -3.914062 4.300781 -3.734375 3.90625 -3.640625 C 4.351562 -3.535156 4.703125 -3.332031 4.953125 -3.03125 C 5.203125 -2.726562 5.328125 -2.359375 5.328125 -1.921875 C 5.328125 -1.253906 5.125 -0.742188 4.71875 -0.390625 C 4.3125 -0.046875 3.734375 0.125 2.984375 0.125 C 2.222656 0.125 1.640625 -0.046875 1.234375 -0.390625 C 0.835938 -0.742188 0.640625 -1.253906 0.640625 -1.921875 C 0.640625 -2.359375 0.765625 -2.726562 1.015625 -3.03125 C 1.265625 -3.332031 1.613281 -3.535156 2.0625 -3.640625 Z M 1.71875 -5.09375 C 1.71875 -4.738281 1.828125 -4.460938 2.046875 -4.265625 C 2.265625 -4.066406 2.578125 -3.96875 2.984375 -3.96875 C 3.378906 -3.96875 3.6875 -4.066406 3.90625 -4.265625 C 4.132812 -4.460938 4.25 -4.738281 4.25 -5.09375 C 4.25 -5.445312 4.132812 -5.722656 3.90625 -5.921875 C 3.6875 -6.117188 3.378906 -6.21875 2.984375 -6.21875 C 2.578125 -6.21875 2.265625 -6.117188 2.046875 -5.921875 C 1.828125 -5.722656 1.71875 -5.445312 1.71875 -5.09375 Z M 1.71875 -5.09375 "/>
</g>
<g id="glyph-0-6">
<path d="M 0.921875 -6.828125 L 1.84375 -6.828125 L 1.84375 0 L 0.921875 0 Z M 0.921875 -6.828125 "/>
</g>
<g id="glyph-0-7">
<path d="M 4.875 -4.140625 C 5.082031 -4.515625 5.332031 -4.789062 5.625 -4.96875 C 5.914062 -5.15625 6.265625 -5.25 6.671875 -5.25 C 7.203125 -5.25 7.609375 -5.0625 7.890625 -4.6875 C 8.179688 -4.3125 8.328125 -3.78125 8.328125 -3.09375 L 8.328125 0 L 7.484375 0 L 7.484375 -3.0625 C 7.484375 -3.550781 7.394531 -3.914062 7.21875 -4.15625 C 7.050781 -4.394531 6.789062 -4.515625 6.4375 -4.515625 C 6 -4.515625 5.648438 -4.367188 5.390625 -4.078125 C 5.140625 -3.785156 5.015625 -3.390625 5.015625 -2.890625 L 5.015625 0 L 4.171875 0 L 4.171875 -3.0625 C 4.171875 -3.5625 4.082031 -3.925781 3.90625 -4.15625 C 3.726562 -4.394531 3.460938 -4.515625 3.109375 -4.515625 C 2.671875 -4.515625 2.328125 -4.367188 2.078125 -4.078125 C 1.828125 -3.785156 1.703125 -3.390625 1.703125 -2.890625 L 1.703125 0 L 0.84375 0 L 0.84375 -5.125 L 1.703125 -5.125 L 1.703125 -4.328125 C 1.890625 -4.640625 2.117188 -4.867188 2.390625 -5.015625 C 2.660156 -5.171875 2.976562 -5.25 3.34375 -5.25 C 3.71875 -5.25 4.035156 -5.15625 4.296875 -4.96875 C 4.554688 -4.78125 4.75 -4.503906 4.875 -4.140625 Z M 4.875 -4.140625 "/>
</g>
<g id="glyph-0-8">
<path d="M 1.703125 -0.765625 L 1.703125 1.953125 L 0.84375 1.953125 L 0.84375 -5.125 L 1.703125 -5.125 L 1.703125 -4.34375 C 1.878906 -4.65625 2.101562 -4.882812 2.375 -5.03125 C 2.644531 -5.175781 2.96875 -5.25 3.34375 -5.25 C 3.957031 -5.25 4.457031 -5 4.84375 -4.5 C 5.238281 -4.007812 5.4375 -3.363281 5.4375 -2.5625 C 5.4375 -1.75 5.238281 -1.097656 4.84375 -0.609375 C 4.457031 -0.117188 3.957031 0.125 3.34375 0.125 C 2.96875 0.125 2.644531 0.0507812 2.375 -0.09375 C 2.101562 -0.238281 1.878906 -0.460938 1.703125 -0.765625 Z M 4.5625 -2.5625 C 4.5625 -3.175781 4.429688 -3.660156 4.171875 -4.015625 C 3.921875 -4.367188 3.570312 -4.546875 3.125 -4.546875 C 2.6875 -4.546875 2.335938 -4.367188 2.078125 -4.015625 C 1.828125 -3.660156 1.703125 -3.175781 1.703125 -2.5625 C 1.703125 -1.9375 1.828125 -1.445312 2.078125 -1.09375 C 2.335938 -0.75 2.6875 -0.578125 3.125 -0.578125 C 3.570312 -0.578125 3.921875 -0.75 4.171875 -1.09375 C 4.429688 -1.445312 4.5625 -1.9375 4.5625 -2.5625 Z M 4.5625 -2.5625 "/>
</g>
<g id="glyph-0-9">
<path d="M 3.859375 -4.34375 C 3.765625 -4.394531 3.660156 -4.429688 3.546875 -4.453125 C 3.429688 -4.484375 3.304688 -4.5 3.171875 -4.5 C 2.703125 -4.5 2.335938 -4.34375 2.078125 -4.03125 C 1.828125 -3.726562 1.703125 -3.285156 1.703125 -2.703125 L 1.703125 0 L 0.84375 0 L 0.84375 -5.125 L 1.703125 -5.125 L 1.703125 -4.328125 C 1.878906 -4.640625 2.109375 -4.867188 2.390625 -5.015625 C 2.671875 -5.171875 3.015625 -5.25 3.421875 -5.25 C 3.484375 -5.25 3.546875 -5.242188 3.609375 -5.234375 C 3.679688 -5.234375 3.757812 -5.222656 3.84375 -5.203125 Z M 3.859375 -4.34375 "/>
</g>
<g id="glyph-0-10">
<path d="M 2.875 -4.53125 C 2.414062 -4.53125 2.054688 -4.351562 1.796875 -4 C 1.535156 -3.65625 1.40625 -3.175781 1.40625 -2.5625 C 1.40625 -1.945312 1.535156 -1.460938 1.796875 -1.109375 C 2.054688 -0.753906 2.414062 -0.578125 2.875 -0.578125 C 3.320312 -0.578125 3.675781 -0.753906 3.9375 -1.109375 C 4.195312 -1.460938 4.328125 -1.945312 4.328125 -2.5625 C 4.328125 -3.164062 4.195312 -3.644531 3.9375 -4 C 3.675781 -4.351562 3.320312 -4.53125 2.875 -4.53125 Z M 2.875 -5.25 C 3.601562 -5.25 4.175781 -5.007812 4.59375 -4.53125 C 5.007812 -4.0625 5.21875 -3.40625 5.21875 -2.5625 C 5.21875 -1.71875 5.007812 -1.054688 4.59375 -0.578125 C 4.175781 -0.109375 3.601562 0.125 2.875 0.125 C 2.132812 0.125 1.554688 -0.109375 1.140625 -0.578125 C 0.722656 -1.054688 0.515625 -1.71875 0.515625 -2.5625 C 0.515625 -3.40625 0.722656 -4.0625 1.140625 -4.53125 C 1.554688 -5.007812 2.132812 -5.25 2.875 -5.25 Z M 2.875 -5.25 "/>
</g>
<g id="glyph-0-11">
<path d="M 0.28125 -5.125 L 1.171875 -5.125 L 2.78125 -0.828125 L 4.375 -5.125 L 5.265625 -5.125 L 3.34375 0 L 2.203125 0 Z M 0.28125 -5.125 "/>
</g>
<g id="glyph-0-12">
<path d="M 5.265625 -2.78125 L 5.265625 -2.359375 L 1.390625 -2.359375 C 1.429688 -1.785156 1.609375 -1.34375 1.921875 -1.03125 C 2.234375 -0.726562 2.671875 -0.578125 3.234375 -0.578125 C 3.554688 -0.578125 3.867188 -0.613281 4.171875 -0.6875 C 4.472656 -0.769531 4.773438 -0.894531 5.078125 -1.0625 L 5.078125 -0.265625 C 4.773438 -0.128906 4.460938 -0.0273438 4.140625 0.03125 C 3.828125 0.09375 3.503906 0.125 3.171875 0.125 C 2.359375 0.125 1.710938 -0.109375 1.234375 -0.578125 C 0.753906 -1.054688 0.515625 -1.703125 0.515625 -2.515625 C 0.515625 -3.347656 0.738281 -4.007812 1.1875 -4.5 C 1.644531 -5 2.257812 -5.25 3.03125 -5.25 C 3.71875 -5.25 4.257812 -5.023438 4.65625 -4.578125 C 5.0625 -4.140625 5.265625 -3.539062 5.265625 -2.78125 Z M 4.421875 -3.015625 C 4.421875 -3.484375 4.289062 -3.851562 4.03125 -4.125 C 3.78125 -4.394531 3.453125 -4.53125 3.046875 -4.53125 C 2.566406 -4.53125 2.1875 -4.394531 1.90625 -4.125 C 1.625 -3.863281 1.460938 -3.492188 1.421875 -3.015625 Z M 4.421875 -3.015625 "/>
</g>
<g id="glyph-0-13">
<path d="M 5.140625 -3.09375 L 5.140625 0 L 4.296875 0 L 4.296875 -3.0625 C 4.296875 -3.550781 4.203125 -3.914062 4.015625 -4.15625 C 3.828125 -4.394531 3.546875 -4.515625 3.171875 -4.515625 C 2.710938 -4.515625 2.351562 -4.367188 2.09375 -4.078125 C 1.832031 -3.785156 1.703125 -3.390625 1.703125 -2.890625 L 1.703125 0 L 0.84375 0 L 0.84375 -5.125 L 1.703125 -5.125 L 1.703125 -4.328125 C 1.898438 -4.640625 2.132812 -4.867188 2.40625 -5.015625 C 2.675781 -5.171875 2.992188 -5.25 3.359375 -5.25 C 3.941406 -5.25 4.382812 -5.066406 4.6875 -4.703125 C 4.988281 -4.335938 5.140625 -3.800781 5.140625 -3.09375 Z M 5.140625 -3.09375 "/>
</g>
<g id="glyph-0-14">
<path d="M 1.71875 -6.578125 L 1.71875 -5.125 L 3.453125 -5.125 L 3.453125 -4.46875 L 1.71875 -4.46875 L 1.71875 -1.6875 C 1.71875 -1.269531 1.773438 -1 1.890625 -0.875 C 2.003906 -0.757812 2.238281 -0.703125 2.59375 -0.703125 L 3.453125 -0.703125 L 3.453125 0 L 2.59375 0 C 1.9375 0 1.484375 -0.117188 1.234375 -0.359375 C 0.992188 -0.609375 0.875 -1.050781 0.875 -1.6875 L 0.875 -4.46875 L 0.25 -4.46875 L 0.25 -5.125 L 0.875 -5.125 L 0.875 -6.578125 Z M 1.71875 -6.578125 "/>
</g>
<g id="glyph-0-15">
</g>
<g id="glyph-0-16">
<path d="M 0.890625 -5.125 L 1.71875 -5.125 L 1.71875 0 L 0.890625 0 Z M 0.890625 -7.125 L 1.71875 -7.125 L 1.71875 -6.0625 L 0.890625 -6.0625 Z M 0.890625 -7.125 "/>
</g>
<g id="glyph-0-17">
<path d="M 5.015625 -6.609375 L 5.015625 -5.703125 C 4.660156 -5.867188 4.328125 -5.992188 4.015625 -6.078125 C 3.710938 -6.160156 3.414062 -6.203125 3.125 -6.203125 C 2.613281 -6.203125 2.222656 -6.101562 1.953125 -5.90625 C 1.679688 -5.71875 1.546875 -5.441406 1.546875 -5.078125 C 1.546875 -4.773438 1.632812 -4.546875 1.8125 -4.390625 C 2 -4.242188 2.347656 -4.125 2.859375 -4.03125 L 3.40625 -3.90625 C 4.09375 -3.78125 4.597656 -3.550781 4.921875 -3.21875 C 5.253906 -2.882812 5.421875 -2.441406 5.421875 -1.890625 C 5.421875 -1.222656 5.195312 -0.71875 4.75 -0.375 C 4.3125 -0.0390625 3.664062 0.125 2.8125 0.125 C 2.488281 0.125 2.144531 0.0859375 1.78125 0.015625 C 1.414062 -0.0546875 1.035156 -0.160156 0.640625 -0.296875 L 0.640625 -1.25 C 1.015625 -1.039062 1.378906 -0.882812 1.734375 -0.78125 C 2.097656 -0.675781 2.457031 -0.625 2.8125 -0.625 C 3.34375 -0.625 3.75 -0.722656 4.03125 -0.921875 C 4.320312 -1.128906 4.46875 -1.425781 4.46875 -1.8125 C 4.46875 -2.15625 4.363281 -2.421875 4.15625 -2.609375 C 3.945312 -2.796875 3.609375 -2.9375 3.140625 -3.03125 L 2.578125 -3.140625 C 1.890625 -3.273438 1.390625 -3.488281 1.078125 -3.78125 C 0.773438 -4.070312 0.625 -4.484375 0.625 -5.015625 C 0.625 -5.617188 0.832031 -6.09375 1.25 -6.4375 C 1.675781 -6.78125 2.265625 -6.953125 3.015625 -6.953125 C 3.335938 -6.953125 3.664062 -6.921875 4 -6.859375 C 4.332031 -6.804688 4.671875 -6.722656 5.015625 -6.609375 Z M 5.015625 -6.609375 "/>
</g>
<g id="glyph-0-18">
<path d="M 0.796875 -2.015625 L 0.796875 -5.125 L 1.640625 -5.125 L 1.640625 -2.0625 C 1.640625 -1.570312 1.734375 -1.203125 1.921875 -0.953125 C 2.109375 -0.710938 2.394531 -0.59375 2.78125 -0.59375 C 3.226562 -0.59375 3.582031 -0.738281 3.84375 -1.03125 C 4.113281 -1.320312 4.25 -1.71875 4.25 -2.21875 L 4.25 -5.125 L 5.09375 -5.125 L 5.09375 0 L 4.25 0 L 4.25 -0.78125 C 4.039062 -0.476562 3.800781 -0.25 3.53125 -0.09375 C 3.257812 0.0507812 2.945312 0.125 2.59375 0.125 C 2.007812 0.125 1.5625 -0.0546875 1.25 -0.421875 C 0.945312 -0.785156 0.796875 -1.316406 0.796875 -2.015625 Z M 2.921875 -5.25 Z M 2.921875 -5.25 "/>
</g>
<g id="glyph-0-19">
<path d="M 3.21875 -2.578125 C 2.53125 -2.578125 2.054688 -2.5 1.796875 -2.34375 C 1.535156 -2.1875 1.40625 -1.921875 1.40625 -1.546875 C 1.40625 -1.242188 1.503906 -1.003906 1.703125 -0.828125 C 1.898438 -0.660156 2.164062 -0.578125 2.5 -0.578125 C 2.96875 -0.578125 3.34375 -0.738281 3.625 -1.0625 C 3.90625 -1.394531 4.046875 -1.835938 4.046875 -2.390625 L 4.046875 -2.578125 Z M 4.890625 -2.921875 L 4.890625 0 L 4.046875 0 L 4.046875 -0.78125 C 3.859375 -0.46875 3.617188 -0.238281 3.328125 -0.09375 C 3.046875 0.0507812 2.695312 0.125 2.28125 0.125 C 1.757812 0.125 1.34375 -0.0195312 1.03125 -0.3125 C 0.71875 -0.601562 0.5625 -1 0.5625 -1.5 C 0.5625 -2.070312 0.753906 -2.503906 1.140625 -2.796875 C 1.523438 -3.085938 2.101562 -3.234375 2.875 -3.234375 L 4.046875 -3.234375 L 4.046875 -3.3125 C 4.046875 -3.707031 3.914062 -4.007812 3.65625 -4.21875 C 3.40625 -4.425781 3.050781 -4.53125 2.59375 -4.53125 C 2.300781 -4.53125 2.015625 -4.492188 1.734375 -4.421875 C 1.460938 -4.359375 1.195312 -4.253906 0.9375 -4.109375 L 0.9375 -4.890625 C 1.25 -5.015625 1.546875 -5.101562 1.828125 -5.15625 C 2.117188 -5.21875 2.40625 -5.25 2.6875 -5.25 C 3.425781 -5.25 3.976562 -5.054688 4.34375 -4.671875 C 4.707031 -4.285156 4.890625 -3.703125 4.890625 -2.921875 Z M 4.890625 -2.921875 "/>
</g>
<g id="glyph-0-20">
<path d="M 3.015625 0.46875 C 2.773438 1.082031 2.539062 1.484375 2.3125 1.671875 C 2.09375 1.859375 1.796875 1.953125 1.421875 1.953125 L 0.734375 1.953125 L 0.734375 1.25 L 1.234375 1.25 C 1.460938 1.25 1.640625 1.191406 1.765625 1.078125 C 1.898438 0.972656 2.046875 0.710938 2.203125 0.296875 L 2.359375 -0.078125 L 0.28125 -5.125 L 1.171875 -5.125 L 2.78125 -1.109375 L 4.375 -5.125 L 5.265625 -5.125 Z M 3.015625 0.46875 "/>
</g>
<g id="glyph-0-21">
<path d="M 3.6875 -6.203125 C 3.019531 -6.203125 2.488281 -5.953125 2.09375 -5.453125 C 1.695312 -4.953125 1.5 -4.269531 1.5 -3.40625 C 1.5 -2.550781 1.695312 -1.875 2.09375 -1.375 C 2.488281 -0.875 3.019531 -0.625 3.6875 -0.625 C 4.363281 -0.625 4.894531 -0.875 5.28125 -1.375 C 5.675781 -1.875 5.875 -2.550781 5.875 -3.40625 C 5.875 -4.269531 5.675781 -4.953125 5.28125 -5.453125 C 4.894531 -5.953125 4.363281 -6.203125 3.6875 -6.203125 Z M 4.984375 -0.125 L 6.203125 1.203125 L 5.09375 1.203125 L 4.078125 0.109375 C 3.972656 0.117188 3.894531 0.125 3.84375 0.125 C 3.789062 0.125 3.738281 0.125 3.6875 0.125 C 2.726562 0.125 1.960938 -0.191406 1.390625 -0.828125 C 0.816406 -1.472656 0.53125 -2.332031 0.53125 -3.40625 C 0.53125 -4.488281 0.816406 -5.347656 1.390625 -5.984375 C 1.960938 -6.628906 2.726562 -6.953125 3.6875 -6.953125 C 4.644531 -6.953125 5.410156 -6.628906 5.984375 -5.984375 C 6.566406 -5.347656 6.859375 -4.488281 6.859375 -3.40625 C 6.859375 -2.613281 6.695312 -1.9375 6.375 -1.375 C 6.050781 -0.8125 5.585938 -0.394531 4.984375 -0.125 Z M 4.984375 -0.125 "/>
</g>
<g id="glyph-0-22">
<path d="M 0.890625 -7.125 L 1.71875 -7.125 L 1.71875 0 L 0.890625 0 Z M 0.890625 -7.125 "/>
</g>
<g id="glyph-0-23">
<path d="M 2.90625 -7.109375 C 2.5 -6.410156 2.195312 -5.71875 2 -5.03125 C 1.800781 -4.34375 1.703125 -3.644531 1.703125 -2.9375 C 1.703125 -2.238281 1.800781 -1.539062 2 -0.84375 C 2.195312 -0.15625 2.5 0.535156 2.90625 1.234375 L 2.171875 1.234375 C 1.710938 0.515625 1.367188 -0.1875 1.140625 -0.875 C 0.921875 -1.570312 0.8125 -2.257812 0.8125 -2.9375 C 0.8125 -3.625 0.921875 -4.3125 1.140625 -5 C 1.367188 -5.6875 1.710938 -6.390625 2.171875 -7.109375 Z M 2.90625 -7.109375 "/>
</g>
<g id="glyph-0-24">
<path d="M 3.203125 -5.921875 L 1.328125 -0.765625 L 5.078125 -0.765625 Z M 0.078125 0 L 2.6875 -6.828125 L 3.734375 -6.828125 L 6.328125 0 Z M 0.078125 0 "/>
</g>
<g id="glyph-0-25">
<path d="M 4.15625 -3.203125 C 4.351562 -3.140625 4.546875 -2.992188 4.734375 -2.765625 C 4.921875 -2.546875 5.113281 -2.25 5.3125 -1.875 L 6.25 0 L 5.25 0 L 4.375 -1.75 C 4.144531 -2.207031 3.925781 -2.507812 3.71875 -2.65625 C 3.507812 -2.8125 3.222656 -2.890625 2.859375 -2.890625 L 1.84375 -2.890625 L 1.84375 0 L 0.921875 0 L 0.921875 -6.828125 L 3 -6.828125 C 3.78125 -6.828125 4.363281 -6.664062 4.75 -6.34375 C 5.132812 -6.019531 5.328125 -5.523438 5.328125 -4.859375 C 5.328125 -4.429688 5.226562 -4.078125 5.03125 -3.796875 C 4.832031 -3.515625 4.539062 -3.316406 4.15625 -3.203125 Z M 1.84375 -6.078125 L 1.84375 -3.640625 L 3 -3.640625 C 3.445312 -3.640625 3.785156 -3.742188 4.015625 -3.953125 C 4.242188 -4.160156 4.359375 -4.460938 4.359375 -4.859375 C 4.359375 -5.265625 4.242188 -5.566406 4.015625 -5.765625 C 3.785156 -5.972656 3.445312 -6.078125 3 -6.078125 Z M 1.84375 -6.078125 "/>
</g>
<g id="glyph-0-26">
<path d="M 3.6875 -6.203125 C 3.019531 -6.203125 2.488281 -5.953125 2.09375 -5.453125 C 1.695312 -4.953125 1.5 -4.269531 1.5 -3.40625 C 1.5 -2.550781 1.695312 -1.875 2.09375 -1.375 C 2.488281 -0.875 3.019531 -0.625 3.6875 -0.625 C 4.363281 -0.625 4.894531 -0.875 5.28125 -1.375 C 5.675781 -1.875 5.875 -2.550781 5.875 -3.40625 C 5.875 -4.269531 5.675781 -4.953125 5.28125 -5.453125 C 4.894531 -5.953125 4.363281 -6.203125 3.6875 -6.203125 Z M 3.6875 -6.953125 C 4.644531 -6.953125 5.410156 -6.628906 5.984375 -5.984375 C 6.566406 -5.347656 6.859375 -4.488281 6.859375 -3.40625 C 6.859375 -2.332031 6.566406 -1.472656 5.984375 -0.828125 C 5.410156 -0.191406 4.644531 0.125 3.6875 0.125 C 2.726562 0.125 1.960938 -0.191406 1.390625 -0.828125 C 0.816406 -1.472656 0.53125 -2.332031 0.53125 -3.40625 C 0.53125 -4.488281 0.816406 -5.347656 1.390625 -5.984375 C 1.960938 -6.628906 2.726562 -6.953125 3.6875 -6.953125 Z M 3.6875 -6.953125 "/>
</g>
<g id="glyph-0-27">
<path d="M 0.8125 -6.828125 L 1.75 -6.828125 L 1.75 -2.6875 C 1.75 -1.945312 1.878906 -1.414062 2.140625 -1.09375 C 2.410156 -0.78125 2.84375 -0.625 3.4375 -0.625 C 4.03125 -0.625 4.457031 -0.78125 4.71875 -1.09375 C 4.988281 -1.414062 5.125 -1.945312 5.125 -2.6875 L 5.125 -6.828125 L 6.046875 -6.828125 L 6.046875 -2.5625 C 6.046875 -1.675781 5.820312 -1.003906 5.375 -0.546875 C 4.9375 -0.0976562 4.289062 0.125 3.4375 0.125 C 2.570312 0.125 1.914062 -0.0976562 1.46875 -0.546875 C 1.03125 -1.003906 0.8125 -1.675781 0.8125 -2.5625 Z M 0.8125 -6.828125 "/>
</g>
<g id="glyph-0-28">
<path d="M 5.578125 -0.96875 L 5.578125 -2.8125 L 4.0625 -2.8125 L 4.0625 -3.578125 L 6.5 -3.578125 L 6.5 -0.640625 C 6.132812 -0.378906 5.738281 -0.1875 5.3125 -0.0625 C 4.882812 0.0585938 4.425781 0.125 3.9375 0.125 C 2.863281 0.125 2.023438 -0.179688 1.421875 -0.796875 C 0.828125 -1.421875 0.53125 -2.289062 0.53125 -3.40625 C 0.53125 -4.519531 0.828125 -5.390625 1.421875 -6.015625 C 2.023438 -6.640625 2.863281 -6.953125 3.9375 -6.953125 C 4.382812 -6.953125 4.804688 -6.894531 5.203125 -6.78125 C 5.609375 -6.675781 5.976562 -6.519531 6.3125 -6.3125 L 6.3125 -5.328125 C 5.96875 -5.617188 5.601562 -5.835938 5.21875 -5.984375 C 4.84375 -6.128906 4.441406 -6.203125 4.015625 -6.203125 C 3.179688 -6.203125 2.550781 -5.96875 2.125 -5.5 C 1.707031 -5.03125 1.5 -4.332031 1.5 -3.40625 C 1.5 -2.488281 1.707031 -1.796875 2.125 -1.328125 C 2.550781 -0.859375 3.179688 -0.625 4.015625 -0.625 C 4.335938 -0.625 4.628906 -0.648438 4.890625 -0.703125 C 5.148438 -0.765625 5.378906 -0.851562 5.578125 -0.96875 Z M 5.578125 -0.96875 "/>
</g>
<g id="glyph-0-29">
<path d="M 0.921875 -6.828125 L 5.234375 -6.828125 L 5.234375 -6.0625 L 1.84375 -6.0625 L 1.84375 -4.03125 L 5.09375 -4.03125 L 5.09375 -3.25 L 1.84375 -3.25 L 1.84375 -0.78125 L 5.328125 -0.78125 L 5.328125 0 L 0.921875 0 Z M 0.921875 -6.828125 "/>
</g>
<g id="glyph-0-30">
<path d="M 0.453125 -2.9375 L 2.921875 -2.9375 L 2.921875 -2.1875 L 0.453125 -2.1875 Z M 0.453125 -2.9375 "/>
</g>
<g id="glyph-0-31">
<path d="M 1.796875 -0.78125 L 5.03125 -0.78125 L 5.03125 0 L 0.6875 0 L 0.6875 -0.78125 C 1.039062 -1.144531 1.519531 -1.628906 2.125 -2.234375 C 2.726562 -2.847656 3.109375 -3.242188 3.265625 -3.421875 C 3.554688 -3.753906 3.757812 -4.035156 3.875 -4.265625 C 4 -4.492188 4.0625 -4.722656 4.0625 -4.953125 C 4.0625 -5.316406 3.929688 -5.613281 3.671875 -5.84375 C 3.421875 -6.070312 3.09375 -6.1875 2.6875 -6.1875 C 2.394531 -6.1875 2.085938 -6.132812 1.765625 -6.03125 C 1.441406 -5.925781 1.097656 -5.773438 0.734375 -5.578125 L 0.734375 -6.5 C 1.109375 -6.65625 1.457031 -6.769531 1.78125 -6.84375 C 2.101562 -6.914062 2.398438 -6.953125 2.671875 -6.953125 C 3.367188 -6.953125 3.925781 -6.773438 4.34375 -6.421875 C 4.769531 -6.066406 4.984375 -5.597656 4.984375 -5.015625 C 4.984375 -4.734375 4.929688 -4.460938 4.828125 -4.203125 C 4.722656 -3.953125 4.53125 -3.65625 4.25 -3.3125 C 4.175781 -3.226562 3.9375 -2.972656 3.53125 -2.546875 C 3.125 -2.128906 2.546875 -1.539062 1.796875 -0.78125 Z M 1.796875 -0.78125 "/>
</g>
<g id="glyph-0-32">
<path d="M 0.75 -7.109375 L 1.484375 -7.109375 C 1.941406 -6.390625 2.285156 -5.6875 2.515625 -5 C 2.742188 -4.3125 2.859375 -3.625 2.859375 -2.9375 C 2.859375 -2.257812 2.742188 -1.570312 2.515625 -0.875 C 2.285156 -0.1875 1.941406 0.515625 1.484375 1.234375 L 0.75 1.234375 C 1.15625 0.535156 1.457031 -0.15625 1.65625 -0.84375 C 1.851562 -1.539062 1.953125 -2.238281 1.953125 -2.9375 C 1.953125 -3.644531 1.851562 -4.34375 1.65625 -5.03125 C 1.457031 -5.71875 1.15625 -6.410156 0.75 -7.109375 Z M 0.75 -7.109375 "/>
</g>
<g id="glyph-0-33">
<path d="M 1.15625 -0.78125 L 2.671875 -0.78125 L 2.671875 -5.984375 L 1.03125 -5.65625 L 1.03125 -6.5 L 2.671875 -6.828125 L 3.59375 -6.828125 L 3.59375 -0.78125 L 5.09375 -0.78125 L 5.09375 0 L 1.15625 0 Z M 1.15625 -0.78125 "/>
</g>
<g id="glyph-0-34">
<path d="M 1 -1.15625 L 1.96875 -1.15625 L 1.96875 0 L 1 0 Z M 1 -1.15625 "/>
</g>
<g id="glyph-0-35">
<path d="M 2.984375 -6.21875 C 2.503906 -6.21875 2.144531 -5.984375 1.90625 -5.515625 C 1.664062 -5.046875 1.546875 -4.34375 1.546875 -3.40625 C 1.546875 -2.46875 1.664062 -1.765625 1.90625 -1.296875 C 2.144531 -0.828125 2.503906 -0.59375 2.984375 -0.59375 C 3.460938 -0.59375 3.820312 -0.828125 4.0625 -1.296875 C 4.300781 -1.765625 4.421875 -2.46875 4.421875 -3.40625 C 4.421875 -4.34375 4.300781 -5.046875 4.0625 -5.515625 C 3.820312 -5.984375 3.460938 -6.21875 2.984375 -6.21875 Z M 2.984375 -6.953125 C 3.742188 -6.953125 4.328125 -6.648438 4.734375 -6.046875 C 5.140625 -5.441406 5.34375 -4.5625 5.34375 -3.40625 C 5.34375 -2.257812 5.140625 -1.382812 4.734375 -0.78125 C 4.328125 -0.175781 3.742188 0.125 2.984375 0.125 C 2.210938 0.125 1.625 -0.175781 1.21875 -0.78125 C 0.820312 -1.382812 0.625 -2.257812 0.625 -3.40625 C 0.625 -4.5625 0.820312 -5.441406 1.21875 -6.046875 C 1.625 -6.648438 2.210938 -6.953125 2.984375 -6.953125 Z M 2.984375 -6.953125 "/>
</g>
<g id="glyph-0-36">
<path d="M 6.8125 -3 C 6.550781 -3 6.34375 -2.882812 6.1875 -2.65625 C 6.039062 -2.4375 5.96875 -2.125 5.96875 -1.71875 C 5.96875 -1.320312 6.039062 -1.007812 6.1875 -0.78125 C 6.34375 -0.5625 6.550781 -0.453125 6.8125 -0.453125 C 7.070312 -0.453125 7.273438 -0.5625 7.421875 -0.78125 C 7.578125 -1.007812 7.65625 -1.320312 7.65625 -1.71875 C 7.65625 -2.125 7.578125 -2.4375 7.421875 -2.65625 C 7.273438 -2.882812 7.070312 -3 6.8125 -3 Z M 6.8125 -3.59375 C 7.300781 -3.59375 7.6875 -3.421875 7.96875 -3.078125 C 8.25 -2.742188 8.390625 -2.289062 8.390625 -1.71875 C 8.390625 -1.15625 8.242188 -0.707031 7.953125 -0.375 C 7.671875 -0.0390625 7.289062 0.125 6.8125 0.125 C 6.320312 0.125 5.9375 -0.0390625 5.65625 -0.375 C 5.375 -0.707031 5.234375 -1.15625 5.234375 -1.71875 C 5.234375 -2.300781 5.375 -2.757812 5.65625 -3.09375 C 5.945312 -3.425781 6.332031 -3.59375 6.8125 -3.59375 Z M 2.09375 -6.375 C 1.832031 -6.375 1.625 -6.257812 1.46875 -6.03125 C 1.320312 -5.800781 1.25 -5.488281 1.25 -5.09375 C 1.25 -4.695312 1.320312 -4.382812 1.46875 -4.15625 C 1.613281 -3.925781 1.820312 -3.8125 2.09375 -3.8125 C 2.351562 -3.8125 2.554688 -3.925781 2.703125 -4.15625 C 2.859375 -4.382812 2.9375 -4.695312 2.9375 -5.09375 C 2.9375 -5.488281 2.859375 -5.800781 2.703125 -6.03125 C 2.554688 -6.257812 2.351562 -6.375 2.09375 -6.375 Z M 6.21875 -6.953125 L 6.953125 -6.953125 L 2.6875 0.125 L 1.953125 0.125 Z M 2.09375 -6.953125 C 2.570312 -6.953125 2.953125 -6.785156 3.234375 -6.453125 C 3.523438 -6.117188 3.671875 -5.664062 3.671875 -5.09375 C 3.671875 -4.519531 3.523438 -4.066406 3.234375 -3.734375 C 2.953125 -3.398438 2.570312 -3.234375 2.09375 -3.234375 C 1.601562 -3.234375 1.21875 -3.398438 0.9375 -3.734375 C 0.65625 -4.066406 0.515625 -4.519531 0.515625 -5.09375 C 0.515625 -5.664062 0.65625 -6.117188 0.9375 -6.453125 C 1.226562 -6.785156 1.613281 -6.953125 2.09375 -6.953125 Z M 2.09375 -6.953125 "/>
</g>
<g id="glyph-1-0">
<path d="M -6.828125 -0.921875 L -6.828125 -1.84375 L 0 -1.84375 L 0 -0.921875 Z M -6.828125 -0.921875 "/>
</g>
<g id="glyph-1-1">
<path d="M -4.140625 -4.875 C -4.515625 -5.082031 -4.789062 -5.332031 -4.96875 -5.625 C -5.15625 -5.914062 -5.25 -6.265625 -5.25 -6.671875 C -5.25 -7.203125 -5.0625 -7.609375 -4.6875 -7.890625 C -4.3125 -8.179688 -3.78125 -8.328125 -3.09375 -8.328125 L 0 -8.328125 L 0 -7.484375 L -3.0625 -7.484375 C -3.550781 -7.484375 -3.914062 -7.394531 -4.15625 -7.21875 C -4.394531 -7.050781 -4.515625 -6.789062 -4.515625 -6.4375 C -4.515625 -6 -4.367188 -5.648438 -4.078125 -5.390625 C -3.785156 -5.140625 -3.390625 -5.015625 -2.890625 -5.015625 L 0 -5.015625 L 0 -4.171875 L -3.0625 -4.171875 C -3.5625 -4.171875 -3.925781 -4.082031 -4.15625 -3.90625 C -4.394531 -3.726562 -4.515625 -3.460938 -4.515625 -3.109375 C -4.515625 -2.671875 -4.367188 -2.328125 -4.078125 -2.078125 C -3.785156 -1.828125 -3.390625 -1.703125 -2.890625 -1.703125 L 0 -1.703125 L 0 -0.84375 L -5.125 -0.84375 L -5.125 -1.703125 L -4.328125 -1.703125 C -4.640625 -1.890625 -4.867188 -2.117188 -5.015625 -2.390625 C -5.171875 -2.660156 -5.25 -2.976562 -5.25 -3.34375 C -5.25 -3.71875 -5.15625 -4.035156 -4.96875 -4.296875 C -4.78125 -4.554688 -4.503906 -4.75 -4.140625 -4.875 Z M -4.140625 -4.875 "/>
</g>
<g id="glyph-1-2">
<path d="M -0.765625 -1.703125 L 1.953125 -1.703125 L 1.953125 -0.84375 L -5.125 -0.84375 L -5.125 -1.703125 L -4.34375 -1.703125 C -4.65625 -1.878906 -4.882812 -2.101562 -5.03125 -2.375 C -5.175781 -2.644531 -5.25 -2.96875 -5.25 -3.34375 C -5.25 -3.957031 -5 -4.457031 -4.5 -4.84375 C -4.007812 -5.238281 -3.363281 -5.4375 -2.5625 -5.4375 C -1.75 -5.4375 -1.097656 -5.238281 -0.609375 -4.84375 C -0.117188 -4.457031 0.125 -3.957031 0.125 -3.34375 C 0.125 -2.96875 0.0507812 -2.644531 -0.09375 -2.375 C -0.238281 -2.101562 -0.460938 -1.878906 -0.765625 -1.703125 Z M -2.5625 -4.5625 C -3.175781 -4.5625 -3.660156 -4.429688 -4.015625 -4.171875 C -4.367188 -3.921875 -4.546875 -3.570312 -4.546875 -3.125 C -4.546875 -2.6875 -4.367188 -2.335938 -4.015625 -2.078125 C -3.660156 -1.828125 -3.175781 -1.703125 -2.5625 -1.703125 C -1.9375 -1.703125 -1.445312 -1.828125 -1.09375 -2.078125 C -0.75 -2.335938 -0.578125 -2.6875 -0.578125 -3.125 C -0.578125 -3.570312 -0.75 -3.921875 -1.09375 -4.171875 C -1.445312 -4.429688 -1.9375 -4.5625 -2.5625 -4.5625 Z M -2.5625 -4.5625 "/>
</g>
<g id="glyph-1-3">
<path d="M -4.34375 -3.859375 C -4.394531 -3.765625 -4.429688 -3.660156 -4.453125 -3.546875 C -4.484375 -3.429688 -4.5 -3.304688 -4.5 -3.171875 C -4.5 -2.703125 -4.34375 -2.335938 -4.03125 -2.078125 C -3.726562 -1.828125 -3.285156 -1.703125 -2.703125 -1.703125 L 0 -1.703125 L 0 -0.84375 L -5.125 -0.84375 L -5.125 -1.703125 L -4.328125 -1.703125 C -4.640625 -1.878906 -4.867188 -2.109375 -5.015625 -2.390625 C -5.171875 -2.671875 -5.25 -3.015625 -5.25 -3.421875 C -5.25 -3.484375 -5.242188 -3.546875 -5.234375 -3.609375 C -5.234375 -3.679688 -5.222656 -3.757812 -5.203125 -3.84375 Z M -4.34375 -3.859375 "/>
</g>
<g id="glyph-1-4">
<path d="M -4.53125 -2.875 C -4.53125 -2.414062 -4.351562 -2.054688 -4 -1.796875 C -3.65625 -1.535156 -3.175781 -1.40625 -2.5625 -1.40625 C -1.945312 -1.40625 -1.460938 -1.535156 -1.109375 -1.796875 C -0.753906 -2.054688 -0.578125 -2.414062 -0.578125 -2.875 C -0.578125 -3.320312 -0.753906 -3.675781 -1.109375 -3.9375 C -1.460938 -4.195312 -1.945312 -4.328125 -2.5625 -4.328125 C -3.164062 -4.328125 -3.644531 -4.195312 -4 -3.9375 C -4.351562 -3.675781 -4.53125 -3.320312 -4.53125 -2.875 Z M -5.25 -2.875 C -5.25 -3.601562 -5.007812 -4.175781 -4.53125 -4.59375 C -4.0625 -5.007812 -3.40625 -5.21875 -2.5625 -5.21875 C -1.71875 -5.21875 -1.054688 -5.007812 -0.578125 -4.59375 C -0.109375 -4.175781 0.125 -3.601562 0.125 -2.875 C 0.125 -2.132812 -0.109375 -1.554688 -0.578125 -1.140625 C -1.054688 -0.722656 -1.71875 -0.515625 -2.5625 -0.515625 C -3.40625 -0.515625 -4.0625 -0.722656 -4.53125 -1.140625 C -5.007812 -1.554688 -5.25 -2.132812 -5.25 -2.875 Z M -5.25 -2.875 "/>
</g>
<g id="glyph-1-5">
<path d="M -5.125 -0.28125 L -5.125 -1.171875 L -0.828125 -2.78125 L -5.125 -4.375 L -5.125 -5.265625 L 0 -3.34375 L 0 -2.203125 Z M -5.125 -0.28125 "/>
</g>
<g id="glyph-1-6">
<path d="M -2.78125 -5.265625 L -2.359375 -5.265625 L -2.359375 -1.390625 C -1.785156 -1.429688 -1.34375 -1.609375 -1.03125 -1.921875 C -0.726562 -2.234375 -0.578125 -2.671875 -0.578125 -3.234375 C -0.578125 -3.554688 -0.613281 -3.867188 -0.6875 -4.171875 C -0.769531 -4.472656 -0.894531 -4.773438 -1.0625 -5.078125 L -0.265625 -5.078125 C -0.128906 -4.773438 -0.0273438 -4.460938 0.03125 -4.140625 C 0.09375 -3.828125 0.125 -3.503906 0.125 -3.171875 C 0.125 -2.359375 -0.109375 -1.710938 -0.578125 -1.234375 C -1.054688 -0.753906 -1.703125 -0.515625 -2.515625 -0.515625 C -3.347656 -0.515625 -4.007812 -0.738281 -4.5 -1.1875 C -5 -1.644531 -5.25 -2.257812 -5.25 -3.03125 C -5.25 -3.71875 -5.023438 -4.257812 -4.578125 -4.65625 C -4.140625 -5.0625 -3.539062 -5.265625 -2.78125 -5.265625 Z M -3.015625 -4.421875 C -3.484375 -4.421875 -3.851562 -4.289062 -4.125 -4.03125 C -4.394531 -3.78125 -4.53125 -3.453125 -4.53125 -3.046875 C -4.53125 -2.566406 -4.394531 -2.1875 -4.125 -1.90625 C -3.863281 -1.625 -3.492188 -1.460938 -3.015625 -1.421875 Z M -3.015625 -4.421875 "/>
</g>
<g id="glyph-1-7">
<path d="M -3.09375 -5.140625 L 0 -5.140625 L 0 -4.296875 L -3.0625 -4.296875 C -3.550781 -4.296875 -3.914062 -4.203125 -4.15625 -4.015625 C -4.394531 -3.828125 -4.515625 -3.546875 -4.515625 -3.171875 C -4.515625 -2.710938 -4.367188 -2.351562 -4.078125 -2.09375 C -3.785156 -1.832031 -3.390625 -1.703125 -2.890625 -1.703125 L 0 -1.703125 L 0 -0.84375 L -5.125 -0.84375 L -5.125 -1.703125 L -4.328125 -1.703125 C -4.640625 -1.898438 -4.867188 -2.132812 -5.015625 -2.40625 C -5.171875 -2.675781 -5.25 -2.992188 -5.25 -3.359375 C -5.25 -3.941406 -5.066406 -4.382812 -4.703125 -4.6875 C -4.335938 -4.988281 -3.800781 -5.140625 -3.09375 -5.140625 Z M -3.09375 -5.140625 "/>
</g>
<g id="glyph-1-8">
<path d="M -6.578125 -1.71875 L -5.125 -1.71875 L -5.125 -3.453125 L -4.46875 -3.453125 L -4.46875 -1.71875 L -1.6875 -1.71875 C -1.269531 -1.71875 -1 -1.773438 -0.875 -1.890625 C -0.757812 -2.003906 -0.703125 -2.238281 -0.703125 -2.59375 L -0.703125 -3.453125 L 0 -3.453125 L 0 -2.59375 C 0 -1.9375 -0.117188 -1.484375 -0.359375 -1.234375 C -0.609375 -0.992188 -1.050781 -0.875 -1.6875 -0.875 L -4.46875 -0.875 L -4.46875 -0.25 L -5.125 -0.25 L -5.125 -0.875 L -6.578125 -0.875 Z M -6.578125 -1.71875 "/>
</g>
<g id="glyph-1-9">
</g>
<g id="glyph-1-10">
<path d="M -5.125 -0.890625 L -5.125 -1.71875 L 0 -1.71875 L 0 -0.890625 Z M -7.125 -0.890625 L -7.125 -1.71875 L -6.0625 -1.71875 L -6.0625 -0.890625 Z M -7.125 -0.890625 "/>
</g>
<g id="glyph-1-11">
<path d="M -6.828125 -0.921875 L -6.828125 -4.84375 L -6.0625 -4.84375 L -6.0625 -1.84375 L -4.046875 -1.84375 L -4.046875 -4.5625 L -3.265625 -4.5625 L -3.265625 -1.84375 L 0 -1.84375 L 0 -0.921875 Z M -6.828125 -0.921875 "/>
</g>
<g id="glyph-1-12">
<path d="M -2.578125 -3.21875 C -2.578125 -2.53125 -2.5 -2.054688 -2.34375 -1.796875 C -2.1875 -1.535156 -1.921875 -1.40625 -1.546875 -1.40625 C -1.242188 -1.40625 -1.003906 -1.503906 -0.828125 -1.703125 C -0.660156 -1.898438 -0.578125 -2.164062 -0.578125 -2.5 C -0.578125 -2.96875 -0.738281 -3.34375 -1.0625 -3.625 C -1.394531 -3.90625 -1.835938 -4.046875 -2.390625 -4.046875 L -2.578125 -4.046875 Z M -2.921875 -4.890625 L 0 -4.890625 L 0 -4.046875 L -0.78125 -4.046875 C -0.46875 -3.859375 -0.238281 -3.617188 -0.09375 -3.328125 C 0.0507812 -3.046875 0.125 -2.695312 0.125 -2.28125 C 0.125 -1.757812 -0.0195312 -1.34375 -0.3125 -1.03125 C -0.601562 -0.71875 -1 -0.5625 -1.5 -0.5625 C -2.070312 -0.5625 -2.503906 -0.753906 -2.796875 -1.140625 C -3.085938 -1.523438 -3.234375 -2.101562 -3.234375 -2.875 L -3.234375 -4.046875 L -3.3125 -4.046875 C -3.707031 -4.046875 -4.007812 -3.914062 -4.21875 -3.65625 C -4.425781 -3.40625 -4.53125 -3.050781 -4.53125 -2.59375 C -4.53125 -2.300781 -4.492188 -2.015625 -4.421875 -1.734375 C -4.359375 -1.460938 -4.253906 -1.195312 -4.109375 -0.9375 L -4.890625 -0.9375 C -5.015625 -1.25 -5.101562 -1.546875 -5.15625 -1.828125 C -5.21875 -2.117188 -5.25 -2.40625 -5.25 -2.6875 C -5.25 -3.425781 -5.054688 -3.976562 -4.671875 -4.34375 C -4.285156 -4.707031 -3.703125 -4.890625 -2.921875 -4.890625 Z M -2.921875 -4.890625 "/>
</g>
<g id="glyph-1-13">
<path d="M -4.9375 -4.578125 L -4.140625 -4.578125 C -4.273438 -4.335938 -4.375 -4.097656 -4.4375 -3.859375 C -4.5 -3.617188 -4.53125 -3.375 -4.53125 -3.125 C -4.53125 -2.582031 -4.359375 -2.160156 -4.015625 -1.859375 C -3.671875 -1.554688 -3.1875 -1.40625 -2.5625 -1.40625 C -1.9375 -1.40625 -1.445312 -1.554688 -1.09375 -1.859375 C -0.75 -2.160156 -0.578125 -2.582031 -0.578125 -3.125 C -0.578125 -3.375 -0.609375 -3.617188 -0.671875 -3.859375 C -0.742188 -4.097656 -0.84375 -4.335938 -0.96875 -4.578125 L -0.203125 -4.578125 C -0.0859375 -4.335938 -0.00390625 -4.09375 0.046875 -3.84375 C 0.0976562 -3.59375 0.125 -3.328125 0.125 -3.046875 C 0.125 -2.265625 -0.113281 -1.644531 -0.59375 -1.1875 C -1.082031 -0.738281 -1.738281 -0.515625 -2.5625 -0.515625 C -3.394531 -0.515625 -4.050781 -0.742188 -4.53125 -1.203125 C -5.007812 -1.660156 -5.25 -2.289062 -5.25 -3.09375 C -5.25 -3.351562 -5.222656 -3.601562 -5.171875 -3.84375 C -5.117188 -4.09375 -5.039062 -4.335938 -4.9375 -4.578125 Z M -4.9375 -4.578125 "/>
</g>
<g id="glyph-1-14">
<path d="M -2.015625 -0.796875 L -5.125 -0.796875 L -5.125 -1.640625 L -2.0625 -1.640625 C -1.570312 -1.640625 -1.203125 -1.734375 -0.953125 -1.921875 C -0.710938 -2.109375 -0.59375 -2.394531 -0.59375 -2.78125 C -0.59375 -3.226562 -0.738281 -3.582031 -1.03125 -3.84375 C -1.320312 -4.113281 -1.71875 -4.25 -2.21875 -4.25 L -5.125 -4.25 L -5.125 -5.09375 L 0 -5.09375 L 0 -4.25 L -0.78125 -4.25 C -0.476562 -4.039062 -0.25 -3.800781 -0.09375 -3.53125 C 0.0507812 -3.257812 0.125 -2.945312 0.125 -2.59375 C 0.125 -2.007812 -0.0546875 -1.5625 -0.421875 -1.25 C -0.785156 -0.945312 -1.316406 -0.796875 -2.015625 -0.796875 Z M -5.25 -2.921875 Z M -5.25 -2.921875 "/>
</g>
<g id="glyph-1-15">
<path d="M -7.125 -0.890625 L -7.125 -1.71875 L 0 -1.71875 L 0 -0.890625 Z M -7.125 -0.890625 "/>
</g>
<g id="glyph-1-16">
<path d="M -6.3125 -6.03125 L -5.328125 -6.03125 C -5.617188 -5.726562 -5.835938 -5.398438 -5.984375 -5.046875 C -6.128906 -4.691406 -6.203125 -4.316406 -6.203125 -3.921875 C -6.203125 -3.140625 -5.960938 -2.539062 -5.484375 -2.125 C -5.003906 -1.707031 -4.3125 -1.5 -3.40625 -1.5 C -2.507812 -1.5 -1.820312 -1.707031 -1.34375 -2.125 C -0.863281 -2.539062 -0.625 -3.140625 -0.625 -3.921875 C -0.625 -4.316406 -0.695312 -4.691406 -0.84375 -5.046875 C -0.988281 -5.398438 -1.207031 -5.726562 -1.5 -6.03125 L -0.53125 -6.03125 C -0.3125 -5.707031 -0.144531 -5.363281 -0.03125 -5 C 0.0703125 -4.644531 0.125 -4.265625 0.125 -3.859375 C 0.125 -2.828125 -0.1875 -2.015625 -0.8125 -1.421875 C -1.445312 -0.828125 -2.3125 -0.53125 -3.40625 -0.53125 C -4.507812 -0.53125 -5.375 -0.828125 -6 -1.421875 C -6.632812 -2.015625 -6.953125 -2.828125 -6.953125 -3.859375 C -6.953125 -4.273438 -6.898438 -4.660156 -6.796875 -5.015625 C -6.691406 -5.378906 -6.53125 -5.71875 -6.3125 -6.03125 Z M -6.3125 -6.03125 "/>
</g>
<g id="glyph-1-17">
<path d="M -4.96875 -4.15625 L -4.171875 -4.15625 C -4.296875 -3.914062 -4.390625 -3.664062 -4.453125 -3.40625 C -4.515625 -3.15625 -4.546875 -2.890625 -4.546875 -2.609375 C -4.546875 -2.191406 -4.476562 -1.878906 -4.34375 -1.671875 C -4.21875 -1.460938 -4.03125 -1.359375 -3.78125 -1.359375 C -3.582031 -1.359375 -3.425781 -1.429688 -3.3125 -1.578125 C -3.207031 -1.734375 -3.101562 -2.035156 -3 -2.484375 L -2.9375 -2.78125 C -2.800781 -3.375 -2.617188 -3.796875 -2.390625 -4.046875 C -2.160156 -4.296875 -1.835938 -4.421875 -1.421875 -4.421875 C -0.941406 -4.421875 -0.5625 -4.234375 -0.28125 -3.859375 C -0.0078125 -3.484375 0.125 -2.96875 0.125 -2.3125 C 0.125 -2.03125 0.0976562 -1.738281 0.046875 -1.4375 C -0.00390625 -1.144531 -0.0820312 -0.835938 -0.1875 -0.515625 L -1.0625 -0.515625 C -0.894531 -0.816406 -0.769531 -1.117188 -0.6875 -1.421875 C -0.613281 -1.722656 -0.578125 -2.023438 -0.578125 -2.328125 C -0.578125 -2.722656 -0.644531 -3.023438 -0.78125 -3.234375 C -0.914062 -3.453125 -1.101562 -3.5625 -1.34375 -3.5625 C -1.570312 -3.5625 -1.75 -3.484375 -1.875 -3.328125 C -2 -3.171875 -2.117188 -2.832031 -2.234375 -2.3125 L -2.296875 -2.015625 C -2.410156 -1.492188 -2.578125 -1.117188 -2.796875 -0.890625 C -3.023438 -0.660156 -3.335938 -0.546875 -3.734375 -0.546875 C -4.222656 -0.546875 -4.597656 -0.710938 -4.859375 -1.046875 C -5.117188 -1.390625 -5.25 -1.878906 -5.25 -2.515625 C -5.25 -2.828125 -5.222656 -3.117188 -5.171875 -3.390625 C -5.128906 -3.660156 -5.0625 -3.914062 -4.96875 -4.15625 Z M -4.96875 -4.15625 "/>
</g>
<g id="glyph-1-18">
<path d="M 0.46875 -3.015625 C 1.082031 -2.773438 1.484375 -2.539062 1.671875 -2.3125 C 1.859375 -2.09375 1.953125 -1.796875 1.953125 -1.421875 L 1.953125 -0.734375 L 1.25 -0.734375 L 1.25 -1.234375 C 1.25 -1.460938 1.191406 -1.640625 1.078125 -1.765625 C 0.972656 -1.898438 0.710938 -2.046875 0.296875 -2.203125 L -0.078125 -2.359375 L -5.125 -0.28125 L -5.125 -1.171875 L -1.109375 -2.78125 L -5.125 -4.375 L -5.125 -5.265625 Z M 0.46875 -3.015625 "/>
</g>
<g id="glyph-1-19">
<path d="M -7.109375 -2.90625 C -6.410156 -2.5 -5.71875 -2.195312 -5.03125 -2 C -4.34375 -1.800781 -3.644531 -1.703125 -2.9375 -1.703125 C -2.238281 -1.703125 -1.539062 -1.800781 -0.84375 -2 C -0.15625 -2.195312 0.535156 -2.5 1.234375 -2.90625 L 1.234375 -2.171875 C 0.515625 -1.710938 -0.1875 -1.367188 -0.875 -1.140625 C -1.570312 -0.921875 -2.257812 -0.8125 -2.9375 -0.8125 C -3.625 -0.8125 -4.3125 -0.921875 -5 -1.140625 C -5.6875 -1.367188 -6.390625 -1.710938 -7.109375 -2.171875 Z M -7.109375 -2.90625 "/>
</g>
<g id="glyph-1-20">
<path d="M -5.921875 -3.203125 L -0.765625 -1.328125 L -0.765625 -5.078125 Z M 0 -0.078125 L -6.828125 -2.6875 L -6.828125 -3.734375 L 0 -6.328125 Z M 0 -0.078125 "/>
</g>
<g id="glyph-1-21">
<path d="M -6.828125 -0.921875 L -6.828125 -5.234375 L -6.0625 -5.234375 L -6.0625 -1.84375 L -4.03125 -1.84375 L -4.03125 -5.09375 L -3.25 -5.09375 L -3.25 -1.84375 L -0.78125 -1.84375 L -0.78125 -5.328125 L 0 -5.328125 L 0 -0.921875 Z M -6.828125 -0.921875 "/>
</g>
<g id="glyph-1-22">
<path d="M -7.109375 -0.75 L -7.109375 -1.484375 C -6.390625 -1.941406 -5.6875 -2.285156 -5 -2.515625 C -4.3125 -2.742188 -3.625 -2.859375 -2.9375 -2.859375 C -2.257812 -2.859375 -1.570312 -2.742188 -0.875 -2.515625 C -0.1875 -2.285156 0.515625 -1.941406 1.234375 -1.484375 L 1.234375 -0.75 C 0.535156 -1.15625 -0.15625 -1.457031 -0.84375 -1.65625 C -1.539062 -1.851562 -2.238281 -1.953125 -2.9375 -1.953125 C -3.644531 -1.953125 -4.34375 -1.851562 -5.03125 -1.65625 C -5.71875 -1.457031 -6.410156 -1.15625 -7.109375 -0.75 Z M -7.109375 -0.75 "/>
</g>
<g id="glyph-2-0">
<path d="M 3.484375 -2.171875 L 3.484375 -3.125 C 3.492188 -3.78125 3.25 -4.109375 2.75 -4.109375 C 2.382812 -4.109375 2.085938 -3.957031 1.859375 -3.65625 C 1.566406 -3.269531 1.375 -2.828125 1.28125 -2.328125 C 1.15625 -1.710938 1.171875 -1.257812 1.328125 -0.96875 C 1.484375 -0.675781 1.726562 -0.53125 2.0625 -0.53125 C 2.425781 -0.53125 2.765625 -0.820312 3.078125 -1.40625 Z M 2.875 -4.765625 C 3.738281 -4.773438 4.164062 -4.332031 4.15625 -3.4375 C 4.15625 -3.4375 4.375 -3.84375 4.8125 -4.65625 L 5.5 -4.65625 L 4.15625 -2.140625 L 4.140625 -1.21875 C 4.140625 -1.082031 4.175781 -0.957031 4.25 -0.84375 C 4.332031 -0.71875 4.421875 -0.65625 4.515625 -0.65625 L 4.875 -0.65625 L 4.75 0 L 4.296875 0 C 4.035156 0 3.8125 -0.113281 3.625 -0.34375 C 3.53125 -0.46875 3.484375 -0.648438 3.484375 -0.890625 C 3.304688 -0.585938 3.0625 -0.3125 2.75 -0.0625 C 2.601562 0.0507812 2.332031 0.109375 1.9375 0.109375 C 1.28125 0.0976562 0.835938 -0.113281 0.609375 -0.53125 C 0.367188 -0.957031 0.320312 -1.554688 0.46875 -2.328125 C 0.632812 -3.148438 0.925781 -3.75 1.34375 -4.125 C 1.8125 -4.539062 2.320312 -4.753906 2.875 -4.765625 Z M 2.875 -4.765625 "/>
</g>
<g id="glyph-3-0">
<path d="M 0.90625 -3.859375 L 6.234375 -3.859375 L 6.234375 -3.171875 L 0.90625 -3.171875 Z M 0.90625 -2.171875 L 6.234375 -2.171875 L 6.234375 -1.46875 L 0.90625 -1.46875 Z M 0.90625 -2.171875 "/>
</g>
<g id="glyph-3-1">
<path d="M 2.703125 -5.65625 C 2.273438 -5.65625 1.953125 -5.441406 1.734375 -5.015625 C 1.515625 -4.585938 1.40625 -3.945312 1.40625 -3.09375 C 1.40625 -2.25 1.515625 -1.613281 1.734375 -1.1875 C 1.953125 -0.757812 2.273438 -0.546875 2.703125 -0.546875 C 3.140625 -0.546875 3.46875 -0.757812 3.6875 -1.1875 C 3.90625 -1.613281 4.015625 -2.25 4.015625 -3.09375 C 4.015625 -3.945312 3.90625 -4.585938 3.6875 -5.015625 C 3.46875 -5.441406 3.140625 -5.65625 2.703125 -5.65625 Z M 2.703125 -6.3125 C 3.398438 -6.3125 3.929688 -6.035156 4.296875 -5.484375 C 4.671875 -4.941406 4.859375 -4.144531 4.859375 -3.09375 C 4.859375 -2.050781 4.671875 -1.253906 4.296875 -0.703125 C 3.929688 -0.148438 3.398438 0.125 2.703125 0.125 C 2.003906 0.125 1.472656 -0.148438 1.109375 -0.703125 C 0.742188 -1.253906 0.5625 -2.050781 0.5625 -3.09375 C 0.5625 -4.144531 0.742188 -4.941406 1.109375 -5.484375 C 1.472656 -6.035156 2.003906 -6.3125 2.703125 -6.3125 Z M 2.703125 -6.3125 "/>
</g>
<g id="glyph-3-2">
<path d="M 0.90625 -1.0625 L 1.78125 -1.0625 L 1.78125 0 L 0.90625 0 Z M 0.90625 -1.0625 "/>
</g>
<g id="glyph-3-3">
<path d="M 0.921875 -6.203125 L 4.21875 -6.203125 L 4.21875 -5.5 L 1.6875 -5.5 L 1.6875 -3.984375 C 1.8125 -4.023438 1.929688 -4.054688 2.046875 -4.078125 C 2.171875 -4.097656 2.296875 -4.109375 2.421875 -4.109375 C 3.109375 -4.109375 3.65625 -3.914062 4.0625 -3.53125 C 4.46875 -3.15625 4.671875 -2.640625 4.671875 -1.984375 C 4.671875 -1.316406 4.460938 -0.796875 4.046875 -0.421875 C 3.628906 -0.0546875 3.046875 0.125 2.296875 0.125 C 2.035156 0.125 1.769531 0.0976562 1.5 0.046875 C 1.226562 0.00390625 0.945312 -0.0546875 0.65625 -0.140625 L 0.65625 -0.984375 C 0.90625 -0.847656 1.160156 -0.75 1.421875 -0.6875 C 1.691406 -0.625 1.976562 -0.59375 2.28125 -0.59375 C 2.757812 -0.59375 3.132812 -0.71875 3.40625 -0.96875 C 3.6875 -1.21875 3.828125 -1.554688 3.828125 -1.984375 C 3.828125 -2.421875 3.6875 -2.765625 3.40625 -3.015625 C 3.132812 -3.265625 2.757812 -3.390625 2.28125 -3.390625 C 2.050781 -3.390625 1.820312 -3.363281 1.59375 -3.3125 C 1.375 -3.269531 1.148438 -3.195312 0.921875 -3.09375 Z M 0.921875 -6.203125 "/>
</g>
<g id="glyph-3-4">
<path d="M 1.0625 -0.703125 L 2.421875 -0.703125 L 2.421875 -5.4375 L 0.9375 -5.140625 L 0.9375 -5.90625 L 2.421875 -6.203125 L 3.265625 -6.203125 L 3.265625 -0.703125 L 4.625 -0.703125 L 4.625 0 L 1.0625 0 Z M 1.0625 -0.703125 "/>
</g>
<g id="glyph-3-5">
<path d="M 1.640625 -0.703125 L 4.5625 -0.703125 L 4.5625 0 L 0.625 0 L 0.625 -0.703125 C 0.945312 -1.035156 1.378906 -1.476562 1.921875 -2.03125 C 2.472656 -2.59375 2.820312 -2.953125 2.96875 -3.109375 C 3.238281 -3.410156 3.425781 -3.664062 3.53125 -3.875 C 3.632812 -4.082031 3.6875 -4.289062 3.6875 -4.5 C 3.6875 -4.820312 3.570312 -5.085938 3.34375 -5.296875 C 3.113281 -5.503906 2.8125 -5.609375 2.4375 -5.609375 C 2.175781 -5.609375 1.898438 -5.5625 1.609375 -5.46875 C 1.316406 -5.382812 1.003906 -5.25 0.671875 -5.0625 L 0.671875 -5.90625 C 1.003906 -6.039062 1.316406 -6.140625 1.609375 -6.203125 C 1.898438 -6.273438 2.171875 -6.3125 2.421875 -6.3125 C 3.066406 -6.3125 3.578125 -6.148438 3.953125 -5.828125 C 4.335938 -5.515625 4.53125 -5.085938 4.53125 -4.546875 C 4.53125 -4.296875 4.484375 -4.054688 4.390625 -3.828125 C 4.296875 -3.597656 4.117188 -3.328125 3.859375 -3.015625 C 3.796875 -2.929688 3.578125 -2.695312 3.203125 -2.3125 C 2.835938 -1.9375 2.316406 -1.398438 1.640625 -0.703125 Z M 1.640625 -0.703125 "/>
</g>
<g id="glyph-3-6">
<path d="M -0.03125 -6.203125 L 5.234375 -6.203125 L 5.234375 -5.5 L 3.015625 -5.5 L 3.015625 0 L 2.171875 0 L 2.171875 -5.5 L -0.03125 -5.5 Z M -0.03125 -6.203125 "/>
</g>
<g id="glyph-3-7">
<path d="M 4.78125 -2.515625 L 4.78125 -2.140625 L 1.265625 -2.140625 C 1.296875 -1.617188 1.453125 -1.21875 1.734375 -0.9375 C 2.023438 -0.664062 2.425781 -0.53125 2.9375 -0.53125 C 3.226562 -0.53125 3.507812 -0.566406 3.78125 -0.640625 C 4.0625 -0.710938 4.335938 -0.816406 4.609375 -0.953125 L 4.609375 -0.234375 C 4.335938 -0.117188 4.054688 -0.0273438 3.765625 0.03125 C 3.472656 0.09375 3.179688 0.125 2.890625 0.125 C 2.140625 0.125 1.546875 -0.0859375 1.109375 -0.515625 C 0.679688 -0.953125 0.46875 -1.539062 0.46875 -2.28125 C 0.46875 -3.039062 0.671875 -3.644531 1.078125 -4.09375 C 1.492188 -4.539062 2.050781 -4.765625 2.75 -4.765625 C 3.375 -4.765625 3.867188 -4.5625 4.234375 -4.15625 C 4.597656 -3.757812 4.78125 -3.210938 4.78125 -2.515625 Z M 4.015625 -2.75 C 4.015625 -3.164062 3.898438 -3.5 3.671875 -3.75 C 3.441406 -4 3.140625 -4.125 2.765625 -4.125 C 2.335938 -4.125 1.992188 -4 1.734375 -3.75 C 1.472656 -3.507812 1.328125 -3.171875 1.296875 -2.734375 Z M 4.015625 -2.75 "/>
</g>
<g id="glyph-3-8">
<path d="M 2.921875 -2.34375 C 2.296875 -2.34375 1.863281 -2.269531 1.625 -2.125 C 1.394531 -1.988281 1.28125 -1.75 1.28125 -1.40625 C 1.28125 -1.132812 1.367188 -0.914062 1.546875 -0.75 C 1.722656 -0.59375 1.96875 -0.515625 2.28125 -0.515625 C 2.695312 -0.515625 3.035156 -0.664062 3.296875 -0.96875 C 3.554688 -1.269531 3.6875 -1.671875 3.6875 -2.171875 L 3.6875 -2.34375 Z M 4.4375 -2.65625 L 4.4375 0 L 3.6875 0 L 3.6875 -0.703125 C 3.507812 -0.421875 3.289062 -0.210938 3.03125 -0.078125 C 2.769531 0.0546875 2.453125 0.125 2.078125 0.125 C 1.597656 0.125 1.21875 -0.0078125 0.9375 -0.28125 C 0.65625 -0.550781 0.515625 -0.910156 0.515625 -1.359375 C 0.515625 -1.878906 0.6875 -2.269531 1.03125 -2.53125 C 1.382812 -2.800781 1.910156 -2.9375 2.609375 -2.9375 L 3.6875 -2.9375 L 3.6875 -3.015625 C 3.6875 -3.367188 3.566406 -3.640625 3.328125 -3.828125 C 3.097656 -4.023438 2.773438 -4.125 2.359375 -4.125 C 2.085938 -4.125 1.828125 -4.085938 1.578125 -4.015625 C 1.328125 -3.953125 1.085938 -3.859375 0.859375 -3.734375 L 0.859375 -4.4375 C 1.128906 -4.550781 1.394531 -4.632812 1.65625 -4.6875 C 1.925781 -4.738281 2.1875 -4.765625 2.4375 -4.765625 C 3.113281 -4.765625 3.613281 -4.585938 3.9375 -4.234375 C 4.269531 -3.890625 4.4375 -3.363281 4.4375 -2.65625 Z M 4.4375 -2.65625 "/>
</g>
<g id="glyph-3-9">
<path d="M 4.15625 -4.484375 L 4.15625 -3.765625 C 3.9375 -3.878906 3.71875 -3.96875 3.5 -4.03125 C 3.28125 -4.09375 3.0625 -4.125 2.84375 -4.125 C 2.34375 -4.125 1.957031 -3.960938 1.6875 -3.640625 C 1.414062 -3.328125 1.28125 -2.890625 1.28125 -2.328125 C 1.28125 -1.753906 1.414062 -1.3125 1.6875 -1 C 1.957031 -0.6875 2.34375 -0.53125 2.84375 -0.53125 C 3.0625 -0.53125 3.28125 -0.554688 3.5 -0.609375 C 3.71875 -0.671875 3.9375 -0.765625 4.15625 -0.890625 L 4.15625 -0.171875 C 3.9375 -0.078125 3.710938 -0.00390625 3.484375 0.046875 C 3.253906 0.0976562 3.015625 0.125 2.765625 0.125 C 2.054688 0.125 1.492188 -0.09375 1.078125 -0.53125 C 0.671875 -0.976562 0.46875 -1.578125 0.46875 -2.328125 C 0.46875 -3.085938 0.675781 -3.679688 1.09375 -4.109375 C 1.507812 -4.546875 2.082031 -4.765625 2.8125 -4.765625 C 3.050781 -4.765625 3.28125 -4.738281 3.5 -4.6875 C 3.726562 -4.644531 3.945312 -4.578125 4.15625 -4.484375 Z M 4.15625 -4.484375 "/>
</g>
<g id="glyph-3-10">
<path d="M 4.671875 -2.8125 L 4.671875 0 L 3.90625 0 L 3.90625 -2.78125 C 3.90625 -3.226562 3.816406 -3.5625 3.640625 -3.78125 C 3.472656 -4 3.21875 -4.109375 2.875 -4.109375 C 2.457031 -4.109375 2.128906 -3.972656 1.890625 -3.703125 C 1.660156 -3.441406 1.546875 -3.082031 1.546875 -2.625 L 1.546875 0 L 0.765625 0 L 0.765625 -6.46875 L 1.546875 -6.46875 L 1.546875 -3.9375 C 1.722656 -4.21875 1.9375 -4.425781 2.1875 -4.5625 C 2.4375 -4.695312 2.722656 -4.765625 3.046875 -4.765625 C 3.578125 -4.765625 3.976562 -4.597656 4.25 -4.265625 C 4.53125 -3.941406 4.671875 -3.457031 4.671875 -2.8125 Z M 4.671875 -2.8125 "/>
</g>
<g id="glyph-3-11">
<path d="M 3.5 -3.9375 C 3.414062 -3.988281 3.320312 -4.023438 3.21875 -4.046875 C 3.113281 -4.078125 3.003906 -4.09375 2.890625 -4.09375 C 2.453125 -4.09375 2.117188 -3.953125 1.890625 -3.671875 C 1.660156 -3.390625 1.546875 -2.984375 1.546875 -2.453125 L 1.546875 0 L 0.765625 0 L 0.765625 -4.65625 L 1.546875 -4.65625 L 1.546875 -3.9375 C 1.703125 -4.21875 1.910156 -4.425781 2.171875 -4.5625 C 2.429688 -4.695312 2.742188 -4.765625 3.109375 -4.765625 C 3.160156 -4.765625 3.21875 -4.757812 3.28125 -4.75 C 3.34375 -4.75 3.414062 -4.742188 3.5 -4.734375 Z M 3.5 -3.9375 "/>
</g>
<g id="glyph-3-12">
</g>
<g id="glyph-3-13">
<path d="M 2.640625 -6.46875 C 2.265625 -5.820312 1.988281 -5.1875 1.8125 -4.5625 C 1.632812 -3.945312 1.546875 -3.316406 1.546875 -2.671875 C 1.546875 -2.035156 1.632812 -1.398438 1.8125 -0.765625 C 2 -0.140625 2.273438 0.488281 2.640625 1.125 L 1.96875 1.125 C 1.550781 0.46875 1.238281 -0.171875 1.03125 -0.796875 C 0.832031 -1.429688 0.734375 -2.054688 0.734375 -2.671875 C 0.734375 -3.285156 0.832031 -3.90625 1.03125 -4.53125 C 1.238281 -5.164062 1.550781 -5.8125 1.96875 -6.46875 Z M 2.640625 -6.46875 "/>
</g>
<g id="glyph-3-14">
<path d="M 0.421875 -2.671875 L 2.65625 -2.671875 L 2.65625 -1.984375 L 0.421875 -1.984375 Z M 0.421875 -2.671875 "/>
</g>
<g id="glyph-3-15">
<path d="M 0.53125 -6.203125 L 1.4375 -6.203125 L 2.984375 -3.90625 L 4.53125 -6.203125 L 5.4375 -6.203125 L 3.4375 -3.234375 L 5.5625 0 L 4.671875 0 L 2.921875 -2.640625 L 1.15625 0 L 0.25 0 L 2.46875 -3.3125 Z M 0.53125 -6.203125 "/>
</g>
<g id="glyph-3-16">
<path d="M 0.828125 -6.203125 L 1.671875 -6.203125 L 1.671875 -0.703125 L 4.703125 -0.703125 L 4.703125 0 L 0.828125 0 Z M 0.828125 -6.203125 "/>
</g>
<g id="glyph-3-17">
<path d="M 0.6875 -6.46875 L 1.34375 -6.46875 C 1.757812 -5.8125 2.070312 -5.164062 2.28125 -4.53125 C 2.488281 -3.90625 2.59375 -3.285156 2.59375 -2.671875 C 2.59375 -2.054688 2.488281 -1.429688 2.28125 -0.796875 C 2.070312 -0.171875 1.757812 0.46875 1.34375 1.125 L 0.6875 1.125 C 1.050781 0.488281 1.320312 -0.140625 1.5 -0.765625 C 1.6875 -1.398438 1.78125 -2.035156 1.78125 -2.671875 C 1.78125 -3.316406 1.6875 -3.945312 1.5 -4.5625 C 1.320312 -5.1875 1.050781 -5.820312 0.6875 -6.46875 Z M 0.6875 -6.46875 "/>
</g>
<g id="glyph-3-18">
<path d="M 3.78125 -2.90625 C 3.957031 -2.84375 4.128906 -2.710938 4.296875 -2.515625 C 4.472656 -2.316406 4.644531 -2.046875 4.8125 -1.703125 L 5.671875 0 L 4.765625 0 L 3.96875 -1.59375 C 3.769531 -2.007812 3.570312 -2.285156 3.375 -2.421875 C 3.1875 -2.554688 2.925781 -2.625 2.59375 -2.625 L 1.671875 -2.625 L 1.671875 0 L 0.828125 0 L 0.828125 -6.203125 L 2.734375 -6.203125 C 3.441406 -6.203125 3.96875 -6.050781 4.3125 -5.75 C 4.664062 -5.457031 4.84375 -5.015625 4.84375 -4.421875 C 4.84375 -4.023438 4.75 -3.695312 4.5625 -3.4375 C 4.382812 -3.1875 4.125 -3.007812 3.78125 -2.90625 Z M 1.671875 -5.515625 L 1.671875 -3.3125 L 2.734375 -3.3125 C 3.140625 -3.3125 3.441406 -3.40625 3.640625 -3.59375 C 3.847656 -3.78125 3.953125 -4.054688 3.953125 -4.421875 C 3.953125 -4.785156 3.847656 -5.054688 3.640625 -5.234375 C 3.441406 -5.421875 3.140625 -5.515625 2.734375 -5.515625 Z M 1.671875 -5.515625 "/>
</g>
<g id="glyph-3-19">
<path d="M 0.828125 -6.203125 L 4.765625 -6.203125 L 4.765625 -5.5 L 1.671875 -5.5 L 1.671875 -3.65625 L 4.625 -3.65625 L 4.625 -2.953125 L 1.671875 -2.953125 L 1.671875 -0.703125 L 4.828125 -0.703125 L 4.828125 0 L 0.828125 0 Z M 0.828125 -6.203125 "/>
</g>
<g id="glyph-3-20">
<path d="M 0.828125 -6.203125 L 4.40625 -6.203125 L 4.40625 -5.5 L 1.671875 -5.5 L 1.671875 -3.671875 L 4.140625 -3.671875 L 4.140625 -2.96875 L 1.671875 -2.96875 L 1.671875 0 L 0.828125 0 Z M 0.828125 -6.203125 "/>
</g>
<g id="glyph-3-21">
<path d="M 4 -5.1875 L 2.515625 -4.375 L 4 -3.5625 L 3.765625 -3.15625 L 2.359375 -4 L 2.359375 -2.4375 L 1.890625 -2.4375 L 1.890625 -4 L 0.5 -3.15625 L 0.25 -3.5625 L 1.75 -4.375 L 0.25 -5.1875 L 0.5 -5.59375 L 1.890625 -4.75 L 1.890625 -6.3125 L 2.359375 -6.3125 L 2.359375 -4.75 L 3.765625 -5.59375 Z M 4 -5.1875 "/>
</g>
<g id="glyph-3-22">
<path d="M 0.71875 -1.84375 L 0.71875 -4.65625 L 1.484375 -4.65625 L 1.484375 -1.859375 C 1.484375 -1.421875 1.566406 -1.09375 1.734375 -0.875 C 1.910156 -0.65625 2.171875 -0.546875 2.515625 -0.546875 C 2.929688 -0.546875 3.257812 -0.675781 3.5 -0.9375 C 3.738281 -1.195312 3.859375 -1.554688 3.859375 -2.015625 L 3.859375 -4.65625 L 4.625 -4.65625 L 4.625 0 L 3.859375 0 L 3.859375 -0.71875 C 3.671875 -0.4375 3.453125 -0.222656 3.203125 -0.078125 C 2.960938 0.0546875 2.679688 0.125 2.359375 0.125 C 1.828125 0.125 1.421875 -0.0390625 1.140625 -0.375 C 0.859375 -0.707031 0.71875 -1.195312 0.71875 -1.84375 Z M 2.65625 -4.765625 Z M 2.65625 -4.765625 "/>
</g>
<g id="glyph-3-23">
<path d="M 4.671875 -2.8125 L 4.671875 0 L 3.90625 0 L 3.90625 -2.78125 C 3.90625 -3.226562 3.816406 -3.5625 3.640625 -3.78125 C 3.472656 -4 3.21875 -4.109375 2.875 -4.109375 C 2.457031 -4.109375 2.128906 -3.972656 1.890625 -3.703125 C 1.660156 -3.441406 1.546875 -3.082031 1.546875 -2.625 L 1.546875 0 L 0.765625 0 L 0.765625 -4.65625 L 1.546875 -4.65625 L 1.546875 -3.9375 C 1.722656 -4.21875 1.9375 -4.425781 2.1875 -4.5625 C 2.4375 -4.695312 2.722656 -4.765625 3.046875 -4.765625 C 3.578125 -4.765625 3.976562 -4.597656 4.25 -4.265625 C 4.53125 -3.941406 4.671875 -3.457031 4.671875 -2.8125 Z M 4.671875 -2.8125 "/>
</g>
<g id="glyph-3-24">
<path d="M 0.796875 -4.65625 L 1.5625 -4.65625 L 1.5625 0 L 0.796875 0 Z M 0.796875 -6.46875 L 1.5625 -6.46875 L 1.5625 -5.5 L 0.796875 -5.5 Z M 0.796875 -6.46875 "/>
</g>
<g id="glyph-3-25">
<path d="M 3.859375 -2.375 C 3.859375 -2.9375 3.742188 -3.367188 3.515625 -3.671875 C 3.296875 -3.972656 2.976562 -4.125 2.5625 -4.125 C 2.15625 -4.125 1.835938 -3.972656 1.609375 -3.671875 C 1.378906 -3.367188 1.265625 -2.9375 1.265625 -2.375 C 1.265625 -1.832031 1.378906 -1.40625 1.609375 -1.09375 C 1.835938 -0.789062 2.15625 -0.640625 2.5625 -0.640625 C 2.976562 -0.640625 3.296875 -0.789062 3.515625 -1.09375 C 3.742188 -1.40625 3.859375 -1.832031 3.859375 -2.375 Z M 4.625 -0.578125 C 4.625 0.210938 4.445312 0.800781 4.09375 1.1875 C 3.75 1.570312 3.210938 1.765625 2.484375 1.765625 C 2.210938 1.765625 1.957031 1.742188 1.71875 1.703125 C 1.488281 1.671875 1.257812 1.613281 1.03125 1.53125 L 1.03125 0.78125 C 1.257812 0.90625 1.484375 0.992188 1.703125 1.046875 C 1.921875 1.109375 2.140625 1.140625 2.359375 1.140625 C 2.867188 1.140625 3.242188 1.007812 3.484375 0.75 C 3.734375 0.488281 3.859375 0.0898438 3.859375 -0.4375 L 3.859375 -0.8125 C 3.703125 -0.539062 3.5 -0.335938 3.25 -0.203125 C 3.007812 -0.0664062 2.71875 0 2.375 0 C 1.800781 0 1.335938 -0.21875 0.984375 -0.65625 C 0.640625 -1.09375 0.46875 -1.664062 0.46875 -2.375 C 0.46875 -3.101562 0.640625 -3.679688 0.984375 -4.109375 C 1.335938 -4.546875 1.800781 -4.765625 2.375 -4.765625 C 2.71875 -4.765625 3.007812 -4.695312 3.25 -4.5625 C 3.5 -4.425781 3.703125 -4.222656 3.859375 -3.953125 L 3.859375 -4.65625 L 4.625 -4.65625 Z M 4.625 -0.578125 "/>
</g>
<g id="glyph-3-26">
<path d="M 3.921875 -5.34375 L 3.921875 -3.015625 L 6.234375 -3.015625 L 6.234375 -2.3125 L 3.921875 -2.3125 L 3.921875 0 L 3.21875 0 L 3.21875 -2.3125 L 0.90625 -2.3125 L 0.90625 -3.015625 L 3.21875 -3.015625 L 3.21875 -5.34375 Z M 3.921875 -5.34375 "/>
</g>
<g id="glyph-3-27">
<path d="M 1.671875 -5.515625 L 1.671875 -0.6875 L 2.6875 -0.6875 C 3.539062 -0.6875 4.164062 -0.878906 4.5625 -1.265625 C 4.96875 -1.660156 5.171875 -2.273438 5.171875 -3.109375 C 5.171875 -3.941406 4.96875 -4.550781 4.5625 -4.9375 C 4.164062 -5.320312 3.539062 -5.515625 2.6875 -5.515625 Z M 0.828125 -6.203125 L 2.5625 -6.203125 C 3.757812 -6.203125 4.640625 -5.953125 5.203125 -5.453125 C 5.765625 -4.953125 6.046875 -4.171875 6.046875 -3.109375 C 6.046875 -2.035156 5.765625 -1.25 5.203125 -0.75 C 4.640625 -0.25 3.757812 0 2.5625 0 L 0.828125 0 Z M 0.828125 -6.203125 "/>
</g>
<g id="glyph-3-28">
<path d="M 3.765625 -4.515625 L 3.765625 -3.796875 C 3.554688 -3.910156 3.332031 -3.992188 3.09375 -4.046875 C 2.863281 -4.097656 2.625 -4.125 2.375 -4.125 C 1.988281 -4.125 1.703125 -4.066406 1.515625 -3.953125 C 1.328125 -3.835938 1.234375 -3.664062 1.234375 -3.4375 C 1.234375 -3.257812 1.300781 -3.117188 1.4375 -3.015625 C 1.570312 -2.910156 1.84375 -2.8125 2.25 -2.71875 L 2.515625 -2.671875 C 3.054688 -2.546875 3.441406 -2.378906 3.671875 -2.171875 C 3.898438 -1.960938 4.015625 -1.664062 4.015625 -1.28125 C 4.015625 -0.851562 3.84375 -0.507812 3.5 -0.25 C 3.164062 0 2.695312 0.125 2.09375 0.125 C 1.84375 0.125 1.582031 0.0976562 1.3125 0.046875 C 1.039062 -0.00390625 0.757812 -0.078125 0.46875 -0.171875 L 0.46875 -0.953125 C 0.75 -0.804688 1.023438 -0.695312 1.296875 -0.625 C 1.566406 -0.550781 1.835938 -0.515625 2.109375 -0.515625 C 2.472656 -0.515625 2.75 -0.578125 2.9375 -0.703125 C 3.132812 -0.828125 3.234375 -1.003906 3.234375 -1.234375 C 3.234375 -1.429688 3.160156 -1.585938 3.015625 -1.703125 C 2.878906 -1.816406 2.578125 -1.925781 2.109375 -2.03125 L 1.84375 -2.09375 C 1.363281 -2.1875 1.019531 -2.335938 0.8125 -2.546875 C 0.601562 -2.753906 0.5 -3.035156 0.5 -3.390625 C 0.5 -3.828125 0.648438 -4.164062 0.953125 -4.40625 C 1.265625 -4.644531 1.707031 -4.765625 2.28125 -4.765625 C 2.5625 -4.765625 2.828125 -4.742188 3.078125 -4.703125 C 3.328125 -4.660156 3.554688 -4.597656 3.765625 -4.515625 Z M 3.765625 -4.515625 "/>
</g>
<g id="glyph-3-29">
<path d="M 1.5625 -5.984375 L 1.5625 -4.65625 L 3.140625 -4.65625 L 3.140625 -4.0625 L 1.5625 -4.0625 L 1.5625 -1.53125 C 1.5625 -1.15625 1.613281 -0.910156 1.71875 -0.796875 C 1.820312 -0.691406 2.03125 -0.640625 2.34375 -0.640625 L 3.140625 -0.640625 L 3.140625 0 L 2.34375 0 C 1.757812 0 1.351562 -0.109375 1.125 -0.328125 C 0.90625 -0.546875 0.796875 -0.945312 0.796875 -1.53125 L 0.796875 -4.0625 L 0.234375 -4.0625 L 0.234375 -4.65625 L 0.796875 -4.65625 L 0.796875 -5.984375 Z M 1.5625 -5.984375 "/>
</g>
<g id="glyph-3-30">
<path d="M 0.796875 -6.46875 L 1.5625 -6.46875 L 1.5625 0 L 0.796875 0 Z M 0.796875 -6.46875 "/>
</g>
<g id="glyph-3-31">
<path d="M 2.609375 -4.125 C 2.191406 -4.125 1.863281 -3.960938 1.625 -3.640625 C 1.394531 -3.316406 1.28125 -2.878906 1.28125 -2.328125 C 1.28125 -1.765625 1.394531 -1.320312 1.625 -1 C 1.863281 -0.6875 2.191406 -0.53125 2.609375 -0.53125 C 3.015625 -0.53125 3.335938 -0.691406 3.578125 -1.015625 C 3.816406 -1.335938 3.9375 -1.773438 3.9375 -2.328125 C 3.9375 -2.878906 3.816406 -3.316406 3.578125 -3.640625 C 3.335938 -3.960938 3.015625 -4.125 2.609375 -4.125 Z M 2.609375 -4.765625 C 3.273438 -4.765625 3.796875 -4.546875 4.171875 -4.109375 C 4.554688 -3.679688 4.75 -3.085938 4.75 -2.328125 C 4.75 -1.566406 4.554688 -0.96875 4.171875 -0.53125 C 3.796875 -0.09375 3.273438 0.125 2.609375 0.125 C 1.941406 0.125 1.414062 -0.09375 1.03125 -0.53125 C 0.65625 -0.96875 0.46875 -1.566406 0.46875 -2.328125 C 0.46875 -3.085938 0.65625 -3.679688 1.03125 -4.109375 C 1.414062 -4.546875 1.941406 -4.765625 2.609375 -4.765625 Z M 2.609375 -4.765625 "/>
</g>
</g>
<clipPath id="clip-0">
<path clip-rule="nonzero" d="M 95 9.359375 L 96 9.359375 L 96 83.421875 L 95 83.421875 Z M 95 9.359375 "/>
</clipPath>
<clipPath id="clip-1">
<path clip-rule="nonzero" d="M 140 9.359375 L 141 9.359375 L 141 83.421875 L 140 83.421875 Z M 140 9.359375 "/>
</clipPath>
<clipPath id="clip-2">
<path clip-rule="nonzero" d="M 185 9.359375 L 187 9.359375 L 187 83.421875 L 185 83.421875 Z M 185 9.359375 "/>
</clipPath>
<clipPath id="clip-3">
<path clip-rule="nonzero" d="M 231 9.359375 L 232 9.359375 L 232 83.421875 L 231 83.421875 Z M 231 9.359375 "/>
</clipPath>
<clipPath id="clip-4">
<path clip-rule="nonzero" d="M 276 9.359375 L 278 9.359375 L 278 83.421875 L 276 83.421875 Z M 276 9.359375 "/>
</clipPath>
<clipPath id="clip-5">
<path clip-rule="nonzero" d="M 321 9.359375 L 323 9.359375 L 323 83.421875 L 321 83.421875 Z M 321 9.359375 "/>
</clipPath>
<clipPath id="clip-6">
<path clip-rule="nonzero" d="M 90.617188 83 L 366.539062 83 L 366.539062 83.421875 L 90.617188 83.421875 Z M 90.617188 83 "/>
</clipPath>
<clipPath id="clip-7">
<path clip-rule="nonzero" d="M 90.617188 59 L 366.539062 59 L 366.539062 60 L 90.617188 60 Z M 90.617188 59 "/>
</clipPath>
<clipPath id="clip-8">
<path clip-rule="nonzero" d="M 90.617188 35 L 366.539062 35 L 366.539062 37 L 90.617188 37 Z M 90.617188 35 "/>
</clipPath>
<clipPath id="clip-9">
<path clip-rule="nonzero" d="M 90.617188 12 L 366.539062 12 L 366.539062 13 L 90.617188 13 Z M 90.617188 12 "/>
</clipPath>
</defs>
<path fill-rule="nonzero" fill="rgb(100%, 100%, 100%)" fill-opacity="1" d="M 90.617188 83.421875 L 366.539062 83.421875 L 366.539062 9.359375 L 90.617188 9.359375 Z M 90.617188 83.421875 "/>
<g clip-path="url(#clip-0)">
<path fill="none" stroke-width="0.8" stroke-linecap="square" stroke-linejoin="round" stroke="rgb(69.018555%, 69.018555%, 69.018555%)" stroke-opacity="0.2" stroke-miterlimit="10" d="M 173.270657 64.291208 L 173.270657 238.216248 " transform="matrix(0.42583, 0, 0, -0.42583, 21.556, 110.799)"/>
</g>
<path fill="none" stroke-width="3" stroke-linecap="butt" stroke-linejoin="round" stroke="rgb(0%, 0%, 0%)" stroke-opacity="1" stroke-miterlimit="10" d="M 173.270657 64.291208 L 173.270657 57.292009 " transform="matrix(0.42583, 0, 0, -0.42583, 21.556, 110.799)"/>
<g fill="rgb(0%, 0%, 0%)" fill-opacity="1">
<use xlink:href="#glyph-0-0" x="92.358802" y="95.011353"/>
</g>
<g clip-path="url(#clip-1)">
<path fill="none" stroke-width="0.8" stroke-linecap="square" stroke-linejoin="round" stroke="rgb(69.018555%, 69.018555%, 69.018555%)" stroke-opacity="0.2" stroke-miterlimit="10" d="M 279.790571 64.291208 L 279.790571 238.216248 " transform="matrix(0.42583, 0, 0, -0.42583, 21.556, 110.799)"/>
</g>
<path fill="none" stroke-width="3" stroke-linecap="butt" stroke-linejoin="round" stroke="rgb(0%, 0%, 0%)" stroke-opacity="1" stroke-miterlimit="10" d="M 279.790571 64.291208 L 279.790571 57.292009 " transform="matrix(0.42583, 0, 0, -0.42583, 21.556, 110.799)"/>
<g fill="rgb(0%, 0%, 0%)" fill-opacity="1">
<use xlink:href="#glyph-0-1" x="137.718106" y="95.011353"/>
</g>
<g clip-path="url(#clip-2)">
<path fill="none" stroke-width="0.8" stroke-linecap="square" stroke-linejoin="round" stroke="rgb(69.018555%, 69.018555%, 69.018555%)" stroke-opacity="0.2" stroke-miterlimit="10" d="M 386.310485 64.291208 L 386.310485 238.216248 " transform="matrix(0.42583, 0, 0, -0.42583, 21.556, 110.799)"/>
</g>
<path fill="none" stroke-width="3" stroke-linecap="butt" stroke-linejoin="round" stroke="rgb(0%, 0%, 0%)" stroke-opacity="1" stroke-miterlimit="10" d="M 386.310485 64.291208 L 386.310485 57.292009 " transform="matrix(0.42583, 0, 0, -0.42583, 21.556, 110.799)"/>
<g fill="rgb(0%, 0%, 0%)" fill-opacity="1">
<use xlink:href="#glyph-0-2" x="183.077411" y="95.011353"/>
</g>
<g clip-path="url(#clip-3)">
<path fill="none" stroke-width="0.8" stroke-linecap="square" stroke-linejoin="round" stroke="rgb(69.018555%, 69.018555%, 69.018555%)" stroke-opacity="0.2" stroke-miterlimit="10" d="M 492.830399 64.291208 L 492.830399 238.216248 " transform="matrix(0.42583, 0, 0, -0.42583, 21.556, 110.799)"/>
</g>
<path fill="none" stroke-width="3" stroke-linecap="butt" stroke-linejoin="round" stroke="rgb(0%, 0%, 0%)" stroke-opacity="1" stroke-miterlimit="10" d="M 492.830399 64.291208 L 492.830399 57.292009 " transform="matrix(0.42583, 0, 0, -0.42583, 21.556, 110.799)"/>
<g fill="rgb(0%, 0%, 0%)" fill-opacity="1">
<use xlink:href="#glyph-0-3" x="228.436715" y="95.011353"/>
</g>
<g clip-path="url(#clip-4)">
<path fill="none" stroke-width="0.8" stroke-linecap="square" stroke-linejoin="round" stroke="rgb(69.018555%, 69.018555%, 69.018555%)" stroke-opacity="0.2" stroke-miterlimit="10" d="M 599.350313 64.291208 L 599.350313 238.216248 " transform="matrix(0.42583, 0, 0, -0.42583, 21.556, 110.799)"/>
</g>
<path fill="none" stroke-width="3" stroke-linecap="butt" stroke-linejoin="round" stroke="rgb(0%, 0%, 0%)" stroke-opacity="1" stroke-miterlimit="10" d="M 599.350313 64.291208 L 599.350313 57.292009 " transform="matrix(0.42583, 0, 0, -0.42583, 21.556, 110.799)"/>
<g fill="rgb(0%, 0%, 0%)" fill-opacity="1">
<use xlink:href="#glyph-0-4" x="273.79602" y="95.011353"/>
</g>
<g clip-path="url(#clip-5)">
<path fill="none" stroke-width="0.8" stroke-linecap="square" stroke-linejoin="round" stroke="rgb(69.018555%, 69.018555%, 69.018555%)" stroke-opacity="0.2" stroke-miterlimit="10" d="M 705.870227 64.291208 L 705.870227 238.216248 " transform="matrix(0.42583, 0, 0, -0.42583, 21.556, 110.799)"/>
</g>
<path fill="none" stroke-width="3" stroke-linecap="butt" stroke-linejoin="round" stroke="rgb(0%, 0%, 0%)" stroke-opacity="1" stroke-miterlimit="10" d="M 705.870227 64.291208 L 705.870227 57.292009 " transform="matrix(0.42583, 0, 0, -0.42583, 21.556, 110.799)"/>
<g fill="rgb(0%, 0%, 0%)" fill-opacity="1">
<use xlink:href="#glyph-0-5" x="319.155324" y="95.011353"/>
</g>
<g fill="rgb(0%, 0%, 0%)" fill-opacity="1">
<use xlink:href="#glyph-0-6" x="118.9813" y="105.783521"/>
<use xlink:href="#glyph-0-7" x="121.744937" y="105.783521"/>
<use xlink:href="#glyph-0-8" x="130.869622" y="105.783521"/>
<use xlink:href="#glyph-0-9" x="136.818467" y="105.783521"/>
</g>
<g fill="rgb(0%, 0%, 0%)" fill-opacity="1">
<use xlink:href="#glyph-0-10" x="140.462561" y="105.783521"/>
<use xlink:href="#glyph-0-11" x="146.195936" y="105.783521"/>
<use xlink:href="#glyph-0-12" x="151.741946" y="105.783521"/>
<use xlink:href="#glyph-0-7" x="157.503426" y="105.783521"/>
<use xlink:href="#glyph-0-12" x="166.628111" y="105.783521"/>
<use xlink:href="#glyph-0-13" x="172.389591" y="105.783521"/>
<use xlink:href="#glyph-0-14" x="178.329068" y="105.783521"/>
<use xlink:href="#glyph-0-15" x="182.001426" y="105.783521"/>
<use xlink:href="#glyph-0-16" x="184.980532" y="105.783521"/>
<use xlink:href="#glyph-0-13" x="187.584909" y="105.783521"/>
<use xlink:href="#glyph-0-15" x="193.524386" y="105.783521"/>
<use xlink:href="#glyph-0-17" x="196.503492" y="105.783521"/>
<use xlink:href="#glyph-0-18" x="202.452337" y="105.783521"/>
<use xlink:href="#glyph-0-7" x="208.391814" y="105.783521"/>
<use xlink:href="#glyph-0-7" x="217.516499" y="105.783521"/>
<use xlink:href="#glyph-0-19" x="226.641185" y="105.783521"/>
<use xlink:href="#glyph-0-9" x="232.383928" y="105.783521"/>
<use xlink:href="#glyph-0-20" x="236.234283" y="105.783521"/>
<use xlink:href="#glyph-0-15" x="241.780293" y="105.783521"/>
<use xlink:href="#glyph-0-21" x="244.759399" y="105.783521"/>
<use xlink:href="#glyph-0-18" x="252.13222" y="105.783521"/>
<use xlink:href="#glyph-0-19" x="258.071697" y="105.783521"/>
<use xlink:href="#glyph-0-22" x="263.81444" y="105.783521"/>
<use xlink:href="#glyph-0-16" x="266.418817" y="105.783521"/>
<use xlink:href="#glyph-0-14" x="269.023193" y="105.783521"/>
<use xlink:href="#glyph-0-20" x="272.695551" y="105.783521"/>
<use xlink:href="#glyph-0-15" x="278.241561" y="105.783521"/>
<use xlink:href="#glyph-0-23" x="281.220667" y="105.783521"/>
<use xlink:href="#glyph-0-24" x="284.874289" y="105.783521"/>
<use xlink:href="#glyph-0-25" x="291.282179" y="105.783521"/>
<use xlink:href="#glyph-0-26" x="297.793119" y="105.783521"/>
<use xlink:href="#glyph-0-27" x="305.16594" y="105.783521"/>
<use xlink:href="#glyph-0-28" x="312.023506" y="105.783521"/>
<use xlink:href="#glyph-0-29" x="319.283908" y="105.783521"/>
<use xlink:href="#glyph-0-30" x="325.204648" y="105.783521"/>
<use xlink:href="#glyph-0-31" x="328.58659" y="105.783521"/>
<use xlink:href="#glyph-0-32" x="334.544803" y="105.783521"/>
</g>
<g clip-path="url(#clip-6)">
<path fill="none" stroke-width="0.8" stroke-linecap="square" stroke-linejoin="round" stroke="rgb(69.018555%, 69.018555%, 69.018555%)" stroke-opacity="0.2" stroke-miterlimit="10" d="M 162.180183 64.291208 L 810.142692 64.291208 " transform="matrix(0.42583, 0, 0, -0.42583, 21.556, 110.799)"/>
</g>
<path fill="none" stroke-width="3" stroke-linecap="butt" stroke-linejoin="round" stroke="rgb(0%, 0%, 0%)" stroke-opacity="1" stroke-miterlimit="10" d="M 162.180183 64.291208 L 155.180985 64.291208 " transform="matrix(0.42583, 0, 0, -0.42583, 21.556, 110.799)"/>
<g fill="rgb(0%, 0%, 0%)" fill-opacity="1">
<use xlink:href="#glyph-0-33" x="56.379579" y="86.980465"/>
<use xlink:href="#glyph-0-2" x="62.337792" y="86.980465"/>
<use xlink:href="#glyph-0-34" x="68.296006" y="86.980465"/>
<use xlink:href="#glyph-0-35" x="71.275112" y="86.980465"/>
<use xlink:href="#glyph-0-36" x="77.233326" y="86.980465"/>
</g>
<g clip-path="url(#clip-7)">
<path fill="none" stroke-width="0.8" stroke-linecap="square" stroke-linejoin="round" stroke="rgb(69.018555%, 69.018555%, 69.018555%)" stroke-opacity="0.2" stroke-miterlimit="10" d="M 162.180183 119.991252 L 810.142692 119.991252 " transform="matrix(0.42583, 0, 0, -0.42583, 21.556, 110.799)"/>
</g>
<path fill="none" stroke-width="3" stroke-linecap="butt" stroke-linejoin="round" stroke="rgb(0%, 0%, 0%)" stroke-opacity="1" stroke-miterlimit="10" d="M 162.180183 119.991252 L 155.180985 119.991252 " transform="matrix(0.42583, 0, 0, -0.42583, 21.556, 110.799)"/>
<g fill="rgb(0%, 0%, 0%)" fill-opacity="1">
<use xlink:href="#glyph-0-31" x="56.379579" y="63.261768"/>
<use xlink:href="#glyph-0-2" x="62.337792" y="63.261768"/>
<use xlink:href="#glyph-0-34" x="68.296006" y="63.261768"/>
<use xlink:href="#glyph-0-35" x="71.275112" y="63.261768"/>
<use xlink:href="#glyph-0-36" x="77.233326" y="63.261768"/>
</g>
<g clip-path="url(#clip-8)">
<path fill="none" stroke-width="0.8" stroke-linecap="square" stroke-linejoin="round" stroke="rgb(69.018555%, 69.018555%, 69.018555%)" stroke-opacity="0.2" stroke-miterlimit="10" d="M 162.180183 175.691297 L 810.142692 175.691297 " transform="matrix(0.42583, 0, 0, -0.42583, 21.556, 110.799)"/>
</g>
<path fill="none" stroke-width="3" stroke-linecap="butt" stroke-linejoin="round" stroke="rgb(0%, 0%, 0%)" stroke-opacity="1" stroke-miterlimit="10" d="M 162.180183 175.691297 L 155.180985 175.691297 " transform="matrix(0.42583, 0, 0, -0.42583, 21.556, 110.799)"/>
<g fill="rgb(0%, 0%, 0%)" fill-opacity="1">
<use xlink:href="#glyph-0-0" x="56.379579" y="39.54307"/>
<use xlink:href="#glyph-0-2" x="62.337792" y="39.54307"/>
<use xlink:href="#glyph-0-34" x="68.296006" y="39.54307"/>
<use xlink:href="#glyph-0-35" x="71.275112" y="39.54307"/>
<use xlink:href="#glyph-0-36" x="77.233326" y="39.54307"/>
</g>
<g clip-path="url(#clip-9)">
<path fill="none" stroke-width="0.8" stroke-linecap="square" stroke-linejoin="round" stroke="rgb(69.018555%, 69.018555%, 69.018555%)" stroke-opacity="0.2" stroke-miterlimit="10" d="M 162.180183 231.391342 L 810.142692 231.391342 " transform="matrix(0.42583, 0, 0, -0.42583, 21.556, 110.799)"/>
</g>
<path fill="none" stroke-width="3" stroke-linecap="butt" stroke-linejoin="round" stroke="rgb(0%, 0%, 0%)" stroke-opacity="1" stroke-miterlimit="10" d="M 162.180183 231.391342 L 155.180985 231.391342 " transform="matrix(0.42583, 0, 0, -0.42583, 21.556, 110.799)"/>
<g fill="rgb(0%, 0%, 0%)" fill-opacity="1">
<use xlink:href="#glyph-0-1" x="56.379579" y="15.824373"/>
<use xlink:href="#glyph-0-2" x="62.337792" y="15.824373"/>
<use xlink:href="#glyph-0-34" x="68.296006" y="15.824373"/>
<use xlink:href="#glyph-0-35" x="71.275112" y="15.824373"/>
<use xlink:href="#glyph-0-36" x="77.233326" y="15.824373"/>
</g>
<g fill="rgb(0%, 0%, 0%)" fill-opacity="1">
<use xlink:href="#glyph-1-0" x="31.741321" y="85.148225"/>
<use xlink:href="#glyph-1-1" x="31.741321" y="82.384588"/>
<use xlink:href="#glyph-1-2" x="31.741321" y="73.259903"/>
<use xlink:href="#glyph-1-3" x="31.741321" y="67.311058"/>
</g>
<g fill="rgb(0%, 0%, 0%)" fill-opacity="1">
<use xlink:href="#glyph-1-4" x="31.741321" y="63.666965"/>
<use xlink:href="#glyph-1-5" x="31.741321" y="57.933589"/>
<use xlink:href="#glyph-1-6" x="31.741321" y="52.38758"/>
<use xlink:href="#glyph-1-1" x="31.741321" y="46.6261"/>
<use xlink:href="#glyph-1-6" x="31.741321" y="37.501414"/>
<use xlink:href="#glyph-1-7" x="31.741321" y="31.739934"/>
<use xlink:href="#glyph-1-8" x="31.741321" y="25.800458"/>
<use xlink:href="#glyph-1-9" x="31.741321" y="22.1281"/>
<use xlink:href="#glyph-1-10" x="31.741321" y="19.148993"/>
<use xlink:href="#glyph-1-7" x="31.741321" y="16.544617"/>
<use xlink:href="#glyph-1-9" x="31.741321" y="10.60514"/>
</g>
<g fill="rgb(0%, 0%, 0%)" fill-opacity="1">
<use xlink:href="#glyph-1-9" x="42.234039" y="95.873818"/>
<use xlink:href="#glyph-1-11" x="42.234039" y="92.894712"/>
</g>
<g fill="rgb(0%, 0%, 0%)" fill-opacity="1">
<use xlink:href="#glyph-1-12" x="42.234039" y="88.366276"/>
<use xlink:href="#glyph-1-13" x="42.234039" y="82.623532"/>
<use xlink:href="#glyph-1-8" x="42.234039" y="77.470989"/>
<use xlink:href="#glyph-1-14" x="42.234039" y="73.798631"/>
<use xlink:href="#glyph-1-12" x="42.234039" y="67.859154"/>
<use xlink:href="#glyph-1-15" x="42.234039" y="62.116411"/>
<use xlink:href="#glyph-1-9" x="42.234039" y="59.512035"/>
<use xlink:href="#glyph-1-16" x="42.234039" y="56.532928"/>
<use xlink:href="#glyph-1-4" x="42.234039" y="49.993883"/>
<use xlink:href="#glyph-1-7" x="42.234039" y="44.260508"/>
<use xlink:href="#glyph-1-17" x="42.234039" y="38.321031"/>
<use xlink:href="#glyph-1-10" x="42.234039" y="33.440167"/>
<use xlink:href="#glyph-1-17" x="42.234039" y="30.835791"/>
<use xlink:href="#glyph-1-8" x="42.234039" y="25.954927"/>
<use xlink:href="#glyph-1-6" x="42.234039" y="22.28257"/>
<use xlink:href="#glyph-1-7" x="42.234039" y="16.52109"/>
<use xlink:href="#glyph-1-13" x="42.234039" y="10.581613"/>
<use xlink:href="#glyph-1-18" x="42.234039" y="5.42907"/>
<use xlink:href="#glyph-1-9" x="42.234039" y="-0.11694"/>
</g>
<g fill="rgb(0%, 0%, 0%)" fill-opacity="1">
<use xlink:href="#glyph-1-9" x="52.726756" y="81.714971"/>
<use xlink:href="#glyph-1-19" x="52.726756" y="78.735864"/>
<use xlink:href="#glyph-1-20" x="52.726756" y="75.082243"/>
<use xlink:href="#glyph-1-9" x="52.726756" y="68.674353"/>
<use xlink:href="#glyph-1-21" x="52.726756" y="65.695246"/>
<use xlink:href="#glyph-1-7" x="52.726756" y="59.774506"/>
<use xlink:href="#glyph-1-8" x="52.726756" y="53.835029"/>
<use xlink:href="#glyph-1-12" x="52.726756" y="50.162671"/>
<use xlink:href="#glyph-1-10" x="52.726756" y="44.419928"/>
<use xlink:href="#glyph-1-15" x="52.726756" y="41.815551"/>
<use xlink:href="#glyph-1-1" x="52.726756" y="39.211175"/>
<use xlink:href="#glyph-1-6" x="52.726756" y="30.08649"/>
<use xlink:href="#glyph-1-7" x="52.726756" y="24.32501"/>
<use xlink:href="#glyph-1-8" x="52.726756" y="18.385533"/>
<use xlink:href="#glyph-1-22" x="52.726756" y="14.713175"/>
</g>
<path fill-rule="nonzero" fill="rgb(12.156677%, 46.665955%, 70.587158%)" fill-opacity="1" stroke-width="1" stroke-linecap="butt" stroke-linejoin="miter" stroke="rgb(12.156677%, 46.665955%, 70.587158%)" stroke-opacity="1" stroke-miterlimit="10" d="M 228.301053 209.641538 L 238.309082 209.641538 L 238.309082 219.640393 L 228.301053 219.640393 Z M 228.301053 209.641538 " transform="matrix(0.42583, 0, 0, -0.42583, 21.556, 110.799)"/>
<path fill-rule="nonzero" fill="rgb(100%, 49.803162%, 5.490112%)" fill-opacity="1" stroke-width="1" stroke-linecap="butt" stroke-linejoin="miter" stroke="rgb(100%, 49.803162%, 5.490112%)" stroke-opacity="1" stroke-miterlimit="10" d="M 280.928055 160.683841 L 290.92691 160.683841 L 290.92691 170.682696 L 280.928055 170.682696 Z M 280.928055 160.683841 " transform="matrix(0.42583, 0, 0, -0.42583, 21.556, 110.799)"/>
<path fill-rule="nonzero" fill="rgb(17.254639%, 62.744141%, 17.254639%)" fill-opacity="1" stroke-width="1" stroke-linecap="butt" stroke-linejoin="miter" stroke="rgb(17.254639%, 62.744141%, 17.254639%)" stroke-opacity="1" stroke-miterlimit="10" d="M 341.810993 119.890346 L 351.819021 119.890346 L 351.819021 129.889202 L 341.810993 129.889202 Z M 341.810993 119.890346 " transform="matrix(0.42583, 0, 0, -0.42583, 21.556, 110.799)"/>
<path fill-rule="nonzero" fill="rgb(83.920288%, 15.293884%, 15.686035%)" fill-opacity="1" stroke-width="1" stroke-linecap="butt" stroke-linejoin="miter" stroke="rgb(83.920288%, 15.293884%, 15.686035%)" stroke-opacity="1" stroke-miterlimit="10" d="M 351.95662 96.498529 L 361.955475 96.498529 L 361.955475 106.497385 L 351.95662 106.497385 Z M 351.95662 96.498529 " transform="matrix(0.42583, 0, 0, -0.42583, 21.556, 110.799)"/>
<path fill-rule="nonzero" fill="rgb(58.03833%, 40.391541%, 74.116516%)" fill-opacity="1" stroke-width="1" stroke-linecap="butt" stroke-linejoin="bevel" stroke="rgb(58.03833%, 40.391541%, 74.116516%)" stroke-opacity="1" stroke-miterlimit="10" d="M 780.687349 83.977027 L 779.008642 78.794134 L 773.559725 78.794134 L 777.96289 75.592666 L 776.284183 70.409773 L 780.687349 73.611242 L 785.099688 70.409773 L 783.411808 75.592666 L 787.824146 78.794134 L 782.375229 78.794134 Z M 780.687349 83.977027 " transform="matrix(0.42583, 0, 0, -0.42583, 21.556, 110.799)"/>
<path fill-rule="nonzero" fill="rgb(54.901123%, 33.724976%, 29.411316%)" fill-opacity="1" stroke-width="1" stroke-linecap="butt" stroke-linejoin="miter" stroke="rgb(54.901123%, 33.724976%, 29.411316%)" stroke-opacity="1" stroke-miterlimit="10" d="M 186.636099 225.511281 L 196.634954 225.511281 L 196.634954 235.510136 L 186.636099 235.510136 Z M 186.636099 225.511281 " transform="matrix(0.42583, 0, 0, -0.42583, 21.556, 110.799)"/>
<path fill="none" stroke-width="3" stroke-linecap="square" stroke-linejoin="miter" stroke="rgb(0%, 0%, 0%)" stroke-opacity="1" stroke-miterlimit="10" d="M 162.180183 64.291208 L 162.180183 238.216248 " transform="matrix(0.42583, 0, 0, -0.42583, 21.556, 110.799)"/>
<path fill="none" stroke-width="3" stroke-linecap="square" stroke-linejoin="miter" stroke="rgb(0%, 0%, 0%)" stroke-opacity="1" stroke-miterlimit="10" d="M 162.180183 64.291208 L 810.142692 64.291208 " transform="matrix(0.42583, 0, 0, -0.42583, 21.556, 110.799)"/>
<g fill="rgb(0%, 0%, 0%)" fill-opacity="1">
<use xlink:href="#glyph-2-0" x="122.718729" y="19.332304"/>
</g>
<g fill="rgb(0%, 0%, 0%)" fill-opacity="1">
<use xlink:href="#glyph-3-0" x="129.991939" y="19.332304"/>
</g>
<g fill="rgb(0%, 0%, 0%)" fill-opacity="1">
<use xlink:href="#glyph-3-1" x="138.787158" y="19.332304"/>
</g>
<g fill="rgb(0%, 0%, 0%)" fill-opacity="1">
<use xlink:href="#glyph-3-2" x="144.205678" y="19.332304"/>
</g>
<g fill="rgb(0%, 0%, 0%)" fill-opacity="1">
<use xlink:href="#glyph-3-1" x="146.912859" y="19.332304"/>
</g>
<g fill="rgb(0%, 0%, 0%)" fill-opacity="1">
<use xlink:href="#glyph-3-3" x="152.33138" y="19.332304"/>
</g>
<g fill="rgb(0%, 0%, 0%)" fill-opacity="1">
<use xlink:href="#glyph-2-0" x="145.128105" y="40.178815"/>
</g>
<g fill="rgb(0%, 0%, 0%)" fill-opacity="1">
<use xlink:href="#glyph-3-0" x="152.401315" y="40.178815"/>
</g>
<g fill="rgb(0%, 0%, 0%)" fill-opacity="1">
<use xlink:href="#glyph-3-1" x="161.196534" y="40.178815"/>
</g>
<g fill="rgb(0%, 0%, 0%)" fill-opacity="1">
<use xlink:href="#glyph-3-2" x="166.615054" y="40.178815"/>
</g>
<g fill="rgb(0%, 0%, 0%)" fill-opacity="1">
<use xlink:href="#glyph-3-4" x="169.322235" y="40.178815"/>
</g>
<g fill="rgb(0%, 0%, 0%)" fill-opacity="1">
<use xlink:href="#glyph-2-0" x="171.05453" y="57.550908"/>
</g>
<g fill="rgb(0%, 0%, 0%)" fill-opacity="1">
<use xlink:href="#glyph-3-0" x="178.32774" y="57.550908"/>
</g>
<g fill="rgb(0%, 0%, 0%)" fill-opacity="1">
<use xlink:href="#glyph-3-1" x="187.122959" y="57.550908"/>
</g>
<g fill="rgb(0%, 0%, 0%)" fill-opacity="1">
<use xlink:href="#glyph-3-2" x="192.541479" y="57.550908"/>
</g>
<g fill="rgb(0%, 0%, 0%)" fill-opacity="1">
<use xlink:href="#glyph-3-5" x="194.769602" y="57.550908"/>
</g>
<g fill="rgb(0%, 0%, 0%)" fill-opacity="1">
<use xlink:href="#glyph-3-3" x="200.188122" y="57.550908"/>
</g>
<g fill="rgb(0%, 0%, 0%)" fill-opacity="1">
<use xlink:href="#glyph-2-0" x="175.372544" y="67.510908"/>
</g>
<g fill="rgb(0%, 0%, 0%)" fill-opacity="1">
<use xlink:href="#glyph-3-0" x="182.645754" y="67.510908"/>
</g>
<g fill="rgb(0%, 0%, 0%)" fill-opacity="1">
<use xlink:href="#glyph-3-1" x="191.440973" y="67.510908"/>
</g>
<g fill="rgb(0%, 0%, 0%)" fill-opacity="1">
<use xlink:href="#glyph-3-2" x="196.859493" y="67.510908"/>
</g>
<g fill="rgb(0%, 0%, 0%)" fill-opacity="1">
<use xlink:href="#glyph-3-3" x="199.566674" y="67.510908"/>
</g>
<g fill="rgb(0%, 0%, 0%)" fill-opacity="1">
<use xlink:href="#glyph-3-6" x="308.638469" y="74.674523"/>
</g>
<g fill="rgb(0%, 0%, 0%)" fill-opacity="1">
<use xlink:href="#glyph-3-7" x="312.398282" y="74.674523"/>
<use xlink:href="#glyph-3-8" x="317.635991" y="74.674523"/>
<use xlink:href="#glyph-3-9" x="322.856666" y="74.674523"/>
<use xlink:href="#glyph-3-10" x="327.540796" y="74.674523"/>
<use xlink:href="#glyph-3-7" x="332.940321" y="74.674523"/>
<use xlink:href="#glyph-3-11" x="338.17803" y="74.674523"/>
<use xlink:href="#glyph-3-12" x="341.678352" y="74.674523"/>
<use xlink:href="#glyph-3-13" x="344.386631" y="74.674523"/>
<use xlink:href="#glyph-3-6" x="347.708105" y="74.674523"/>
<use xlink:href="#glyph-3-3" x="352.911748" y="74.674523"/>
<use xlink:href="#glyph-3-14" x="358.328305" y="74.674523"/>
</g>
<g fill="rgb(0%, 0%, 0%)" fill-opacity="1">
<use xlink:href="#glyph-3-15" x="360.983622" y="74.674523"/>
<use xlink:href="#glyph-3-16" x="366.817493" y="74.674523"/>
<use xlink:href="#glyph-3-17" x="371.561239" y="74.674523"/>
</g>
<g fill="rgb(0%, 0%, 0%)" fill-opacity="1">
<use xlink:href="#glyph-3-18" x="104.521599" y="10.268994"/>
<use xlink:href="#glyph-3-16" x="110.440636" y="10.268994"/>
<use xlink:href="#glyph-3-19" x="115.184382" y="10.268994"/>
<use xlink:href="#glyph-3-20" x="120.566874" y="10.268994"/>
<use xlink:href="#glyph-3-21" x="125.463919" y="10.268994"/>
</g>
<g fill="rgb(0%, 0%, 0%)" fill-opacity="1">
<use xlink:href="#glyph-3-22" x="206.092279" y="-0.59964"/>
<use xlink:href="#glyph-3-23" x="211.491803" y="-0.59964"/>
<use xlink:href="#glyph-3-24" x="216.891328" y="-0.59964"/>
<use xlink:href="#glyph-3-23" x="219.258943" y="-0.59964"/>
<use xlink:href="#glyph-3-25" x="224.658467" y="-0.59964"/>
<use xlink:href="#glyph-3-12" x="230.066508" y="-0.59964"/>
<use xlink:href="#glyph-3-26" x="232.774787" y="-0.59964"/>
<use xlink:href="#glyph-3-12" x="239.911698" y="-0.59964"/>
<use xlink:href="#glyph-3-27" x="242.619976" y="-0.59964"/>
<use xlink:href="#glyph-3-24" x="249.177758" y="-0.59964"/>
<use xlink:href="#glyph-3-28" x="251.545373" y="-0.59964"/>
<use xlink:href="#glyph-3-29" x="255.982522" y="-0.59964"/>
<use xlink:href="#glyph-3-24" x="259.321029" y="-0.59964"/>
<use xlink:href="#glyph-3-30" x="261.688644" y="-0.59964"/>
<use xlink:href="#glyph-3-30" x="264.056259" y="-0.59964"/>
<use xlink:href="#glyph-3-8" x="266.423873" y="-0.59964"/>
<use xlink:href="#glyph-3-29" x="271.644549" y="-0.59964"/>
<use xlink:href="#glyph-3-24" x="274.983056" y="-0.59964"/>
<use xlink:href="#glyph-3-31" x="277.350671" y="-0.59964"/>
<use xlink:href="#glyph-3-23" x="282.56283" y="-0.59964"/>
</g>
</svg>
